<svg width="661" height="208" viewBox="0 0 661 208" fill="none" xmlns="http://www.w3.org/2000/svg">
<path d="M129.013 105.256C129.013 103.307 128.843 101.346 128.753 99.3966C128.753 99.3059 128.753 99.1813 128.753 99.1246C128.611 98.9273 128.515 98.7007 128.472 98.4615C128.428 98.2223 128.439 97.9764 128.503 97.7419C128.583 97.1866 128.22 96.7333 128.231 96.2233C128.231 94.8179 127.687 93.5032 127.676 92.0979C127.268 91.6559 127.574 91.0439 127.359 90.6019C127.02 89.7396 126.776 88.8426 126.633 87.9272C126.418 86.9639 126.021 86.0799 125.761 85.1505C124.973 82.4548 123.957 79.831 122.723 77.3078C121.467 74.6154 119.948 72.053 118.19 69.6577C117.329 68.5244 116.513 67.2777 115.629 66.1217C114.643 64.93 113.591 63.7949 112.478 62.7217C111.204 61.3366 109.829 60.0486 108.364 58.8683C107.367 58.109 106.403 57.293 105.372 56.6017C103.887 55.559 102.289 54.6523 100.748 53.689C99.3878 52.8276 97.8465 52.329 96.5091 51.4223C95.6024 51.4903 94.9678 50.7763 94.1518 50.5383C93.3466 50.3093 92.5618 50.0136 91.8057 49.6543C90.6504 49.12 89.4476 48.695 88.2131 48.3849C86.3533 47.874 84.4596 47.4952 82.5463 47.2516C81.9461 47.2587 81.3487 47.1668 80.7783 46.9796C80.2343 46.6736 79.7357 46.8549 79.237 46.7529C78.7383 46.6509 78.2283 46.5376 77.7183 46.4923C76.5246 46.5864 75.3234 46.4908 74.1596 46.2089C71.3376 46.0956 68.4929 46.3223 65.7049 46.4809C65.0589 46.8776 64.2882 46.5716 63.6649 46.7869C62.5315 47.1723 61.3982 47.2516 60.2649 47.5803C59.1315 47.9089 57.9982 48.2829 56.8648 48.6569C55.7315 49.0309 54.8815 49.3483 53.9182 49.7903C52.9548 50.2323 51.8555 50.6516 50.8128 51.173C50.1555 51.5016 49.4868 51.8983 48.8181 52.3063C48.3875 52.5556 47.9341 52.805 47.5148 53.077C45.8601 54.2103 44.2168 55.253 42.6641 56.477C42.0294 56.987 41.5307 57.6103 40.8847 58.0637C40.2387 58.517 39.6154 59.197 38.9807 59.6957C38.9416 59.7196 38.9071 59.7503 38.8787 59.7863C38.4934 60.6817 37.6434 61.169 37.0654 61.883C36.748 62.187 36.47 62.5297 36.238 62.903C35.8498 63.5385 35.3812 64.1213 34.844 64.637C34.8052 64.6561 34.7626 64.6659 34.7194 64.6659C34.6761 64.6659 34.6335 64.6561 34.5947 64.637C34.501 64.5689 34.4299 64.4741 34.3907 64.365C34.3907 64.1384 34.3907 63.9117 34.3907 63.685C34.3907 60.4664 34.3907 57.259 34.3907 54.0403C34.3821 53.5644 34.294 53.0932 34.13 52.6463C33.8431 51.6302 33.2288 50.7373 32.3824 50.1061C31.5361 49.475 30.505 49.1408 29.4493 49.1556H5.64917C4.9379 49.2061 4.24727 49.4168 3.62902 49.7721C3.01076 50.1273 2.4809 50.6179 2.07914 51.207C1.89781 51.4903 1.76181 51.8983 1.50114 52.023C0.945801 52.2383 1.53514 52.9183 0.945801 52.9863V203.233C1.53514 203.313 1.1158 203.891 1.4218 204.208C1.71364 204.524 1.98614 204.857 2.23781 205.205C2.64253 205.776 3.17772 206.241 3.79874 206.562C4.41975 206.883 5.1086 207.052 5.80783 207.053H17.3566C22.4226 207.053 27.5566 207.053 32.5773 207.053C33.3502 206.947 34.1099 206.761 34.844 206.497C35.6166 205.926 36.2508 205.188 36.7001 204.339C37.1493 203.49 37.4019 202.55 37.4394 201.59C37.4394 186.29 37.4394 170.986 37.4394 155.678C37.4394 155.316 37.4394 154.953 37.4394 154.545C37.4539 154.49 37.4808 154.439 37.5181 154.395C37.5554 154.352 37.6022 154.318 37.6547 154.296C37.7163 154.296 37.777 154.31 37.8321 154.338C37.8872 154.365 37.9351 154.405 37.972 154.454C38.4658 155.28 39.0597 156.041 39.7401 156.721C41.089 158.193 42.5153 159.593 44.0128 160.914C45.4507 162.056 46.9654 163.097 48.5461 164.031C50.5315 165.114 52.6101 166.017 54.7568 166.728C56.332 167.319 57.9498 167.789 59.5962 168.134C61.271 168.549 62.9707 168.855 64.6849 169.052C65.3317 169.058 65.9752 169.146 66.6002 169.312C67.2334 169.474 67.8847 169.554 68.5383 169.55C69.1843 169.607 69.8189 169.788 70.4649 169.8C72.1423 169.8 73.865 169.856 75.497 169.8C77.1853 169.924 78.8825 169.844 80.5517 169.562C81.2543 169.38 82.0477 169.709 82.739 169.267C83.8888 169.227 85.0299 169.052 86.139 168.746C87.3953 168.524 88.6368 168.225 89.8564 167.85C92.0181 167.232 94.1226 166.428 96.1464 165.448C97.977 164.581 99.7454 163.589 101.439 162.478C102.572 161.708 103.706 160.948 104.839 160.212C106.293 159.172 107.675 158.036 108.976 156.812C110.946 155.073 112.728 153.132 114.291 151.02C115.005 149.978 115.98 149.105 116.66 148.051C118.246 145.756 119.666 143.351 120.91 140.854C121.715 139.109 122.735 137.454 123.403 135.641C123.743 134.734 124.129 133.85 124.457 132.944C125.038 131.505 125.53 130.033 125.931 128.535C126.316 126.88 127.064 125.305 127.064 123.571C127.823 122.041 127.744 120.318 128.129 118.709C128.458 117.371 128.413 115.966 128.662 114.595C128.866 113.461 128.798 112.328 128.911 111.195C129.069 109.219 129.103 107.236 129.013 105.256ZM92.5764 107.772C92.5084 108.497 92.5764 109.223 92.5764 109.948C92.5641 111.226 92.4657 112.502 92.2817 113.767C92.0211 115.15 91.8171 116.555 91.4884 117.915C91.2556 118.81 90.9641 119.688 90.6157 120.545C89.3561 123.776 87.5033 126.744 85.153 129.294C84.6849 129.717 84.2385 130.163 83.8157 130.631C82.1338 132.38 80.1336 133.792 77.9223 134.791C76.4791 135.477 74.9955 136.075 73.4796 136.582C72.9516 136.735 72.414 136.852 71.8703 136.933C71.0997 137.027 70.3404 137.198 69.6036 137.443C69.4761 137.465 69.3458 137.465 69.2183 137.443C68.2549 137.534 67.3029 137.67 66.3396 137.704C65.3762 137.738 64.3449 137.704 63.3476 137.704H61.1829C60.5621 137.83 59.9223 137.83 59.3015 137.704C58.6329 137.386 57.8622 137.772 57.3862 137.432C56.9102 137.092 56.1055 137.534 55.6748 136.933C54.529 136.855 53.4054 136.579 52.3541 136.117C50.1924 135.411 48.1343 134.42 46.2341 133.17C42.0588 130.307 38.8125 126.285 36.8954 121.599C36.5254 120.746 36.2186 119.867 35.9774 118.969C35.7981 118.105 35.5518 117.257 35.2407 116.431C35.0794 115.684 34.9733 114.926 34.9234 114.164C34.844 113.518 34.7534 112.872 34.6514 112.237C34.5494 111.603 34.878 110.991 34.402 110.435C34.2887 110.299 34.402 109.993 34.402 109.767C34.3164 107.581 34.4302 105.392 34.742 103.227C34.9364 101.629 35.2585 100.048 35.7054 98.5013C36.2309 96.376 36.9912 94.3158 37.972 92.3586C38.8238 90.6167 39.9316 89.0122 41.2587 87.5985C41.8707 86.9752 42.3921 86.2159 43.0041 85.6265C44.5371 84.1622 46.2465 82.8945 48.0928 81.8525C49.6154 81.0493 51.2042 80.3782 52.8415 79.8465C53.8074 79.5398 54.7916 79.2938 55.7882 79.1098L57.0348 78.8378C57.4202 78.7698 57.8622 79.0191 58.1682 78.5998C58.1682 78.5998 58.3382 78.5998 58.4175 78.5998C59.6755 78.8038 60.8655 78.2598 62.1122 78.3165C63.3589 78.3731 64.6509 78.3165 65.9202 78.3165C66.4529 78.3165 66.8722 78.7131 67.4389 78.6111C67.9577 78.4391 68.5181 78.4391 69.0369 78.6111C69.5809 78.9511 70.0909 78.6905 70.5896 78.8491C72.6296 79.4725 74.7263 79.9825 76.721 80.7532C78.9198 81.6758 80.9646 82.9294 82.7843 84.4705C84.3543 85.7956 85.7449 87.3195 86.921 89.0039C87.7484 90.1372 88.3944 91.4179 89.1877 92.5626C89.6848 93.3827 90.0661 94.2675 90.3211 95.1919C90.6271 96.0533 90.8764 96.9486 91.1711 97.8213C91.4657 98.6939 91.5451 99.6346 91.9191 100.507C92.1102 101.123 92.1982 101.767 92.1797 102.411C92.4378 104.187 92.5703 105.978 92.5764 107.772Z" fill="#452769"/>
<path d="M473.141 100.802C473.334 99.3287 472.767 97.9007 472.869 96.4387C472.858 96.2686 472.824 96.1008 472.767 95.94C472.561 95.3379 472.424 94.7143 472.359 94.0813C472.359 92.812 471.713 91.6446 471.792 90.364C471.416 89.4691 471.146 88.5334 470.988 87.5759C470.659 86.6693 470.455 85.7173 470.149 84.7993C469.548 82.8374 468.818 80.9178 467.962 79.0532C466.638 76.1306 465.096 73.3119 463.349 70.6212C462.097 68.657 460.695 66.7927 459.156 65.0451C457.214 62.8624 455.12 60.8209 452.888 58.9364C451.755 57.9844 450.508 57.0437 449.261 56.1824C446.437 54.2575 443.44 52.5995 440.308 51.2297C438.088 50.2528 435.819 49.394 433.508 48.657C431.095 47.9757 428.647 47.4234 426.175 47.0023C424.94 46.7757 423.682 46.7757 422.447 46.4923C421.692 46.4314 420.934 46.4314 420.18 46.4923C419.443 46.4923 418.707 46.2317 417.981 46.2543C416.068 46.1996 414.152 46.264 412.247 46.447C410.796 46.6737 409.311 46.7417 407.849 47.0137C406.257 47.2814 404.685 47.6601 403.146 48.147C400.982 48.8159 398.865 49.63 396.81 50.5837C394.48 51.6778 392.233 52.943 390.09 54.3691C389.092 55.0604 388.152 55.8197 387.154 56.4884C386.451 57.0164 385.781 57.5879 385.148 58.1997C384.436 58.7207 383.772 59.3048 383.165 59.9451C382.738 60.4997 382.281 61.0294 381.794 61.5318C381.034 62.2568 380.385 63.0892 379.867 64.0024C379.713 64.2267 379.516 64.4191 379.289 64.5691C379.18 64.6333 379.051 64.6574 378.926 64.6371C378.926 64.6371 378.813 64.5125 378.813 64.4331C378.813 64.1611 378.813 63.8891 378.813 63.6171C378.813 60.4135 378.813 57.1986 378.813 53.9724C378.809 53.2829 378.634 52.6053 378.303 52.0004C377.917 51.137 377.271 50.4158 376.456 49.9377C375.649 49.4462 374.725 49.1801 373.781 49.167C365.938 49.167 358.099 49.167 350.264 49.167C349.663 49.1522 349.065 49.2591 348.506 49.4811C347.947 49.7031 347.439 50.0357 347.011 50.459C346.491 50.9412 346.075 51.5248 345.788 52.1738C345.502 52.8229 345.351 53.5236 345.345 54.2331C345.345 78.7737 345.345 103.329 345.345 127.9V201.647C345.311 201.918 345.311 202.192 345.345 202.463C345.407 203.501 345.847 204.48 346.581 205.217C346.966 205.523 347.272 205.931 347.646 206.259C347.889 206.5 348.184 206.682 348.507 206.792C349.179 206.959 349.867 207.054 350.559 207.075C359.308 207.075 368.046 207.075 376.796 207.075C377.463 207.084 378.124 206.949 378.734 206.679C379.344 206.409 379.889 206.011 380.332 205.511C381.263 204.494 381.777 203.162 381.771 201.783C381.771 186.437 381.771 171.092 381.771 155.746C381.771 155.384 381.771 155.021 381.771 154.613C381.771 154.5 381.85 154.33 381.941 154.307C382.032 154.284 382.247 154.307 382.281 154.42C382.64 155.163 383.145 155.826 383.766 156.37C385.776 158.668 388.06 160.712 390.566 162.456C392.189 163.607 393.928 164.583 395.756 165.368C397.439 166.141 399.193 166.748 400.992 167.182C401.945 167.368 402.884 167.618 403.803 167.93C404.773 168.221 405.756 168.463 406.75 168.655C408.428 169.048 410.132 169.317 411.85 169.46C413.748 169.704 415.66 169.818 417.573 169.8C419.466 169.698 421.381 169.8 423.24 169.8C423.512 169.8 423.841 169.902 424.056 169.8C425.053 169.244 426.243 169.856 427.229 169.267C428.062 169.322 428.897 169.214 429.689 168.95C430.243 168.907 430.793 168.816 431.332 168.678C432.465 168.258 433.701 168.088 434.845 167.646C436.375 167.068 437.996 166.694 439.458 165.98C441.982 164.804 444.421 163.452 446.757 161.934C448.823 160.576 450.782 159.061 452.616 157.401C454.476 155.71 456.228 153.904 457.864 151.995C459.167 150.42 460.38 148.788 461.581 147.133C462.973 145.16 464.219 143.088 465.31 140.934C466.069 139.494 466.749 138.01 467.395 136.502C468.041 134.995 468.619 133.386 469.22 131.833C469.707 130.575 470.058 129.272 470.455 127.991C470.852 126.71 471.158 125.044 471.656 123.605C471.894 122.925 471.656 122.064 472.008 121.44C472.359 120.817 471.94 119.842 472.506 119.173C472.665 117.893 472.903 116.589 472.982 115.32C473.062 114.051 473.334 112.6 473.322 111.229C473.322 109.461 473.322 107.693 473.322 105.925C473.322 104.157 473.685 102.513 473.141 100.802ZM436.965 111.263C436.715 112.827 436.579 114.402 436.239 115.966C435.943 117.37 435.564 118.755 435.106 120.114C434.532 121.824 433.772 123.466 432.839 125.01C431.956 126.39 430.995 127.718 429.961 128.988C428.509 130.791 426.752 132.326 424.77 133.522C422.833 134.784 420.716 135.747 418.491 136.378C417.231 136.771 415.943 137.066 414.638 137.262C413.9 137.256 413.165 137.348 412.451 137.534C411.775 137.734 411.067 137.803 410.365 137.738C409.606 137.738 408.824 137.738 408.099 137.738C407.373 137.738 406.739 137.738 406.059 137.738C404.733 137.753 403.409 137.646 402.103 137.42C400.709 137.287 399.345 136.939 398.057 136.389C396.796 136.271 395.575 135.885 394.476 135.256C393.318 134.751 392.203 134.152 391.144 133.465C389.055 132.119 387.186 130.46 385.602 128.546C383.946 126.551 382.598 124.32 381.601 121.928C380.898 120.353 380.352 118.713 379.969 117.031C379.754 115.898 379.561 114.844 379.38 113.745C379.232 112.861 379.38 111.965 379.13 111.138C378.891 109.693 378.815 108.226 378.904 106.763C378.904 105.528 379.357 104.327 379.164 103.069C379.731 102.423 379.289 101.573 379.663 100.802C380.037 100.031 379.765 99.3174 380.014 98.6487C380.352 97.4358 380.761 96.2438 381.238 95.0787C381.646 94.2513 381.93 93.3787 382.372 92.5626C383.312 90.7295 384.481 89.0234 385.851 87.4853C386.35 86.9299 386.769 86.3519 387.302 85.7853C389.6 83.5269 392.323 81.7471 395.314 80.5492C396.955 79.8076 398.684 79.2819 400.46 78.9852C401.786 78.8039 403.134 78.6565 404.438 78.4185C406.32 78.2218 408.213 78.1574 410.105 78.2259C410.752 78.265 411.395 78.3483 412.031 78.4752C412.677 78.5432 413.357 78.3052 413.947 78.7472C415.888 78.9452 417.794 79.4026 419.613 80.1072C421.159 80.655 422.65 81.3456 424.067 82.1699C426.387 83.5271 428.456 85.2711 430.187 87.3266C431.293 88.5199 432.231 89.8582 432.975 91.3046C433.494 92.1733 433.948 93.0786 434.335 94.0133C434.653 94.954 435.095 95.8607 435.469 96.8127C435.752 97.572 435.877 98.3653 436.092 99.0794C436.307 99.7934 436.421 100.587 436.568 101.346C436.585 102.169 436.676 102.988 436.84 103.794C437.04 104.563 437.109 105.36 437.044 106.151C437.112 107.013 437.044 107.874 437.044 108.735C437.091 109.579 437.064 110.424 436.965 111.263Z" fill="#452769"/>
<path d="M635.164 109.789C635.164 108.577 635.164 107.353 635.164 106.129C635.164 104.905 634.88 103.658 634.937 102.434C635.005 100.915 634.506 99.4421 634.631 97.9007C634.631 97.81 634.631 97.674 634.631 97.64C634.132 97.1867 634.472 96.6087 634.37 96.11C634.268 95.6114 634.178 95.1014 634.11 94.5914C634.071 93.8279 633.965 93.0693 633.792 92.3247C633.543 91.588 633.498 90.8287 633.294 90.058C633.09 89.2873 632.942 88.4826 632.738 87.7006C632.421 86.5673 632.092 85.3546 631.752 84.176C631.412 82.9973 630.982 81.9093 630.619 80.8553C630.058 79.1898 629.399 77.5588 628.647 75.9706C627.513 73.7039 626.267 71.5052 624.93 69.3518C623.006 66.4552 620.862 63.7119 618.515 61.1465C618.159 60.7472 617.781 60.3688 617.381 60.0131C616.996 59.6731 616.531 59.4238 616.18 59.0611C614.606 57.6065 612.894 56.3084 611.069 55.1851C609.659 54.1713 608.169 53.2731 606.615 52.4991C605.481 51.9891 604.461 51.3657 603.317 50.9351C602.172 50.5044 600.721 49.9604 599.441 49.4617C596.523 48.4609 593.539 47.6656 590.51 47.0817C589.853 46.923 589.139 47.0137 588.447 46.821C587.756 46.6284 587.087 46.753 586.385 46.5604C585.667 46.4671 584.942 46.4481 584.22 46.5037C583.483 46.5037 582.758 46.277 582.021 46.2544C580.707 46.2544 579.392 46.3224 578.089 46.2544C576.785 46.1864 575.459 46.5944 574.122 46.5717C572.752 46.5445 571.382 46.6431 570.03 46.8664C569.341 46.8651 568.654 46.9605 567.99 47.1497C567.322 47.535 566.63 47.1497 565.973 47.569C565.316 47.9884 564.5 47.6937 563.82 47.943C563.14 48.1924 562.573 48.181 561.961 48.351L558.663 49.2464C557.002 49.6982 555.367 50.243 553.767 50.8784C552.486 51.3884 551.217 51.9324 549.936 52.4537C548.656 52.9751 547.67 53.5191 546.536 54.0517C545.357 54.5791 544.22 55.1967 543.136 55.8991C541.618 56.9304 540.054 57.9051 538.603 58.9931C536.71 60.3201 534.918 61.7862 533.242 63.3791C531.579 64.8859 530.022 66.5067 528.584 68.2298C527.87 69.1592 527.111 70.0545 526.385 70.9839C524.737 73.141 523.244 75.4135 521.92 77.7839C521.274 78.9172 520.719 80.0506 520.163 81.2633C519.608 82.4759 519.132 83.7453 518.577 84.9466C517.745 86.9183 517.059 88.9487 516.525 91.0213C515.998 92.9157 515.619 94.8482 515.392 96.8014C515.381 97.5351 515.286 98.2652 515.109 98.9774C514.946 99.614 514.87 100.27 514.882 100.927C514.756 101.563 514.669 102.206 514.621 102.853C514.621 104.927 514.621 107.013 514.621 109.098C514.514 111.194 514.594 113.295 514.859 115.377C515.086 116.51 514.927 117.644 515.199 118.777C515.471 119.91 515.698 121.202 515.913 122.404C516.129 123.605 516.639 125.022 516.922 126.348C517.184 127.362 517.502 128.36 517.874 129.34C518.554 131.368 519.461 133.306 520.311 135.267C520.659 135.794 520.952 136.356 521.183 136.944C521.432 137.574 521.767 138.165 522.181 138.701C522.611 139.472 522.963 140.288 523.45 140.968C524.986 143.356 526.655 145.656 528.448 147.858C529.389 148.992 530.477 149.978 531.429 151.1C532.077 151.763 532.77 152.38 533.503 152.947C534.296 153.65 535.033 154.409 535.872 155.089C537.307 156.268 538.799 157.375 540.348 158.41C542.014 159.543 543.692 160.608 545.426 161.572C546.888 162.376 548.463 162.977 549.959 163.702C551.738 164.564 553.597 165.21 555.444 165.901C556.556 166.392 557.714 166.772 558.901 167.035C560.68 167.318 562.301 168.168 564.148 168.168C565.32 168.564 566.533 168.823 567.764 168.939C568.348 169.086 568.943 169.189 569.543 169.245C570.2 169.313 570.869 169.143 571.47 169.528C572.751 169.524 574.031 169.611 575.3 169.789C577.023 169.845 578.701 169.789 580.469 169.789C582.202 169.867 583.94 169.788 585.659 169.551C586.906 169.301 588.221 169.449 589.467 169.211C590.115 169.164 590.759 169.073 591.394 168.939C592.131 168.678 592.89 168.644 593.661 168.44C594.431 168.236 595.145 168.077 595.927 167.885C597.117 167.579 598.307 167.295 599.486 166.955C601.965 166.178 604.402 165.27 606.785 164.235C608.813 163.432 610.769 162.457 612.633 161.322C614.401 160.189 616.203 159.158 617.891 157.922C619.744 156.552 621.501 155.056 623.15 153.446C623.524 153.072 623.955 152.766 624.351 152.426C624.555 152.256 624.839 152.108 624.941 151.893C625.292 151.278 625.753 150.733 626.301 150.284C626.72 149.904 627.052 149.438 627.273 148.917C627.494 148.397 627.599 147.834 627.581 147.269C627.586 146.591 627.428 145.922 627.123 145.317C626.818 144.712 626.373 144.189 625.825 143.79C624.533 142.849 623.229 141.954 621.96 140.99C621.099 140.344 620.203 139.744 619.342 139.109L615.942 136.57C614.809 135.698 613.596 134.814 612.406 133.952C611.216 133.091 610.015 132.264 608.859 131.38C607.765 130.382 606.338 129.829 604.858 129.827C603.506 129.838 602.212 130.38 601.254 131.334C599.394 133.382 597.345 135.248 595.134 136.91C594.039 137.701 592.904 138.435 591.734 139.109C590.585 139.717 589.392 140.236 588.164 140.662C586.016 141.359 583.802 141.833 581.557 142.078C580.742 142.135 579.924 142.135 579.109 142.078C578.293 142.078 577.477 142.078 576.661 142.078C575.868 142.161 575.067 142.108 574.292 141.92C573.567 141.625 572.705 142.01 572.025 141.546C570.711 141.434 569.422 141.117 568.206 140.605C566.337 139.964 564.555 139.092 562.902 138.01C562.244 137.59 561.644 137.092 561.009 136.661C560.374 136.23 559.706 135.21 558.742 134.791C558.619 134.73 558.52 134.631 558.459 134.508C557.893 133.573 557.194 132.726 556.385 131.992C555.591 130.978 554.875 129.906 554.243 128.784C553.453 127.353 552.745 125.877 552.124 124.364C551.625 123.231 551.523 121.916 550.99 120.76C550.905 120.456 550.905 120.135 550.99 119.831C551.015 119.761 551.057 119.698 551.113 119.648C551.168 119.599 551.235 119.564 551.308 119.548C551.67 119.548 552.033 119.548 552.441 119.548H590.623C602.455 119.548 614.28 119.548 626.097 119.548C627.743 119.634 629.394 119.562 631.027 119.332C631.977 119.116 632.859 118.673 633.6 118.04C634.183 117.479 634.619 116.782 634.869 116.011C635.179 115.25 635.326 114.431 635.3 113.609C635.13 112.328 635.164 111.059 635.164 109.789ZM598.715 94.2967C598.673 94.4175 598.607 94.5287 598.521 94.624C598.436 94.7193 598.332 94.7968 598.217 94.852C597.901 94.8918 597.581 94.8918 597.265 94.852H552.158C551.782 94.9089 551.4 94.9089 551.024 94.852C550.786 94.784 550.435 94.5687 550.628 94.1493C550.731 93.9658 550.804 93.7668 550.843 93.56C551.039 90.7867 551.811 88.0847 553.11 85.6266C554.272 83.1857 555.91 81.0011 557.926 79.2006C560.152 77.2733 562.654 75.6916 565.35 74.5086C566.674 73.9741 568.029 73.5199 569.407 73.1485C569.94 72.9785 570.54 73.2505 571.039 72.8199C572.32 72.8992 573.566 72.4005 574.87 72.5252C575.856 72.6272 576.853 72.5252 577.851 72.5252C578.991 72.5129 580.13 72.6154 581.251 72.8312C582.543 73.1712 583.835 73.5565 585.104 73.9645C586.985 74.7272 588.766 75.7167 590.408 76.9112C591.227 77.5673 591.986 78.2956 592.675 79.0872C594.002 80.3987 595.121 81.9044 595.995 83.5526C596.716 84.834 597.282 86.1959 597.684 87.61C597.888 88.3466 598.035 89.106 598.205 89.8767C598.335 90.4658 598.414 91.0648 598.443 91.6673C598.443 92.268 598.625 92.8687 598.704 93.458C598.774 93.7327 598.778 94.0202 598.715 94.2967Z" fill="#452769"/>
<path d="M241.803 108.135C241.803 125.384 241.803 142.634 241.803 159.883C241.773 161.237 241.364 162.556 240.623 163.69C239.882 164.823 238.838 165.727 237.61 166.298C236.977 166.539 236.325 166.729 235.66 166.865C233.76 167.121 231.84 167.197 229.926 167.091C228.022 167.091 226.118 167.091 224.259 167.091C221.63 167.091 219 167.091 216.326 167.091C215.045 167.113 213.765 167.003 212.506 166.763C211.685 166.62 210.908 166.286 210.24 165.788C209.174 165.043 208.291 164.066 207.656 162.932C207.233 162.138 206.996 161.258 206.964 160.359C206.964 157.515 206.964 154.692 206.964 151.802C206.987 151.584 206.987 151.364 206.964 151.145C206.918 151.106 206.863 151.077 206.805 151.061C206.746 151.046 206.684 151.043 206.624 151.054C206.452 151.189 206.306 151.354 206.194 151.542C205.446 152.743 204.55 153.808 203.746 155.01C202.482 156.726 201.059 158.32 199.496 159.77C198.407 160.764 197.243 161.673 196.016 162.49C194.447 163.657 192.77 164.67 191.007 165.516C189.775 166.145 188.494 166.672 187.176 167.091C186.383 167.329 185.635 167.737 184.807 167.941C183.478 168.365 182.127 168.721 180.761 169.007C179.515 169.177 178.268 169.324 177.044 169.562C175.541 169.753 174.025 169.825 172.511 169.777C171.253 169.777 169.983 169.777 168.714 169.777C167.025 169.777 165.314 169.653 163.659 169.483C163.117 169.351 162.562 169.271 162.005 169.245C161.393 169.245 160.871 168.871 160.214 168.939C159.653 168.947 159.096 168.851 158.571 168.655C156.653 168.226 154.761 167.689 152.904 167.046C150.965 166.247 149.073 165.339 147.237 164.326C145.866 163.555 144.631 162.535 143.316 161.663C141.793 160.553 140.422 159.25 139.236 157.787C137.956 156.504 136.892 155.023 136.085 153.4C135.899 153.063 135.687 152.741 135.45 152.437C134.699 151.22 134.361 149.793 134.487 148.368C134.589 147.4 134.857 146.457 135.28 145.58C135.881 144.288 136.584 143.042 137.094 141.716C137.604 140.39 138.046 139.109 138.601 137.862C139.61 135.596 140.165 133.25 140.947 130.949C141.394 129.538 141.75 128.099 142.013 126.642C142.239 125.509 142.489 124.376 142.659 123.242C142.655 122.597 142.751 121.955 142.942 121.338C143.259 120.704 142.942 120.058 143.191 119.536C143.378 119.001 143.462 118.436 143.441 117.87C143.441 117.224 143.622 116.59 143.701 115.944C143.677 115.334 143.753 114.726 143.928 114.142C144.037 113.565 144.037 112.973 143.928 112.396C143.797 111.361 143.797 110.314 143.928 109.28C144.218 108.17 144.273 107.011 144.087 105.88C143.803 104.009 143.973 102.139 143.86 100.281C143.722 99.6919 143.632 99.0932 143.588 98.4901C143.718 97.8812 143.625 97.246 143.327 96.6994C143.379 95.6886 143.276 94.6758 143.021 93.6961C142.947 92.8462 142.799 92.0044 142.579 91.1801C142.4 90.6064 142.293 90.0124 142.262 89.412C142.121 88.3098 141.885 87.2216 141.559 86.1594C141.333 84.8674 140.89 83.6207 140.584 82.3513C140.268 81.1761 139.89 80.0185 139.451 78.8833C138.76 76.866 137.887 74.9166 137.048 72.9559C136.47 71.6073 135.858 70.2699 135.156 68.9779C134.453 67.6859 133.456 66.1559 132.64 64.7166C132.018 63.6015 131.321 62.53 130.554 61.5092C130.248 61.1012 130.044 60.6139 129.727 60.2285C128.761 58.9953 128.277 57.452 128.367 55.8878C128.367 54.7545 128.435 53.6211 128.367 52.4878C128.355 51.9022 128.518 51.3264 128.835 50.8338C129.152 50.3413 129.609 49.9544 130.146 49.7225C130.769 49.33 131.496 49.1363 132.232 49.1671C140.709 49.1671 149.179 49.1671 157.641 49.1671C158.982 49.1753 160.292 49.5687 161.415 50.3005C162.901 51.1714 163.984 52.5923 164.43 54.2558C164.719 55.155 164.887 56.0889 164.929 57.0325V95.0334C164.929 101.097 164.929 107.172 164.929 113.235C164.929 115.014 165.235 116.771 165.235 118.562C165.235 119.219 165.507 119.91 165.461 120.613C166.039 121.1 165.586 121.848 165.96 122.46C166.334 123.072 166.073 123.843 166.3 124.489C167.052 126.886 168.119 129.173 169.473 131.289C170.607 132.938 172.051 134.35 173.723 135.448C175.067 136.398 176.624 137.001 178.257 137.205C178.585 137.205 178.903 137.398 179.231 137.454C179.56 137.511 179.923 137.364 180.24 137.692C180.376 137.828 180.75 137.692 181.022 137.692C182.881 137.692 184.739 137.692 186.598 137.692C187.064 137.633 187.525 137.546 187.981 137.432C188.411 137.375 188.967 137.522 189.273 137.307C189.579 137.092 190.316 137.443 190.61 136.888C191.991 136.686 193.32 136.217 194.52 135.505C196.226 134.658 197.763 133.506 199.054 132.105C199.976 131.19 200.759 130.143 201.377 129C201.965 127.935 202.484 126.833 202.93 125.702C203.213 124.863 203.53 124.047 203.791 123.197C203.959 122.33 204.194 121.477 204.494 120.647C204.647 120.065 204.738 119.469 204.766 118.868C205.015 117.734 204.936 116.499 205.094 115.32C205.627 111.467 205.276 107.602 205.344 103.749C205.412 99.8955 205.344 95.9628 205.344 92.0754V68.7852C205.344 64.8979 205.344 60.9992 205.344 57.1005C205.266 55.6381 205.617 54.1849 206.352 52.9185C206.844 52.0472 207.509 51.286 208.306 50.6817C209.103 50.0775 210.016 49.643 210.988 49.4051C211.607 49.2554 212.243 49.1793 212.88 49.1784C220.213 49.1784 227.557 49.1784 234.89 49.1784C235.776 49.1572 236.656 49.324 237.472 49.6678C238.289 50.0116 239.023 50.5247 239.627 51.1731C240.043 51.5107 240.423 51.8905 240.761 52.3065C241.473 53.3799 241.866 54.6337 241.894 55.9218C241.833 73.3451 241.803 90.7494 241.803 108.135Z" fill="#452769"/>
<path d="M255.393 108.101C255.393 90.3074 255.393 72.5139 255.393 54.7205C255.361 53.6448 255.649 52.5841 256.22 51.6718C256.636 50.9306 257.239 50.3114 257.968 49.8759C258.698 49.4404 259.529 49.2039 260.379 49.1897C269.208 49.1897 278.037 49.1897 286.877 49.1897C287.807 49.1462 288.729 49.3862 289.52 49.878C290.312 50.3697 290.935 51.0901 291.308 51.9438C291.646 52.5919 291.828 53.3097 291.841 54.0405C291.841 58.2565 291.841 62.4612 291.841 66.6772C291.841 66.9832 291.841 67.3119 291.841 67.6179C291.85 67.6762 291.873 67.7318 291.906 67.7807C291.939 67.8297 291.983 67.8708 292.033 67.9012C292.158 67.9006 292.278 67.8565 292.373 67.7765C292.487 67.7018 292.58 67.6006 292.645 67.4819C293.511 65.7395 294.52 64.0716 295.66 62.4952C296.657 61.019 297.732 59.5966 298.879 58.2338C299.774 57.2478 300.636 56.2165 301.61 55.3098C304.301 52.7102 307.422 50.5972 310.836 49.0651C312.386 48.4084 313.99 47.8852 315.63 47.5011C316.634 47.3534 317.621 47.1067 318.576 46.7644C318.617 46.7543 318.66 46.7543 318.701 46.7644C319.109 46.7644 319.517 46.7644 319.925 46.7644C320.333 46.7644 320.582 46.4811 320.9 46.5151C322.328 46.6624 323.71 46.1751 325.138 46.2204C326.566 46.2657 327.938 46.2204 329.343 46.2204C330.057 46.2204 330.68 46.6171 331.406 46.5151C332.13 46.4527 332.858 46.4527 333.582 46.5151C334.748 46.7159 335.853 47.1811 336.812 47.8751C337.711 48.862 338.251 50.1242 338.342 51.4564C338.296 59.1103 338.296 66.7603 338.342 74.4066C338.272 75.426 337.916 76.405 337.314 77.231C336.713 78.057 335.89 78.6965 334.942 79.076C334.069 78.8833 333.298 79.6653 332.301 79.1666C331.472 78.8947 330.598 78.7906 329.728 78.8606C329.116 78.8606 328.595 78.4639 327.938 78.5433C327.28 78.6226 326.68 78.7926 326.147 78.2939H319.222C318.633 78.8039 317.942 78.5093 317.296 78.5659C316.73 78.5479 316.165 78.6323 315.63 78.8153C315.131 79.042 314.496 78.7359 313.952 79.0533C313.408 79.3706 312.706 79.1893 312.048 79.3593C309.658 79.8613 307.35 80.6968 305.192 81.8413C303.48 82.7615 301.899 83.9048 300.488 85.2413C299.274 86.3343 298.21 87.5845 297.326 88.9587C296.714 90.092 296.068 91.1347 295.535 92.2907C294.867 93.7527 294.402 95.2714 293.881 96.8241C293.691 97.3384 293.55 97.8697 293.461 98.4107C293.402 99.2197 293.218 100.015 292.917 100.768C292.917 100.836 292.917 100.949 292.917 101.04C292.899 102.093 292.801 103.142 292.623 104.179C292.373 105.188 292.566 106.231 292.339 107.183C292.172 108.639 292.089 110.103 292.09 111.569C291.569 115.728 291.92 119.91 291.852 124.036C291.784 128.161 291.852 132.547 291.852 136.808V162.059C291.865 162.868 291.662 163.665 291.264 164.368C290.865 165.072 290.286 165.656 289.585 166.06C288.548 166.75 287.34 167.143 286.095 167.193C277.855 167.193 269.616 167.193 261.365 167.193C260.776 167.193 260.232 166.853 259.722 166.91C259.212 166.967 258.679 166.536 258.169 166.377C257.63 166.158 257.144 165.826 256.743 165.404C256.343 164.982 256.037 164.479 255.846 163.929C255.618 163.335 255.466 162.714 255.393 162.082C255.37 161.856 255.37 161.628 255.393 161.402V108.101Z" fill="#452769"/>
<path d="M506.314 86.4086C506.314 113.171 506.314 139.932 506.314 166.694C506.357 167.739 506.067 168.77 505.487 169.64C504.906 170.51 504.065 171.173 503.084 171.534C502.457 171.821 501.778 171.979 501.089 171.998C492.532 171.998 483.964 171.998 475.408 171.998C474.36 172.046 473.325 171.756 472.456 171.17C471.587 170.584 470.929 169.734 470.58 168.746C470.335 168.152 470.201 167.518 470.183 166.876C470.183 165.425 470.183 163.974 470.183 162.524C470.231 161.967 470.318 161.414 470.444 160.869C470.504 160.316 470.599 159.767 470.727 159.226C471.01 158.217 471.418 157.242 471.69 156.222C472.12 155.049 472.643 153.912 473.254 152.822C473.925 151.548 474.682 150.321 475.521 149.15C476.224 148.017 476.915 146.827 477.64 145.682C478.739 143.856 479.723 141.964 480.587 140.016C481.233 138.61 481.868 137.194 482.412 135.743C483.239 133.59 483.919 131.391 484.678 129.204C484.962 128.32 485.166 127.413 485.404 126.506C485.642 125.6 485.834 124.613 486.152 123.695C486.322 123.197 486.152 122.709 486.435 122.177C486.663 121.478 486.774 120.747 486.764 120.012C486.832 119.547 486.945 119.083 487.036 118.629C487.126 118.176 486.854 117.734 487.274 117.36C487.342 117.292 487.274 117.099 487.274 116.975C487.16 115.456 487.75 113.983 487.546 112.441C487.853 110.733 487.94 108.993 487.806 107.262C487.806 105.539 487.806 103.817 487.806 102.094C487.806 101.403 487.602 100.723 487.557 100.031C487.618 99.359 487.599 98.6818 487.5 98.014C487.251 97.2206 487.432 96.416 487.24 95.668C486.877 94.2513 487.013 92.7553 486.458 91.3839C486.344 89.1173 485.324 86.9979 485.098 84.7426C484.089 82.6572 483.681 80.3679 482.752 78.2372L480.78 73.7038C480.36 72.7405 479.805 71.8451 479.363 70.8931C478.898 69.9462 478.38 69.0267 477.81 68.1391C477.289 67.2158 476.722 66.3193 476.11 65.4531C475.34 64.4218 474.592 63.3678 473.844 62.3024C472.57 60.418 471.592 58.3504 470.942 56.171C470.674 55.1772 470.473 54.1662 470.342 53.145C470.104 50.6971 470.036 48.2356 470.138 45.7783C470.07 43.285 470.138 40.7916 470.138 38.2983C470.138 27.6675 470.138 17.0254 470.138 6.38337C470.132 5.41541 470.363 4.4607 470.809 3.60174C471.255 2.74277 471.904 2.0054 472.699 1.45334C473.365 1.00008 474.16 0.773558 474.966 0.807335C482.842 0.784668 490.685 0.784668 498.482 0.784668C499.298 0.784668 500.114 0.852668 500.919 0.784668C502.348 0.785052 503.732 1.28635 504.829 2.20134C505.418 3.33469 506.291 4.33203 506.291 5.8167C506.291 32.6844 506.299 59.5484 506.314 86.4086Z" fill="#452769"/>
<path d="M653.116 66.6091C652.912 65.8838 652.742 65.1358 652.572 64.3991C652.289 63.2657 651.937 62.1324 650.6 61.6677C650.527 61.6346 650.459 61.5927 650.396 61.5431C650.461 61.4873 650.533 61.4415 650.611 61.4071C651.275 61.1784 651.856 60.756 652.277 60.1944C652.642 59.6842 652.844 59.0754 652.856 58.4483C652.868 57.8211 652.69 57.205 652.345 56.681C651.99 56.213 651.53 55.8342 651.003 55.5745C650.476 55.3149 649.896 55.1815 649.308 55.185C647.301 54.998 645.279 55.0665 643.29 55.389C642.927 55.4797 642.769 55.5024 642.769 55.9217C642.769 57.735 642.769 59.5484 642.769 61.3617V66.2464C642.769 67.3798 642.769 67.3798 643.902 67.3798C644.491 67.3798 645.035 67.3798 645.659 67.3798L645.761 65.5211C645.761 65.2038 645.761 64.8864 645.761 64.5691C645.761 63.9911 645.761 63.4357 645.851 62.8464C646.517 62.7615 647.191 62.7615 647.857 62.8464C648.205 62.8682 648.536 63.0029 648.799 63.23C649.063 63.457 649.246 63.7641 649.319 64.1044C649.489 65.0111 649.863 65.8724 650.09 66.7678C650.1 66.8647 650.129 66.9588 650.175 67.0444C650.222 67.1301 650.285 67.2057 650.361 67.2668C650.437 67.328 650.524 67.3734 650.617 67.4006C650.711 67.4278 650.809 67.4361 650.906 67.4251H652.674C653.343 67.3798 653.331 67.3798 653.116 66.6091ZM649.557 59.8091C649.174 60.2395 648.653 60.5239 648.084 60.6137C647.862 60.6423 647.637 60.6423 647.415 60.6137L645.817 60.5117C645.817 59.9791 645.817 59.4464 645.727 58.9251C645.727 58.5284 645.727 58.1204 645.727 57.7124C645.725 57.6251 645.741 57.5385 645.774 57.4579C645.808 57.3772 645.857 57.3043 645.92 57.2437C645.983 57.1831 646.058 57.136 646.139 57.1055C646.221 57.075 646.308 57.0617 646.395 57.0664C647.133 57.0195 647.874 57.104 648.583 57.3157C648.839 57.3698 649.078 57.4864 649.278 57.6553C649.478 57.8242 649.634 58.0401 649.73 58.2837C649.827 58.5272 649.862 58.7909 649.831 59.0511C649.801 59.3114 649.707 59.5601 649.557 59.7751V59.8091Z" fill="#452769"/>
<path d="M659.677 58.7211C657.15 43.7043 632.33 48.0337 635.435 63.1185C637.43 79.1099 663.327 74.6786 659.677 58.7211ZM656.912 61.4978C656.425 73.8852 638.348 73.1939 638.155 61.1238C638.484 48.623 657.218 48.8837 656.912 61.4978Z" fill="#452769"/>
<path d="M653.116 66.6091C652.912 65.8838 652.742 65.1358 652.572 64.3991C652.289 63.2657 651.937 62.1324 650.6 61.6677C650.527 61.6346 650.459 61.5927 650.396 61.5431C650.461 61.4873 650.533 61.4415 650.611 61.4071C651.275 61.1784 651.856 60.756 652.277 60.1944C652.642 59.6842 652.844 59.0754 652.856 58.4483C652.868 57.8211 652.69 57.205 652.345 56.681C651.99 56.213 651.53 55.8342 651.003 55.5745C650.476 55.3149 649.896 55.1815 649.308 55.185C647.301 54.998 645.279 55.0665 643.29 55.389C642.927 55.4797 642.769 55.5024 642.769 55.9217C642.769 57.735 642.769 59.5484 642.769 61.3617V66.2464C642.769 67.3798 642.769 67.3798 643.902 67.3798C644.491 67.3798 645.035 67.3798 645.659 67.3798L645.761 65.5211C645.761 65.2038 645.761 64.8864 645.761 64.5691C645.761 63.9911 645.761 63.4357 645.851 62.8464C646.517 62.7615 647.191 62.7615 647.857 62.8464C648.205 62.8682 648.536 63.0029 648.799 63.23C649.063 63.457 649.246 63.7641 649.319 64.1044C649.489 65.0111 649.863 65.8724 650.09 66.7678C650.1 66.8647 650.129 66.9588 650.175 67.0444C650.222 67.1301 650.285 67.2057 650.361 67.2668C650.437 67.328 650.524 67.3734 650.617 67.4006C650.711 67.4278 650.809 67.4361 650.906 67.4251H652.674C653.343 67.3798 653.331 67.3798 653.116 66.6091ZM649.557 59.8091C649.174 60.2395 648.653 60.5239 648.084 60.6137C647.862 60.6423 647.637 60.6423 647.415 60.6137L645.817 60.5117C645.817 59.9791 645.817 59.4464 645.727 58.9251C645.727 58.5284 645.727 58.1204 645.727 57.7124C645.725 57.6251 645.741 57.5385 645.774 57.4579C645.808 57.3772 645.857 57.3043 645.92 57.2437C645.983 57.1831 646.058 57.136 646.139 57.1055C646.221 57.075 646.308 57.0617 646.395 57.0664C647.133 57.0195 647.874 57.104 648.583 57.3157C648.839 57.3698 649.078 57.4864 649.278 57.6553C649.478 57.8242 649.634 58.0401 649.73 58.2837C649.827 58.5272 649.862 58.7909 649.831 59.0511C649.801 59.3114 649.707 59.5601 649.557 59.7751V59.8091Z" fill="#452769"/>
<path d="M653.116 66.6091C652.504 64.7278 652.651 62.3024 650.396 61.5431C650.461 61.4873 650.533 61.4415 650.611 61.4071C651.275 61.1784 651.856 60.756 652.277 60.1944C652.642 59.6842 652.844 59.0754 652.856 58.4483C652.868 57.8211 652.69 57.205 652.345 56.681C651.99 56.213 651.53 55.8342 651.003 55.5745C650.476 55.3149 649.896 55.1815 649.308 55.185C647.301 54.998 645.279 55.0665 643.29 55.389C642.927 55.4797 642.769 55.5024 642.769 55.9217C642.769 57.735 642.769 59.5484 642.769 61.3617V66.2464C642.769 67.3798 642.769 67.3798 643.902 67.3798C644.491 67.3798 645.035 67.3798 645.659 67.3798L645.761 65.5211C645.761 64.6258 645.761 63.7417 645.851 62.8464C646.517 62.7615 647.191 62.7615 647.857 62.8464C648.205 62.8682 648.536 63.0029 648.799 63.23C649.063 63.457 649.246 63.7641 649.319 64.1044C649.489 65.0111 649.863 65.8724 650.09 66.7678C650.373 67.9011 651.824 67.2664 652.674 67.4251C653.343 67.3798 653.331 67.3798 653.116 66.6091ZM649.557 59.8091C649.293 60.108 648.96 60.3384 648.587 60.4805C648.214 60.6226 647.812 60.6722 647.415 60.6251L645.817 60.5117C645.817 59.9791 645.817 59.4464 645.727 58.9251C645.727 58.5284 645.727 58.1204 645.727 57.7124C645.725 57.6251 645.741 57.5385 645.774 57.4579C645.808 57.3772 645.857 57.3043 645.92 57.2437C645.983 57.1831 646.058 57.136 646.139 57.1055C646.221 57.075 646.308 57.0617 646.395 57.0664C648.084 56.885 650.804 57.6897 649.557 59.7751V59.8091Z" fill="#452769"/>
</svg>
