<svg width="610" height="129" viewBox="0 0 610 129" fill="none" xmlns="http://www.w3.org/2000/svg">
<path d="M52.7324 0.227539H80.8584V92.143C80.8584 97.871 79.9938 103.032 78.2646 107.625C76.5895 112.11 74.1309 115.947 70.8887 119.135C67.7005 122.269 63.8369 124.673 59.2978 126.349C54.7047 127.97 49.5443 128.78 43.8164 128.78H37.0078C31.334 128.78 26.2005 127.97 21.6074 126.349C17.0684 124.673 13.1777 122.269 9.93551 119.135C6.74741 115.947 4.3157 112.11 2.6406 107.625C0.911455 103.032 0.046875 97.871 0.046875 92.143V0.227539H28.1728V92.225C28.1728 96.277 29.0374 99.087 30.7666 100.654C32.4417 102.113 35.2786 102.843 39.2773 102.843H41.6279C45.6266 102.843 48.4365 102.113 50.0576 100.654C51.8408 99.087 52.7324 96.277 52.7324 92.225V0.227539ZM152.501 63.6122C154.878 63.6122 156.769 63.3961 158.174 62.9638C159.633 62.5315 160.768 61.829 161.579 60.8564C162.335 59.8837 162.876 58.6139 163.2 57.0468C163.47 55.6419 163.605 53.7506 163.605 51.373V38.4042C163.605 36.0266 163.47 34.1353 163.2 32.7304C162.876 31.1633 162.335 29.8935 161.579 28.9208C160.768 27.9482 159.633 27.2457 158.174 26.8134C156.769 26.3811 154.878 26.165 152.501 26.165H139.127V63.6122H152.501ZM111.001 126.997V0.227539H154.77C166.766 0.227539 175.952 3.60474 182.329 10.3593C188.597 17.0058 191.731 26.3541 191.731 38.4042V51.373C191.731 63.4231 188.597 72.771 182.329 79.418C175.952 86.172 166.766 89.55 154.77 89.55H139.127V126.997H111.001ZM244.083 101.059H285.826V126.997H215.957V0.227539H244.083V101.059ZM343.932 79.904H358.36L351.146 41.8085L343.932 79.904ZM364.844 105.842H337.448L332.179 126.997H303.243L337.853 0.227539H364.52L399.05 126.997H370.194L364.844 105.842ZM470.773 61.2616V0.227539H498.899V126.997H471.827L446.214 65.9628V126.997H418.088V0.227539H445.16L470.773 61.2616ZM529.042 0.227539H569.407C582.16 0.227539 591.94 3.09144 598.749 8.81934C606.098 14.9794 609.772 24.3277 609.772 36.8642V90.36C609.772 102.897 606.098 112.245 598.749 118.405C591.94 124.133 582.16 126.997 569.407 126.997H529.042V0.227539ZM557.168 26.165V101.059H569.407C571.677 101.059 573.487 100.924 574.838 100.654C576.459 100.384 577.756 99.898 578.728 99.195C579.701 98.385 580.43 97.304 580.917 95.953C581.403 94.548 581.646 92.711 581.646 90.441V36.7831C581.646 34.5136 581.403 32.6764 580.917 31.2714C580.43 29.9205 579.701 28.8398 578.728 28.0292C577.756 27.3268 576.459 26.8404 574.838 26.5702C573.487 26.3001 571.677 26.165 569.407 26.165H557.168Z" fill="white"/>
</svg>
