<?xml version="1.0" encoding="UTF-8"?>
<svg width="136px" height="124px" viewBox="0 0 136 124" version="1.1" xmlns="http://www.w3.org/2000/svg" xmlns:xlink="http://www.w3.org/1999/xlink">
    <!-- Generator: Sketch 53 (72520) - https://sketchapp.com -->
    <title>bat</title>
    <desc>Created with Sketch.</desc>
    <g id="illustrations" stroke="none" stroke-width="1" fill="none" fill-rule="evenodd">
        <g id="Rewards-Simple-Copy" transform="translate(-193.000000, -61.000000)">
            <g id="bat" transform="translate(205.000000, 62.000000)">
                <g id="Logo/BAT/Full-Color">
                    <g id="Group-9" transform="translate(3.498702, 4.373377)">
                        <path d="M0.177067394,90.8728285 L31.0264637,72.9226755 L52.2941792,36.0053635 L52.2941792,0.411196855 C51.7332247,0.411196855 51.1722703,0.781677554 50.7466474,1.51848791 L25.5543167,45.2487013 L0.364052215,88.9789146 C-0.0605376271,89.7167627 -0.100827174,90.3861186 0.177067394,90.8728285" id="Fill-1" fill="#FF4724"></path>
                        <path d="M52.2944891,0.411196855 L52.2944891,36.0053635 L73.5611716,72.9226755 L104.410568,90.8728285 C104.689495,90.3861186 104.649206,89.7167627 104.224616,88.9789146 L79.0333185,45.2487013 L53.8409879,1.51848791 C53.415365,0.780639793 52.8544105,0.411196855 52.2944891,0.411196855" id="Fill-3" fill="#9E1F63"></path>
                        <path d="M104.410774,90.8728285 L73.5613782,72.9226755 L31.0269802,72.9226755 L0.177583927,90.8728285 C0.455478495,91.361614 1.05362331,91.6646402 1.90486912,91.6646402 L102.682456,91.6646402 C103.533702,91.6646402 104.131847,91.361614 104.410774,90.8728285" id="Fill-5" fill="#662D91"></path>
                        <polygon id="Fill-7" fill="#FFFFFF" points="31.0267736 72.9227792 73.5611716 72.9227792 52.2944891 36.0054673"></polygon>
                    </g>
                </g>
            </g>
        </g>
    </g>
</svg>