<?xml version="1.0" encoding="UTF-8"?> <!-- Generator: Adobe Illustrator 23.0.3, SVG Export Plug-In . SVG Version: 6.00 Build 0) --> <svg xmlns="http://www.w3.org/2000/svg" xmlns:xlink="http://www.w3.org/1999/xlink" id="logosvg.com" x="0px" y="0px" viewBox="0 0 400 300" style="enable-background:new 0 0 400 300;" xml:space="preserve"> <style type="text/css"> .st0{fill:#253B80;} .st1{fill:#179BD7;} .st2{fill:#222D65;} </style> <path class="st0" d="M153.8,124h-20.2c-1.4,0-2.6,1-2.8,2.4l-8.2,51.7c-0.1,0.9,0.5,1.8,1.4,1.9c0.1,0,0.2,0,0.3,0h9.6 c1.4,0,2.6-1,2.8-2.4l2.2-13.9c0.2-1.4,1.4-2.4,2.8-2.4h6.4c13.3,0,21-6.4,23-19.2c0.9-5.6,0-10-2.6-13 C165.7,125.8,160.6,124,153.8,124z M156.2,142.9c-1.1,7.2-6.6,7.2-12,7.2h-3l2.1-13.5c0.1-0.8,0.8-1.4,1.7-1.4h1.4 c3.6,0,7.1,0,8.9,2.1C156.3,138.5,156.6,140.3,156.2,142.9z M214.1,142.7h-9.7c-0.8,0-1.5,0.6-1.7,1.4l-0.4,2.7l-0.7-1 c-2.1-3-6.8-4-11.4-4c-10.7,0-19.8,8.1-21.6,19.4c-0.9,5.7,0.4,11.1,3.6,14.8c2.9,3.5,7.2,4.9,12.2,4.9c8.6,0,13.4-5.5,13.4-5.5 l-0.4,2.7c-0.1,0.9,0.5,1.8,1.4,1.9c0.1,0,0.2,0,0.3,0h8.7c1.4,0,2.6-1,2.8-2.4l5.2-33.1c0.1-0.9-0.5-1.8-1.4-1.9 C214.3,142.7,214.2,142.7,214.1,142.7z M200.7,161.4c-0.9,5.5-5.3,9.2-10.9,9.2c-2.8,0-5-0.9-6.5-2.6c-1.4-1.7-2-4.1-1.5-6.8 c0.9-5.5,5.3-9.3,10.8-9.3c2.7,0,5,0.9,6.4,2.6C200.5,156.3,201.1,158.8,200.7,161.4z M265.6,142.7h-9.7c-0.9,0-1.8,0.5-2.3,1.2 l-13.4,19.7l-5.7-18.9c-0.4-1.2-1.5-2-2.7-2h-9.5c-0.9,0-1.7,0.7-1.7,1.7c0,0.2,0,0.4,0.1,0.5l10.7,31.4l-10,14.2 c-0.5,0.8-0.4,1.8,0.4,2.3c0.3,0.2,0.6,0.3,1,0.3h9.7c0.9,0,1.8-0.4,2.3-1.2l32.3-46.6c0.5-0.8,0.3-1.8-0.4-2.3 C266.2,142.8,265.9,142.7,265.6,142.7L265.6,142.7z"></path> <path class="st1" d="M297.7,124h-20.2c-1.4,0-2.6,1-2.8,2.4l-8.2,51.7c-0.1,0.9,0.5,1.8,1.4,1.9c0.1,0,0.2,0,0.3,0h10.3 c1,0,1.8-0.7,1.9-1.7l2.3-14.7c0.2-1.4,1.4-2.4,2.8-2.4h6.4c13.3,0,21-6.4,23-19.2c0.9-5.6,0-10-2.6-13 C309.5,125.8,304.4,124,297.7,124z M300,142.9c-1.1,7.2-6.6,7.2-12,7.2h-3l2.1-13.5c0.1-0.8,0.8-1.4,1.7-1.4h1.4 c3.6,0,7.1,0,8.9,2.1C300.1,138.5,300.4,140.3,300,142.9z M358,142.7h-9.7c-0.8,0-1.5,0.6-1.7,1.4l-0.4,2.7l-0.7-1 c-2.1-3-6.7-4-11.4-4c-10.7,0-19.8,8.1-21.6,19.4c-0.9,5.7,0.4,11.1,3.6,14.8c2.9,3.5,7.2,4.9,12.2,4.9c8.6,0,13.4-5.5,13.4-5.5 l-0.4,2.7c-0.1,0.9,0.5,1.8,1.4,1.9c0.1,0,0.2,0,0.3,0h8.7c1.4,0,2.6-1,2.8-2.4l5.2-33.1c0.1-0.9-0.5-1.8-1.4-1.9 C358.1,142.7,358,142.7,358,142.7z M344.5,161.4c-0.9,5.5-5.3,9.2-10.9,9.2c-2.8,0-5-0.9-6.5-2.6c-1.4-1.7-2-4.1-1.5-6.8 c0.9-5.5,5.3-9.3,10.8-9.3c2.7,0,5,0.9,6.4,2.6C344.3,156.3,344.9,158.8,344.5,161.4z M369.3,125.4l-8.3,52.7 c-0.1,0.9,0.5,1.8,1.4,1.9c0.1,0,0.2,0,0.3,0h8.3c1.4,0,2.6-1,2.8-2.4l8.2-51.7c0.1-0.9-0.5-1.8-1.4-1.9c-0.1,0-0.2,0-0.3,0H371 C370.2,124,369.5,124.6,369.3,125.4z"></path> <path class="st0" d="M39,190.1l1.5-9.8l-3.4-0.1H20.7l11.4-72.3c0.1-0.5,0.5-0.8,0.9-0.8h27.7c9.2,0,15.5,1.9,18.8,5.7 c1.6,1.8,2.5,3.6,3,5.7c0.5,2.1,0.5,4.7,0,7.8l0,0.2v2l1.6,0.9c1.2,0.6,2.2,1.4,3.1,2.4c1.3,1.5,2.2,3.4,2.5,5.7 c0.4,2.3,0.3,5.1-0.4,8.3c-0.7,3.6-1.9,6.8-3.4,9.4c-1.4,2.3-3.2,4.3-5.4,5.9c-2.1,1.5-4.5,2.6-7.2,3.3c-2.7,0.7-5.7,1-9.1,1h-2.2 c-1.5,0-3,0.6-4.2,1.5c-1.2,1-1.9,2.4-2.2,3.9l-0.2,0.9L52.9,189l-0.1,0.6c0,0.2-0.1,0.3-0.2,0.4c-0.1,0.1-0.2,0.1-0.3,0.1 C52.3,190.1,39,190.1,39,190.1z"></path> <path class="st1" d="M85.5,126.7c-0.1,0.5-0.2,1.1-0.3,1.6c-3.6,18.7-16.1,25.2-32.1,25.2h-8.1c-1.9,0-3.6,1.4-3.9,3.3L37,183.2 l-1.2,7.5c-0.2,1.1,0.6,2.2,1.7,2.4c0.1,0,0.2,0,0.3,0h14.4c1.7,0,3.2-1.2,3.4-2.9l0.1-0.7l2.7-17.2l0.2-0.9 c0.3-1.7,1.7-2.9,3.4-2.9h2.2c13.9,0,24.9-5.7,28.1-22c1.3-6.8,0.6-12.6-2.9-16.6C88.4,128.5,87,127.5,85.5,126.7z"></path> <path class="st2" d="M81.7,125.2c-1.2-0.3-2.3-0.6-3.5-0.8c-2.4-0.4-4.8-0.5-7.2-0.5H49.4c-1.7,0-3.2,1.2-3.4,2.9L41.3,156l-0.1,0.9 c0.3-1.9,2-3.3,3.9-3.3h8.1c15.9,0,28.4-6.5,32.1-25.2c0.1-0.6,0.2-1.1,0.3-1.6c-1-0.5-2-0.9-3-1.3C82.3,125.3,82,125.3,81.7,125.2z "></path> <path class="st0" d="M45.9,126.8c0.3-1.7,1.7-2.9,3.4-2.9H71c2.6,0,5,0.2,7.2,0.5c1.5,0.2,2.9,0.6,4.4,1c1.1,0.4,2.1,0.8,3,1.3 c1.1-6.9,0-11.6-3.8-15.9c-4.1-4.7-11.6-6.7-21.1-6.7H33c-1.9,0-3.6,1.4-3.9,3.3l-11.5,73c-0.2,1.3,0.7,2.5,2,2.7c0.1,0,0.2,0,0.4,0 H37l4.3-27.2C41.3,156,45.9,126.8,45.9,126.8z"></path> </svg> 