<svg height="58" width="256" xmlns="http://www.w3.org/2000/svg"><g fill="none" fill-rule="evenodd"><path d="M88.646 25.308c-2.288 0-4.066-.623-5.335-1.87s-1.903-3.014-1.903-5.302V9.6h4.356v8.404c0 2.464.975 3.696 2.926 3.696 1.936 0 2.904-1.232 2.904-3.696V9.6h4.29v8.536c0 2.288-.634 4.055-1.903 5.302s-3.047 1.87-5.335 1.87zM113.484 9.6V25h-3.586l-6.798-8.206V25h-4.268V9.6h3.586l6.798 8.206V9.6zm8.492 15.708c-1.247 0-2.457-.154-3.63-.462s-2.127-.719-2.86-1.232l1.43-3.212c.69.455 1.489.821 2.398 1.1s1.804.418 2.684.418c1.672 0 2.508-.418 2.508-1.254 0-.44-.238-.766-.715-.979s-1.243-.436-2.299-.671c-1.159-.25-2.127-.517-2.904-.803s-1.445-.744-2.002-1.375-.836-1.481-.836-2.552c0-.939.257-1.786.77-2.541s1.28-1.353 2.299-1.793 2.27-.66 3.751-.66c1.012 0 2.01.114 2.992.341s1.848.561 2.596 1.001l-1.342 3.234c-1.467-.792-2.89-1.188-4.268-1.188-.865 0-1.496.128-1.892.385-.396.257-.594.59-.594 1.001s.235.719.704.924 1.225.418 2.266.638c1.173.25 2.145.517 2.915.803s1.437.74 2.002 1.364c.565.623.847 1.47.847 2.541 0 .924-.257 1.76-.77 2.508s-1.283 1.346-2.31 1.793-2.273.671-3.74.671zm12.1-12.254h-4.73V9.6h13.794v3.454h-4.708V25h-4.356zm18.458 12.254c-1.628 0-3.091-.345-4.389-1.034s-2.317-1.643-3.058-2.86-1.111-2.589-1.111-4.114.37-2.897 1.111-4.114 1.76-2.17 3.058-2.86c1.298-.69 2.761-1.034 4.389-1.034s3.091.345 4.389 1.034c1.298.69 2.317 1.643 3.058 2.86s1.111 2.589 1.111 4.114-.37 2.897-1.111 4.114-1.76 2.17-3.058 2.86-2.761 1.034-4.389 1.034zm0-3.608c.777 0 1.481-.183 2.112-.55s1.13-.884 1.496-1.551c.367-.667.55-1.434.55-2.299s-.183-1.632-.55-2.299c-.367-.667-.865-1.184-1.496-1.551s-1.335-.55-2.112-.55-1.481.183-2.112.55-1.13.884-1.496 1.551-.55 1.434-.55 2.299.183 1.632.55 2.299.865 1.184 1.496 1.551 1.335.55 2.112.55zM170.42 9.6c1.393 0 2.603.231 3.63.693 1.027.462 1.819 1.122 2.376 1.98s.836 1.866.836 3.025-.279 2.163-.836 3.014-1.35 1.507-2.376 1.969-2.237.693-3.63.693h-2.684V25h-4.356V9.6zm-.264 7.942c.895 0 1.57-.194 2.024-.583s.682-.942.682-1.661-.227-1.276-.682-1.672-1.13-.594-2.024-.594h-2.42v4.51zM186.634 9.6c1.393 0 2.603.231 3.63.693 1.027.462 1.819 1.122 2.376 1.98s.836 1.866.836 3.025-.279 2.163-.836 3.014-1.35 1.507-2.376 1.969-2.237.693-3.63.693h-2.684V25h-4.356V9.6zm-.264 7.942c.895 0 1.57-.194 2.024-.583s.682-.942.682-1.661-.227-1.276-.682-1.672-1.13-.594-2.024-.594h-2.42v4.51zm19.756 4.466h-6.512L198.404 25h-4.444l6.798-15.4h4.29l6.82 15.4h-4.532zm-1.276-3.212l-1.98-4.928-1.98 4.928zm20.086-1.826c.88.308 1.57.788 2.068 1.441s.748 1.441.748 2.365c0 1.35-.543 2.39-1.628 3.124s-2.655 1.1-4.708 1.1H213.1V9.6h7.876c1.965 0 3.461.363 4.488 1.089 1.027.726 1.54 1.705 1.54 2.937 0 .733-.18 1.39-.539 1.969s-.869 1.038-1.529 1.375zm-7.524-4.224v2.97h2.992c1.467 0 2.2-.499 2.2-1.496 0-.983-.733-1.474-2.2-1.474zm3.652 9.108c1.525 0 2.288-.52 2.288-1.562s-.763-1.562-2.288-1.562h-3.652v3.124zM230.018 9.6h4.356v11.946h7.348V25h-11.704zm25.784 12.034V25h-12.364V9.6h12.078v3.366h-7.766v2.596h6.842v3.256h-6.842v2.816zM81.54 33.6h7.282c1.687 0 3.183.315 4.488.946s2.317 1.525 3.036 2.684 1.078 2.515 1.078 4.07-.36 2.911-1.078 4.07-1.73 2.053-3.036 2.684-2.801.946-4.488.946H81.54zm7.106 11.924c1.32 0 2.38-.374 3.179-1.122s1.199-1.782 1.199-3.102-.4-2.354-1.199-3.102-1.859-1.122-3.179-1.122h-2.75v8.448zm18.832 3.784c-1.628 0-3.091-.345-4.389-1.034s-2.317-1.643-3.058-2.86c-.74-1.217-1.111-2.589-1.111-4.114s.37-2.897 1.111-4.114c.74-1.217 1.76-2.17 3.058-2.86s2.761-1.034 4.389-1.034 3.091.345 4.389 1.034 2.317 1.643 3.058 2.86 1.111 2.589 1.111 4.114-.37 2.897-1.111 4.114-1.76 2.17-3.058 2.86-2.761 1.034-4.389 1.034zm0-3.608c.777 0 1.481-.183 2.112-.55s1.13-.884 1.496-1.551c.367-.667.55-1.434.55-2.299s-.183-1.632-.55-2.299c-.367-.667-.865-1.184-1.496-1.551s-1.335-.55-2.112-.55-1.481.183-2.112.55-1.13.884-1.496 1.551c-.367.667-.55 1.434-.55 2.299s.183 1.632.55 2.299c.367.667.865 1.184 1.496 1.551s1.335.55 2.112.55zm24.75 3.3l-.044-8.162-3.96 6.644h-1.936l-3.938-6.424V49h-4.026V33.6h3.586l5.412 8.888 5.28-8.888h3.586l.044 15.4zm17.402-2.992h-6.512L141.908 49h-4.444l6.798-15.4h4.29l6.82 15.4h-4.532zm-1.276-3.212l-1.98-4.928-1.98 4.928zm8.25-9.196h4.356V49h-4.356zm22.11 0V49h-3.586l-6.798-8.206V49h-4.268V33.6h3.586l6.798 8.206V33.6zm8.492 15.708c-1.247 0-2.457-.154-3.63-.462s-2.127-.719-2.86-1.232l1.43-3.212c.69.455 1.489.821 2.398 1.1s1.804.418 2.684.418c1.672 0 2.508-.418 2.508-1.254 0-.44-.238-.766-.715-.979s-1.243-.436-2.299-.671c-1.159-.25-2.127-.517-2.904-.803s-1.445-.744-2.002-1.375-.836-1.481-.836-2.552c0-.939.257-1.786.77-2.541s1.28-1.353 2.299-1.793 2.27-.66 3.751-.66c1.012 0 2.01.114 2.992.341s1.848.561 2.596 1.001l-1.342 3.234c-1.467-.792-2.89-1.188-4.268-1.188-.865 0-1.496.128-1.892.385-.396.257-.594.59-.594 1.001s.235.719.704.924 1.225.418 2.266.638c1.173.25 2.145.517 2.915.803s1.437.74 2.002 1.364.847 1.47.847 2.541c0 .924-.257 1.76-.77 2.508s-1.283 1.346-2.31 1.793-2.273.671-3.74.671z" fill="#010617" fill-rule="nonzero"/><path d="M64 1v22L0 49z" fill="#2fe9ff"/><path d="M52 0v38c0 11.046-8.954 20-20 20s-20-8.954-20-20V22l12-6.6V38a7 7 0 0014 0V7.7z" fill="#4c47f7"/></g></svg>