<svg xmlns="http://www.w3.org/2000/svg" viewBox="0 0 364.4387 89"><title>Asset 1</title><g id="Layer_2" data-name="Layer 2"><g id="logosvg.com"><path d="M136.2278,19.9h-20.2a2.8043,2.8043,0,0,0-2.8,2.4l-8.2,51.7a1.6906,1.6906,0,0,0,1.4,1.9h9.9a2.8043,2.8043,0,0,0,2.8-2.4l2.2-13.9a2.8043,2.8043,0,0,1,2.8-2.4h6.4c13.3,0,21-6.4,23-19.2.9-5.6,0-10-2.6-13C148.1278,21.7,143.0278,19.9,136.2278,19.9Zm2.4,18.9c-1.1,7.2-6.6,7.2-12,7.2h-3l2.1-13.5a1.6453,1.6453,0,0,1,1.7-1.4h1.4c3.6,0,7.1,0,8.9,2.1C138.7278,34.4,139.0278,36.2,138.6278,38.8Zm57.9-.2h-9.7a1.8053,1.8053,0,0,0-1.7,1.4l-.4,2.7-.7-1c-2.1-3-6.8-4-11.4-4-10.7,0-19.8,8.1-21.6,19.4-.9,5.7.4,11.1,3.6,14.8,2.9,3.5,7.2,4.9,12.2,4.9a18.6349,18.6349,0,0,0,13.4-5.5l-.4,2.7a1.6906,1.6906,0,0,0,1.4,1.9h9a2.8043,2.8043,0,0,0,2.8-2.4l5.2-33.1a1.6906,1.6906,0,0,0-1.4-1.9A.3674.3674,0,0,1,196.5278,38.6Zm-13.4,18.7a10.73,10.73,0,0,1-10.9,9.2,8.2849,8.2849,0,0,1-6.5-2.6,8.1673,8.1673,0,0,1-1.5-6.8,10.7884,10.7884,0,0,1,10.8-9.3,8.0665,8.0665,0,0,1,6.4,2.6A8.64,8.64,0,0,1,183.1278,57.3Zm64.9-18.7h-9.7a2.9354,2.9354,0,0,0-2.3,1.2l-13.4,19.7-5.7-18.9a2.8822,2.8822,0,0,0-2.7-2h-9.5a1.6855,1.6855,0,0,0-1.7,1.7.7488.7488,0,0,0,.1.5l10.7,31.4-10,14.2a1.613,1.613,0,0,0,.4,2.3,1.6894,1.6894,0,0,0,1,.3h9.7a2.6761,2.6761,0,0,0,2.3-1.2l32.3-46.6a1.703,1.703,0,0,0-.4-2.3,3.0351,3.0351,0,0,0-1.1-.3Z" style="fill:#253b80"/><path d="M280.1278,19.9h-20.2a2.8043,2.8043,0,0,0-2.8,2.4l-8.2,51.7a1.6906,1.6906,0,0,0,1.4,1.9h10.6a1.8627,1.8627,0,0,0,1.9-1.7l2.3-14.7a2.8043,2.8043,0,0,1,2.8-2.4h6.4c13.3,0,21-6.4,23-19.2.9-5.6,0-10-2.6-13C291.9278,21.7,286.8278,19.9,280.1278,19.9Zm2.3,18.9c-1.1,7.2-6.6,7.2-12,7.2h-3l2.1-13.5a1.6453,1.6453,0,0,1,1.7-1.4h1.4c3.6,0,7.1,0,8.9,2.1C282.5278,34.4,282.8278,36.2,282.4278,38.8Zm58-.2h-9.7a1.8053,1.8053,0,0,0-1.7,1.4l-.4,2.7-.7-1c-2.1-3-6.7-4-11.4-4-10.7,0-19.8,8.1-21.6,19.4-.9,5.7.4,11.1,3.6,14.8,2.9,3.5,7.2,4.9,12.2,4.9a18.6352,18.6352,0,0,0,13.4-5.5l-.4,2.7a1.6906,1.6906,0,0,0,1.4,1.9h9a2.8043,2.8043,0,0,0,2.8-2.4l5.2-33.1a1.6906,1.6906,0,0,0-1.4-1.9A.774.774,0,0,1,340.4278,38.6Zm-13.5,18.7a10.73,10.73,0,0,1-10.9,9.2,8.2849,8.2849,0,0,1-6.5-2.6,8.1673,8.1673,0,0,1-1.5-6.8,10.7884,10.7884,0,0,1,10.8-9.3,8.0665,8.0665,0,0,1,6.4,2.6A8.64,8.64,0,0,1,326.9278,57.3Zm24.8-36-8.3,52.7a1.6906,1.6906,0,0,0,1.4,1.9h8.6a2.8043,2.8043,0,0,0,2.8-2.4l8.2-51.7a1.6906,1.6906,0,0,0-1.4-1.9h-9.6A1.8053,1.8053,0,0,0,351.7278,21.3Z" style="fill:#179bd7"/><path d="M21.4278,86l1.5-9.8-3.4-.1h-16.4l11.4-72.3a.948.948,0,0,1,.9-.8h27.7c9.2,0,15.5,1.9,18.8,5.7a12.6232,12.6232,0,0,1,3,5.7,20.2835,20.2835,0,0,1,0,7.8v2.2l1.6.9a10.3416,10.3416,0,0,1,3.1,2.4,10.6543,10.6543,0,0,1,2.5,5.7,21.8483,21.8483,0,0,1-.4,8.3,30.6176,30.6176,0,0,1-3.4,9.4,20.2635,20.2635,0,0,1-5.4,5.9,21.5716,21.5716,0,0,1-7.2,3.3,36.227,36.227,0,0,1-9.1,1h-2.2a7.168,7.168,0,0,0-4.2,1.5,6.6846,6.6846,0,0,0-2.2,3.9l-.2.9-2.5,17.3-.1.6a.52.52,0,0,1-.2.4.3674.3674,0,0,1-.3.1Z" style="fill:#253b80"/><path d="M67.9278,22.6c-.1.5-.2,1.1-.3,1.6-3.6,18.7-16.1,25.2-32.1,25.2h-8.1a3.9682,3.9682,0,0,0-3.9,3.3l-4.1,26.4-1.2,7.5a2.12,2.12,0,0,0,1.7,2.4h14.7a3.3615,3.3615,0,0,0,3.4-2.9l.1-.7,2.7-17.2.2-.9a3.4359,3.4359,0,0,1,3.4-2.9h2.2c13.9,0,24.9-5.7,28.1-22,1.3-6.8.6-12.6-2.9-16.6A11.0085,11.0085,0,0,0,67.9278,22.6Z" style="fill:#179bd7"/><path d="M64.1278,21.1c-1.2-.3-2.3-.6-3.5-.8a43.5873,43.5873,0,0,0-7.2-.5h-21.6a3.3615,3.3615,0,0,0-3.4,2.9l-4.7,29.2-.1.9a3.9682,3.9682,0,0,1,3.9-3.3h8.1c15.9,0,28.4-6.5,32.1-25.2.1-.6.2-1.1.3-1.6-1-.5-2-.9-3-1.3A3.1781,3.1781,0,0,0,64.1278,21.1Z" style="fill:#222d65"/><path d="M28.3278,22.7a3.4359,3.4359,0,0,1,3.4-2.9h21.7a53.08,53.08,0,0,1,7.2.5,34.8334,34.8334,0,0,1,4.4,1,20.8141,20.8141,0,0,1,3,1.3c1.1-6.9,0-11.6-3.8-15.9-4.1-4.7-11.6-6.7-21.1-6.7h-27.7a3.9682,3.9682,0,0,0-3.9,3.3l-11.5,73a2.372,2.372,0,0,0,2,2.7h17.4l4.3-27.2C23.7278,51.9,28.3278,22.7,28.3278,22.7Z" style="fill:#253b80"/></g></g></svg>