<?xml version="1.0" encoding="UTF-8"?>
<svg width="256px" height="30px" viewBox="0 0 256 30" version="1.1" xmlns="http://www.w3.org/2000/svg" xmlns:xlink="http://www.w3.org/1999/xlink">
    <!-- Generator: Sketch 53 (72520) - https://sketchapp.com -->
    <title>Subdomains/Rewards/Ads/Default</title>
    <desc>Created with Sketch.</desc>
    <defs>
        <linearGradient x1="0%" y1="50.7055163%" x2="100%" y2="50.7055163%" id="linearGradient-1">
            <stop stop-color="#FF5500" offset="0%"></stop>
            <stop stop-color="#FF5500" offset="40.9877232%"></stop>
            <stop stop-color="#FF2000" offset="58.1981215%"></stop>
            <stop stop-color="#FF2000" offset="100%"></stop>
        </linearGradient>
        <linearGradient x1="2.1484375%" y1="50.7055163%" x2="100%" y2="50.7055163%" id="linearGradient-2">
            <stop stop-color="#FF452A" offset="0%"></stop>
            <stop stop-color="#FF2000" offset="100%"></stop>
        </linearGradient>
        <path d="M19.9537627,2.96905532 L17.3400127,1.27659574e-05 L12.7500127,1.27659574e-05 L8.16001275,1.27659574e-05 L5.54626275,2.96905532 C5.54626275,2.96905532 3.25126275,2.33075745 2.16751275,3.41586383 C2.16751275,3.41586383 5.22751275,3.13928936 6.27938775,4.85203404 C6.27938775,4.85203404 9.11626275,5.39458723 9.49876275,5.39458723 C9.88126275,5.39458723 10.7100127,5.0754383 11.4750127,4.82011915 C12.2400127,4.5648 12.7500127,4.56294894 12.7500127,4.56294894 C12.7500127,4.56294894 13.2600127,4.5648 14.0250127,4.82011915 C14.7900127,5.0754383 15.6187627,5.39458723 16.0012627,5.39458723 C16.3837627,5.39458723 19.2206377,4.85203404 19.2206377,4.85203404 C20.2725127,3.13928936 23.3325127,3.41586383 23.3325127,3.41586383 C22.2487627,2.33075745 19.9537627,2.96905532 19.9537627,2.96905532" id="path-3"></path>
    </defs>
    <g id="designs" stroke="none" stroke-width="1" fill="none" fill-rule="evenodd">
        <g id="responsive---navigation-bar" transform="translate(-32.000000, -263.000000)">
            <g id="breakpoints-840+" transform="translate(0.000000, 113.000000)">
                <g id="navigation-bar" transform="translate(4.000000, 126.000000)">
                    <g id="Subdomains/Rewards/Ads/Default" transform="translate(26.000000, 24.000000)">
                        <path d="M213,2.47272727 C213,2.21164721 213.223858,2 213.5,2 C213.776142,2 214,2.21164721 214,2.47272727 L214,27.5272727 C214,27.7883528 213.776142,28 213.5,28 C213.223858,28 213,27.7883528 213,27.5272727 L213,2.47272727 Z" id="Line" fill="#C8C8D5"></path>
                        <g id="Build-Icons/Stable" stroke-width="1">
                            <g id="Logo" transform="translate(2.357143, 0.000000)">
                                <path d="M24.6075128,7.18182128 L25.3087628,5.45841702 C25.3087628,5.45841702 24.4162628,4.50097021 23.3325128,3.41586383 C22.2487628,2.33075745 19.9537628,2.96905532 19.9537628,2.96905532 L17.3400128,1.27659574e-05 L12.7500128,1.27659574e-05 L8.16001275,1.27659574e-05 L5.54626275,2.96905532 C5.54626275,2.96905532 3.25126275,2.33075745 2.16751275,3.41586383 C1.08376275,4.50097021 0.19126275,5.45841702 0.19126275,5.45841702 L0.89251275,7.18182128 L1.275e-05,9.73501277 C1.275e-05,9.73501277 2.624919,19.6895872 2.93251275,20.9052255 C3.53813775,23.2988426 3.95251275,24.2243745 5.67376275,25.4371404 C7.39501275,26.6499064 10.5187628,28.7562894 11.0287628,29.0754383 C11.5387628,29.3945872 12.1762628,29.9382255 12.7500128,29.9382255 C13.3237628,29.9382255 13.9612628,29.3945872 14.4712628,29.0754383 C14.9812628,28.7562894 18.1050128,26.6499064 19.8262628,25.4371404 C21.5475128,24.2243745 21.9618878,23.2988426 22.5675128,20.9052255 C22.8750428,19.6895872 25.5000128,9.73501277 25.5000128,9.73501277 L24.6075128,7.18182128 Z" id="Head" fill="url(#linearGradient-1)"></path>
                                <path d="M19.2206378,4.85203404 C19.2206378,4.85203404 22.5825578,8.92118298 22.5825578,9.79086383 C22.5825578,10.6605447 22.1596403,10.8900766 21.7344278,11.342183 C21.3092153,11.7942894 19.452114,13.7688 19.2136253,14.0223319 C18.9751365,14.2759277 18.4786515,14.6603745 18.7706903,15.3523532 C19.062729,16.0443319 19.4935515,16.9248638 19.0144703,17.8179702 C18.5353253,18.7110766 17.714544,19.307183 17.1886065,19.2086298 C16.662669,19.1100128 15.4275128,18.4637362 14.973294,18.1685234 C14.5190753,17.8733106 13.0794728,16.6845447 13.0794728,16.2296936 C13.0794728,15.7749064 14.567589,14.9582681 14.842479,14.7727149 C15.1174965,14.5872255 16.371459,13.8690766 16.3971503,13.5872043 C16.4227778,13.3052681 16.413024,13.2226085 16.0429553,12.5260979 C15.6728865,11.8295234 15.006444,10.900034 15.117369,10.2815872 C15.228294,9.66320426 16.303119,9.34162979 17.070159,9.05158723 C17.8370715,8.76160851 19.3138403,8.21388511 19.498269,8.12873617 C19.6828253,8.0435234 19.6351403,7.96239574 19.076244,7.90935319 C18.5174753,7.85631064 16.9316303,7.64554468 16.216674,7.8450766 C15.5017178,8.04460851 14.2802678,8.34818298 14.1813278,8.5091617 C14.0823878,8.67014043 13.995114,8.67556596 14.0967315,9.23088511 C14.1982853,9.78620426 14.7214178,12.4508426 14.7721628,12.9241404 C14.8229715,13.3974383 14.922294,13.7103319 14.4126128,13.8270128 C13.9028678,13.9436936 13.0448565,14.1462894 12.7500128,14.1462894 C12.455169,14.1462894 11.597094,13.9436936 11.0874128,13.8270128 C10.5776678,13.7103319 10.6769903,13.3974383 10.727799,12.9241404 C10.7786078,12.4508426 11.3016765,9.78620426 11.403294,9.23088511 C11.5048478,8.67556596 11.417574,8.67014043 11.3186978,8.5091617 C11.2197578,8.34818298 9.998244,8.04460851 9.28328775,7.8450766 C8.5683315,7.64554468 6.98255025,7.85631064 6.42371775,7.90935319 C5.86488525,7.96239574 5.81720025,8.0435234 6.00169275,8.12873617 C6.18618525,8.21388511 7.662954,8.76160851 8.4298665,9.05158723 C9.19684275,9.34162979 10.2717315,9.66320426 10.3826565,10.2815872 C10.4935815,10.900034 9.82707525,11.8295234 9.45707025,12.5260979 C9.0870015,13.2226085 9.077184,13.3052681 9.10287525,13.5872043 C9.12850275,13.8690766 10.382529,14.5872255 10.6574828,14.7727149 C10.9324365,14.9582681 12.420489,15.7749064 12.420489,16.2296936 C12.420489,16.6845447 10.9809503,17.8733106 10.5267315,18.1685234 C10.0725128,18.4637362 8.8373565,19.1100128 8.311419,19.2086298 C7.7854815,19.307183 6.96470025,18.7110766 6.48555525,17.8179702 C6.006474,16.9248638 6.4372965,16.0443319 6.7292715,15.3523532 C7.02131025,14.6603745 6.524889,14.2759277 6.2863365,14.0223319 C6.0479115,13.7688 4.1907465,11.7942894 3.765534,11.342183 C3.3403215,10.8900766 2.91746775,10.6605447 2.91746775,9.79086383 C2.91746775,8.92118298 6.27938775,4.85203404 6.27938775,4.85203404 C6.27938775,4.85203404 9.11626275,5.39458723 9.49876275,5.39458723 C9.88126275,5.39458723 10.7100128,5.0754383 11.4750128,4.82011915 C12.2400128,4.5648 12.7500128,4.56294894 12.7500128,4.56294894 C12.7500128,4.56294894 13.2600128,4.5648 14.0250128,4.82011915 C14.7900128,5.0754383 15.6187628,5.39458723 16.0012628,5.39458723 C16.3837628,5.39458723 19.2206378,4.85203404 19.2206378,4.85203404 Z M16.7003325,20.4173362 C16.9084125,20.5478043 16.7814863,20.7937404 16.5919575,20.9279106 C16.402365,21.0620809 13.8548513,23.0372298 13.6076288,23.2555277 C13.3603425,23.4738894 12.9970313,23.8344638 12.75,23.8344638 C12.5029688,23.8344638 12.1395938,23.4738894 11.8923713,23.2555277 C11.645085,23.0372298 9.097635,21.0620809 8.9080425,20.9279106 C8.71845,20.7937404 8.5915875,20.5478043 8.7996675,20.4173362 C9.00781125,20.2869319 9.65889,19.9577617 10.5573188,19.4922511 C11.45562,19.0268043 12.5752613,18.6310596 12.75,18.6310596 C12.9247388,18.6310596 14.0443163,19.0268043 14.942745,19.4922511 C15.84111,19.9577617 16.4921888,20.2869319 16.7003325,20.4173362 Z" id="Face" fill="#FFFFFF"></path>
                                <mask id="mask-4" fill="white">
                                    <use xlink:href="#path-3"></use>
                                </mask>
                                <use id="Top-Head" fill="url(#linearGradient-2)" xlink:href="#path-3"></use>
                            </g>
                        </g>
                        <path d="M47.5706697,17.4072096 C47.5706697,16.1255007 46.6232692,15.3564753 45.1250544,15.3564753 L42.0845598,15.3564753 L42.0845598,19.3724967 L45.1911521,19.3724967 C46.6893669,19.3724967 47.5706697,18.6675567 47.5706697,17.4072096 Z M47.196116,11.1909212 C47.196116,9.99465955 46.3588783,9.31108144 44.9047287,9.31108144 L42.0845598,9.31108144 L42.0845598,13.0493992 L44.9047287,13.0493992 C46.3588783,13.0493992 47.196116,12.4085447 47.196116,11.1909212 Z M50.6992946,17.7703605 C50.6992946,20.141522 48.8265262,21.8077437 45.6318035,21.8077437 L39,21.8077437 L39,6.89719626 L45.3453801,6.89719626 C48.5621353,6.89719626 50.3467735,8.52069426 50.3467735,10.7423231 C50.3467735,12.5580774 49.2231124,13.6902537 47.7248977,14.1602136 C49.4654707,14.459279 50.6992946,16.0186916 50.6992946,17.7703605 Z M55.9510581,15.9118825 L55.9510581,21.8077437 L52.8664983,21.8077437 L52.8664983,9.97329773 L55.9510581,9.97329773 L55.9510581,11.8104139 C56.722198,10.5927904 58.0000871,9.8024032 59.696595,9.8024032 L59.696595,12.9425901 L58.8813899,12.9425901 C57.0526866,12.9425901 55.9510581,13.6261682 55.9510581,15.9118825 Z M60.6740399,15.8477971 C60.6740399,12.1522029 63.1416877,9.78104139 66.2482801,9.78104139 C68.2091788,9.78104139 69.5531656,10.6782377 70.2802404,11.6608812 L70.2802404,9.97329773 L73.3868327,9.97329773 L73.3868327,21.8077437 L70.2802404,21.8077437 L70.2802404,20.0774366 C69.5531656,21.1028037 68.1651136,22 66.2262475,22 C63.1416877,22 60.6740399,19.5433912 60.6740399,15.8477971 Z M70.2802404,15.8905207 C70.2802404,13.64753 68.7379605,12.4085447 67.0414526,12.4085447 C65.3890098,12.4085447 63.8246974,13.6048064 63.8246974,15.8477971 C63.8246974,18.0907877 65.3890098,19.3724967 67.0414526,19.3724967 C68.7379605,19.3724967 70.2802404,18.1335113 70.2802404,15.8905207 Z M74.804929,9.97329773 L78.1098145,9.97329773 L81.1943743,19.0520694 L84.2789341,9.97329773 L87.561787,9.97329773 L83.0451102,21.8077437 L79.2995733,21.8077437 L74.804929,9.97329773 Z M94.2456675,12.2376502 C92.7694853,12.2376502 91.6017591,13.1562083 91.3594009,14.7797063 L97.1539667,14.7797063 C97.1099016,13.2202937 95.8320125,12.2376502 94.2456675,12.2376502 Z M100.040233,18.0907877 C99.3792563,20.2696929 97.3522599,22 94.3337978,22 C90.786554,22 88.2087434,19.6074766 88.2087434,15.8905207 C88.2087434,12.1522029 90.7204563,9.78104139 94.3337978,9.78104139 C97.859009,9.78104139 100.348689,12.1094793 100.348689,15.6341789 C100.348689,16.0186916 100.326657,16.4032043 100.260559,16.787717 L91.3373683,16.787717 C91.4915963,18.5393858 92.7254202,19.5220294 94.2677001,19.5220294 C95.5896543,19.5220294 96.3167291,18.8811749 96.7133153,18.0907877 L100.040233,18.0907877 Z M115.390926,11.5327103 C115.390926,10.2082777 114.619786,9.37516689 112.901245,9.37516689 L110.323435,9.37516689 L110.323435,13.7543391 L112.901245,13.7543391 C114.619786,13.7543391 115.390926,12.8785047 115.390926,11.5327103 Z M107.238875,6.89719626 L113.011408,6.89719626 C116.71288,6.89719626 118.563616,8.96929239 118.563616,11.4686248 C118.563616,13.2843792 117.528085,15.1214953 115.060437,15.7623498 L118.739876,21.8077437 L115.1706,21.8077437 L111.777584,15.9973298 L110.323435,15.9973298 L110.323435,21.8077437 L107.238875,21.8077437 L107.238875,6.89719626 Z M126.30506,12.2376502 C124.828877,12.2376502 123.661151,13.1562083 123.418793,14.7797063 L129.213359,14.7797063 C129.169294,13.2202937 127.891405,12.2376502 126.30506,12.2376502 Z M132.099626,18.0907877 C131.438648,20.2696929 129.411652,22 126.39319,22 C122.845946,22 120.268135,19.6074766 120.268135,15.8905207 C120.268135,12.1522029 122.779848,9.78104139 126.39319,9.78104139 C129.918401,9.78104139 132.408082,12.1094793 132.408082,15.6341789 C132.408082,16.0186916 132.386049,16.4032043 132.319951,16.787717 L123.39676,16.787717 C123.550988,18.5393858 124.784812,19.5220294 126.327092,19.5220294 C127.649046,19.5220294 128.376121,18.8811749 128.772707,18.0907877 L132.099626,18.0907877 Z M136.580249,21.8077437 L132.98894,9.97329773 L136.117565,9.97329773 L138.276757,18.987984 L140.612209,9.97329773 L143.87303,9.97329773 L146.164417,18.9666222 L148.323609,9.97329773 L151.275973,9.97329773 L147.706697,21.8077437 L144.379779,21.8077437 L142.154489,13.540721 L139.9292,21.8077437 L136.580249,21.8077437 Z M151.856832,15.8477971 C151.856832,12.1522029 154.32448,9.78104139 157.431072,9.78104139 C159.391971,9.78104139 160.735958,10.6782377 161.463032,11.6608812 L161.463032,9.97329773 L164.569625,9.97329773 L164.569625,21.8077437 L161.463032,21.8077437 L161.463032,20.0774366 C160.735958,21.1028037 159.347906,22 157.409039,22 C154.32448,22 151.856832,19.5433912 151.856832,15.8477971 Z M161.463032,15.8905207 C161.463032,13.64753 159.920752,12.4085447 158.224245,12.4085447 C156.571802,12.4085447 155.007489,13.6048064 155.007489,15.8477971 C155.007489,18.0907877 156.571802,19.3724967 158.224245,19.3724967 C159.920752,19.3724967 161.463032,18.1335113 161.463032,15.8905207 Z M170.372202,15.9118825 L170.372202,21.8077437 L167.287643,21.8077437 L167.287643,9.97329773 L170.372202,9.97329773 L170.372202,11.8104139 C171.143342,10.5927904 172.421231,9.8024032 174.117739,9.8024032 L174.117739,12.9425901 L173.302534,12.9425901 C171.473831,12.9425901 170.372202,13.6261682 170.372202,15.9118825 Z M175.095184,15.8477971 C175.095184,12.1522029 177.562832,9.78104139 180.691457,9.78104139 C182.299835,9.78104139 183.842114,10.5073431 184.679352,11.6181575 L184.679352,6 L187.807977,6 L187.807977,21.8077437 L184.679352,21.8077437 L184.679352,20.0560748 C183.952277,21.1455274 182.586258,22 180.669424,22 C177.562832,22 175.095184,19.5433912 175.095184,15.8477971 Z M184.701385,15.8905207 C184.701385,13.64753 183.159105,12.4085447 181.462597,12.4085447 C179.810154,12.4085447 178.245842,13.6048064 178.245842,15.8477971 C178.245842,18.0907877 179.810154,19.3724967 181.462597,19.3724967 C183.159105,19.3724967 184.701385,18.1335113 184.701385,15.8905207 Z M200,18.4325768 C200,20.4619493 198.171297,22 195.1969,22 C192.134373,22 189.997213,20.2696929 189.865018,18.0694259 L192.97161,18.0694259 C193.081773,18.9666222 193.941043,19.6502003 195.174867,19.6502003 C196.386659,19.6502003 197.047636,19.1161549 197.047636,18.4325768 C197.047636,16.317757 190.151441,17.6635514 190.151441,13.3271028 C190.151441,11.3618158 191.958112,9.78104139 194.976574,9.78104139 C197.928938,9.78104139 199.713577,11.3404539 199.889837,13.6902537 L196.937473,13.6902537 C196.849343,12.7716956 196.100235,12.1522029 194.888444,12.1522029 C193.74275,12.1522029 193.147871,12.6008011 193.147871,13.2843792 C193.147871,15.4419226 199.91187,14.0961282 200,18.4325768 Z" id="RR-Copy" fill="#373843"></path>
                        <path d="M234.449664,20.8317757 L233.416107,17.9345794 L227.805369,17.9345794 L226.771812,20.8317757 L225,20.8317757 L229.651007,7.87850467 L231.588926,7.87850467 L236.221477,20.8317757 L234.449664,20.8317757 Z M232.936242,16.5514019 L230.610738,9.97196262 L228.285235,16.5514019 L232.936242,16.5514019 Z M237.624161,15.6728972 C237.624161,12.4766355 239.709732,10.4205607 242.441275,10.4205607 C244.028523,10.4205607 245.486577,11.2429907 246.187919,12.4205607 L246.187919,7 L247.885906,7 L247.885906,20.8317757 L246.187919,20.8317757 L246.187919,18.9065421 C245.578859,20.046729 244.268456,21 242.422819,21 C239.709732,21 237.624161,18.8504673 237.624161,15.6728972 Z M246.187919,15.6915888 C246.187919,13.317757 244.600671,11.8971963 242.755034,11.8971963 C240.909396,11.8971963 239.340604,13.2616822 239.340604,15.6728972 C239.340604,18.0841121 240.909396,19.5046729 242.755034,19.5046729 C244.600671,19.5046729 246.187919,18.1028037 246.187919,15.6915888 Z M258,18.046729 C258,19.728972 256.541946,21 254.308725,21 C251.946309,21 250.285235,19.6915888 250.174497,17.8224299 L251.909396,17.8224299 C252.001678,18.8130841 252.869128,19.5607477 254.290268,19.5607477 C255.619128,19.5607477 256.357383,18.8878505 256.357383,18.046729 C256.357383,15.7663551 250.377517,17.0934579 250.377517,13.2803738 C250.377517,11.7102804 251.83557,10.4205607 254.087248,10.4205607 C256.32047,10.4205607 257.79698,11.635514 257.907718,13.635514 L256.228188,13.635514 C256.154362,12.6074766 255.379195,11.8598131 254.031879,11.8598131 C252.795302,11.8598131 252.057047,12.4579439 252.057047,13.2803738 C252.057047,15.7102804 257.926174,14.3831776 258,18.046729 Z" id="Ads" fill="#373843"></path>
                    </g>
                </g>
            </g>
        </g>
    </g>
</svg>