<svg xmlns="http://www.w3.org/2000/svg" xmlns:xlink="http://www.w3.org/1999/xlink" viewBox="0 0 674.3131 131.9"><defs><linearGradient id="linear-gradient" x1="-118.2728" y1="1924.4837" x2="-117.2721" y2="1924.4837" gradientTransform="matrix(112.3123, 0, 0, -131.86, 13283.4953, 253828.3754)" gradientUnits="userSpaceOnUse"><stop offset="0" stop-color="#f50"/><stop offset="0.4099" stop-color="#f50"/><stop offset="0.582" stop-color="#ff2000"/><stop offset="1" stop-color="#ff2000"/></linearGradient><linearGradient id="linear-gradient-2" x1="-118.0727" y1="1864.2468" x2="-117.0941" y2="1864.2468" gradientTransform="matrix(93.2192, 0, 0, -23.7599, 11018.1868, 44306.2168)" gradientUnits="userSpaceOnUse"><stop offset="0" stop-color="#ff452a"/><stop offset="1" stop-color="#ff2000"/></linearGradient></defs><g id="Layer_2" data-name="Layer 2"><g id="Layer_1-2" data-name="Layer 1"><g id="Group-4"><path id="Shape" d="M142.8182,71.5V26.2h4.3a6.4664,6.4664,0,0,1,6.5,6.4V52.8c7-6.2,12.9-8.7,20.8-8.8,15.1-.3,28.2,10.9,29.5,26,1.5,18-11.6,31.5-28.7,31.5C156.4182,101.4,142.8182,89.8,142.8182,71.5Zm10.6,3.6c1.1,9.4,10,17.1,19.5,17.3,12.3.2,20.7-7.8,20.7-19.7s-8.3-19.7-20.2-19.7C160.6182,53,151.9182,62.2,153.4182,75.1Z" style="fill:#434351"/><path id="Shape-2" data-name="Shape" d="M221.7182,45v8.1c6.8-7.5,10.8-9.5,18.7-9.5a40.2,40.2,0,0,1,6.9.6V54.9a26.4188,26.4188,0,0,0-7.4-1,19.6371,19.6371,0,0,0-14.1,5.4c-3.1,3.1-4,5.5-4,10.4V99.6h-11.2V45Z" style="fill:#434351"/><path id="Shape-3" data-name="Shape" d="M249.9182,63.1c.6-5.3,1.6-8.2,3.9-10.9,4.6-5.6,12.8-8.5,24.5-8.5,9.3,0,16,1.4,20.7,4.5,3.9,2.5,5.5,6.3,5.5,12.9V85.3c0,5.3,1.4,7.2,5.2,7.1a21.0522,21.0522,0,0,0,2.5-.2v7.3a19.4765,19.4765,0,0,1-5.8.9c-7,0-10.2-2.1-12.4-8.2-6.9,6.3-14,9-24.2,9-13.6,0-22-6.2-22-16.3a14.3008,14.3008,0,0,1,8.6-13.3c4.1-1.8,6.6-2.3,18.4-3.5,10.1-1,11.8-1.2,14.7-2.1,3.1-1,4.5-2.7,4.5-5.4,0-5.9-4.9-8.5-15.2-8.5-9.7,0-14.8,1.9-16.8,6.9a6.6145,6.6145,0,0,1-6.1,4.2Zm44.1,9.3a106.3955,106.3955,0,0,1-21.7,4c-10,1-13.1,2.9-13.1,7.8,0,5.5,4.6,8.4,13.6,8.4,7.4,0,13.1-1.9,17.1-5.5,3.2-3,4-5.1,4-10.3l.1-4.4Z" style="fill:#434351"/><path id="Shape-4" data-name="Shape" d="M339.1182,99.5h-2.9a6.5094,6.5094,0,0,1-5.9-3.7l-24-50.8h6.7a9.7461,9.7461,0,0,1,9,5.8l16,36.5,16.6-36.6a9.819,9.819,0,0,1,9-5.7h6.1l-24.6,50.9A6.4954,6.4954,0,0,1,339.1182,99.5Z" style="fill:#434351"/><path id="Shape-5" data-name="Shape" d="M377.2182,75.5c1.1,10.5,9.4,17,21.6,17,7,0,12.2-2.1,15.4-6.2a9.9058,9.9058,0,0,1,7.8-3.7h6.5c-5.7,12.3-15.7,18.4-30.7,18.4-18.7,0-31.4-11.4-31.4-28.4s12.9-29,31.6-29c13.5,0,24.4,6.1,28.8,16.3,1.9,4.7,2.7,8.8,2.7,15.6Zm41-8.5c-2.5-9.6-10-15-20.3-15s-17.8,5.4-20.4,15Z" style="fill:#434351"/></g><g id="build-icons_Stable" data-name="build-icons/Stable"><g id="Logo"><path id="Head" d="M108.4,31.6l3.1-7.6s-3.9-4.2-8.7-9-14.9-2-14.9-2L76.4,0H35.9L24.4,13.1s-10.1-2.8-14.9,2-8.7,9-8.7,9l3.1,7.6L0,42.9S11.6,86.7,12.9,92.1c2.7,10.5,4.5,14.6,12.1,20s21.3,14.6,23.6,16c2.2,1.4,5.1,3.8,7.6,3.8s5.3-2.4,7.6-3.8c2.2-1.4,16-10.7,23.6-16s9.4-9.4,12.1-20c1.4-5.4,12.9-49.2,12.9-49.2Z" style="fill:url(#linear-gradient)"/><path id="Face" d="M84.7,21.4S99.5,39.3,99.5,43.2,97.6,48,95.7,50,85.6,60.7,84.6,61.8c-1.1,1.1-3.2,2.8-2,5.9,1.3,3,3.2,6.9,1.1,10.9-2.1,3.9-5.7,6.6-8,6.1-2.3-.4-7.8-3.3-9.8-4.6s-8.3-6.5-8.3-8.5,6.6-5.6,7.8-6.4,6.7-4,6.8-5.2.1-1.6-1.6-4.7c-1.6-3.1-4.6-7.2-4.1-9.9s5.2-4.1,8.6-5.4,9.9-3.7,10.7-4.1.6-.7-1.9-1c-2.5-.2-9.4-1.2-12.6-.3s-8.5,2.2-9,2.9c-.4.7-.8.7-.4,3.2.4,2.4,2.8,14.2,3,16.3s.7,3.5-1.6,4A56.7805,56.7805,0,0,1,56,62.4,56.7805,56.7805,0,0,1,48.7,61c-2.2-.5-1.8-1.9-1.6-4s2.5-13.8,3-16.3c.4-2.4.1-2.5-.4-3.2-.4-.7-5.8-2-9-2.9s-10.1,0-12.6.3c-2.5.2-2.7.6-1.9,1s7.3,2.8,10.7,4.1,8.1,2.7,8.6,5.4-2.4,6.8-4.1,9.9c-1.6,3.1-1.7,3.4-1.6,4.7.1,1.2,5.6,4.4,6.8,5.2s7.8,4.4,7.8,6.4-6.3,7.2-8.3,8.5-7.4,4.1-9.8,4.6c-2.3.4-5.9-2.2-8-6.1s-.2-7.8,1.1-10.9c1.3-3-.9-4.7-2-5.9-.8-1.2-8.9-9.9-10.8-11.8-1.9-2-3.7-3-3.7-6.8S27.7,21.4,27.7,21.4s12.5,2.4,14.2,2.4,5.3-1.4,8.7-2.5a20.1593,20.1593,0,0,1,5.6-1.1,20.1593,20.1593,0,0,1,5.6,1.1c3.4,1.1,7,2.5,8.7,2.5S84.7,21.4,84.7,21.4ZM73.6,89.9c.9.6.4,1.7-.5,2.2-.8.6-12.1,9.3-13.1,10.3-1.1,1-2.7,2.5-3.8,2.5s-2.7-1.6-3.8-2.5c-1.1-1-12.3-9.7-13.1-10.3s-1.4-1.7-.5-2.2c.9-.6,3.8-2,7.7-4.1,4-2.1,8.9-3.8,9.7-3.8s5.7,1.7,9.7,3.8C69.8,87.9,72.6,89.4,73.6,89.9Z" style="fill:#fff"/><g id="Top-Head"><path id="path-3" d="M87.9,13.1,76.4,0H35.9L24.4,13.1s-10.1-2.8-14.9,2c0,0,13.5-1.2,18.1,6.3,0,0,12.5,2.4,14.2,2.4s5.3-1.4,8.7-2.5a20.1593,20.1593,0,0,1,5.6-1.1,20.1593,20.1593,0,0,1,5.6,1.1c3.4,1.1,7,2.5,8.7,2.5s14.2-2.4,14.2-2.4c4.6-7.5,18.1-6.3,18.1-6.3-4.7-4.8-14.8-2-14.8-2" style="fill:url(#linear-gradient-2)"/></g></g></g><path id="Line" d="M486.7584,13.7378a2.0872,2.0872,0,0,1,4.1679,0V118.1622a2.0872,2.0872,0,0,1-4.1679,0Z" style="fill:#c8c8d5;fill-rule:evenodd"/><path id="Ads" d="M576.158,94.424,571.85,82.3489H548.4654L544.1577,94.424H536.773l19.3848-53.9877h8.077l19.308,53.9877Zm-6.3077-17.84-9.6925-27.4223-9.6924,27.4223Zm19.5387-3.6615c0-13.3216,8.6924-21.8911,20.0771-21.8911,6.6155,0,12.6925,3.4278,15.6156,8.3358V36.7748h7.077V94.424h-7.077V86.4c-2.5385,4.7521-8,8.7253-15.6925,8.7253C598.0814,95.1252,589.389,86.1662,589.389,72.9224ZM625.0817,73c0-9.8938-6.6154-15.8145-14.3078-15.8145s-14.231,5.687-14.231,15.7366,6.5385,15.97,14.231,15.97S625.0817,83.05,625.0817,73Zm49.2314,9.816c0,7.0114-6.0771,12.3089-15.3848,12.3089-9.8463,0-16.7695-5.4533-17.231-13.2438h7.2308c.3847,4.129,4,7.2451,9.9232,7.2451,5.5386,0,8.6156-2.8045,8.6156-6.31,0-9.5043-24.9234-3.9731-24.9234-19.8656,0-6.544,6.077-11.9194,15.4617-11.9194,9.3078,0,15.4616,5.0638,15.9232,13.4h-7c-.3077-4.2848-3.5384-7.4009-9.1539-7.4009-5.1539,0-8.2308,2.4929-8.2308,5.9207C649.5436,73.0783,674.0054,67.547,674.3131,82.8163Z" style="fill:#373843;fill-rule:evenodd"/></g></g></svg>