<svg xmlns="http://www.w3.org/2000/svg" viewBox="0 0 205.38 175.8"><defs><style>.cls-1{fill:#6aae22;}</style></defs><title>Asset 2</title><g id="Layer_2" data-name="Layer 2"><g id="company_background" data-name="company background"><path class="cls-1" d="M204,64.94c-3.23-12.2-28.34-40.18-46.64-62.79C157,1.79,156,0,153.8,0c-1.8,0-3.23,1.79-2.52,3.23s18.3,38,15.07,49.87c-3.23,12.2-19.37,9.69-21.88,9.69-1.44,0-.36,1.07,1.07,2.51,9,7.89,14.71,19,14.71,33.36v10.77c0,.35,0,.35.36.35C181.06,108,212.28,95.43,204,64.94"/><path class="cls-1" d="M60.17,65.3c1.44-1.44,2.51-2.51,1.08-2.51-2.51,0-18.66,2.51-21.89-9.69S53.71,4.66,54.43,3.23A2.71,2.71,0,0,0,51.56,0C49.77,0,48.33,2.15,48,2.15,30,24.76,4.56,52.74,1.33,64.94-6.92,95.43,25,108,45.1,110.14a.35.35,0,0,0,.36-.36V99c.36-14.71,5.74-25.83,14.71-33.72"/><path class="cls-1" d="M124.39,105.48c0,.36,0,.36-.36.72,0,.36-.35.36-.71.36H81V99c0-10.4,12.56-15.43,22.24-15.43,9.33,0,21.17,5,21.17,15.43ZM103.22,60.27C81.34,60.63,57.3,73.19,57.3,98.66v38.75c0,25.83,24,38,45.92,38.39,15.79,0,33.37-6.46,42-20.45.36-.36,0-1.08-.36-1.44-7.53-4.3-11.84-6.81-19.37-10.76-.36,0-.36,0-.72.36-4,6.82-14.35,10.4-21.53,10.4-9.68,0-22.24-6.1-22.24-16.5V125.93h60.63a5.67,5.67,0,0,0,5.74-5.74V99c0-25.83-22.6-38.39-44.13-38.75"/></g></g></svg>