<svg xmlns="http://www.w3.org/2000/svg" viewBox="0 0 51.22 51.22"><defs><style>.cls-1{opacity:0.4;}.cls-2{fill:none;stroke:#fb542b;stroke-miterlimit:10;stroke-width:2px;}.cls-3{fill:#ff7654;fill-rule:evenodd;}</style></defs><title>Asset 9</title><g id="Layer_2" data-name="Layer 2"><g id="below_the_fold" data-name="below the fold"><g id="challenge_icon" data-name="challenge icon"><g class="cls-1"><circle class="cls-2" cx="25.61" cy="25.61" r="24.61"/></g><path class="cls-3" d="M34.86,28.45a.85.85,0,0,1-1.2,0l-3.77-3.77a5,5,0,0,1-2.41.63,5.14,5.14,0,1,1,3.75-1.68l3.63,3.62A.85.85,0,0,1,34.86,28.45Zm-7.38-11.6a3.39,3.39,0,1,0,3.39,3.38A3.39,3.39,0,0,0,27.48,16.85ZM26.64,27a.85.85,0,0,1,.84.85v6.77a.85.85,0,0,1-.84.85H22.4a.85.85,0,0,1-.85-.85V27.85A.85.85,0,0,1,22.4,27Zm-3.39,6.77,2.6,0V28.72l-2.6,0Zm-3.39,1.7H15.62a.85.85,0,0,1-.85-.85V22.77a.85.85,0,0,1,.85-.84h4.24a.85.85,0,0,1,.84.84V34.62A.85.85,0,0,1,19.86,35.47Zm-.81-11.84H16.47V33.77l2.58,0Zm10.13,6.76h4.23a.85.85,0,0,1,.85.84v3.42a.85.85,0,0,1-.85.84H29.18a.85.85,0,0,1-.85-.84V31.23A.85.85,0,0,1,29.18,30.39ZM30,33.8h2.64V32.11l-2.64,0Z"/></g></g></g></svg>