<svg xmlns="http://www.w3.org/2000/svg" viewBox="0 0 44.26 44.26"><defs><style>.cls-1{fill:none;stroke:#fb542b;stroke-miterlimit:10;stroke-width:2px;opacity:0.4;}.cls-2{fill:#ff7654;fill-rule:evenodd;}</style></defs><title>Asset 7</title><g id="Layer_2" data-name="Layer 2"><g id="below_the_fold" data-name="below the fold"><rect class="cls-1" x="1" y="1" width="42.26" height="42.26" rx="21.13"/><path class="cls-2" d="M33.79,20l-1.24,9.86a2.54,2.54,0,0,1-2.49,2.24H22.39A5.36,5.36,0,0,1,19.32,31l-1.69-1.41v.59a1,1,0,0,1-.95,1H11.93a1,1,0,0,1-.95-1V17.54a1,1,0,0,1,.95-1h4.75a1,1,0,0,1,.95,1h1.19c.36-1.82,1.19-6,1.4-6.68a3,3,0,0,1,2.87-2.07,3.11,3.11,0,0,1,3.1,3.11v5.64H31.6a2.18,2.18,0,0,1,1.65.74A2.27,2.27,0,0,1,33.79,20Zm-18.06-1.5H12.88V29.2h2.85Zm16.1,1.06a.29.29,0,0,0-.23-.09H25.18a1,1,0,0,1-.95-1,1,1,0,0,1,.1-.43v-6a1.3,1.3,0,0,1,0-.21,1.21,1.21,0,0,0-1.2-1.16,1.14,1.14,0,0,0-1.06.71c-.16.53-1,4.73-1.5,7.25a1,1,0,0,1-.93.78h-2v7.58l2.9,2.43a3.57,3.57,0,0,0,1.86.68h7.67a.65.65,0,0,0,.6-.53l1.24-9.86A.28.28,0,0,0,31.83,19.57Z"/></g></g></svg>