<svg xmlns="http://www.w3.org/2000/svg" viewBox="0 0 84.24 105.52"><title>Asset 10</title><g id="Layer_2" data-name="Layer 2"><g id="company_background" data-name="company background"><path d="M52.79,37.89c-8.62-4.28-17-9.11-26.82-10.28-2.48-.3-5-.6-7.46-.69-1.7-.07-2.29-.55-1.9-2.32A100.79,100.79,0,0,1,21.44,8.44a11.3,11.3,0,0,1,8.36-7c13.1-3,25.5-1.28,37,5.81,3.54,2.17,5.09,5.53,5.3,9.52.34,6.66-1,13.31-.17,20A3.23,3.23,0,0,1,71.16,39c2.14-.21,2.37-.61,2.68-4.9,3.7,2.16,7.13,4.38,9.53,7.83,1.67,2.39.91,4.24-2,4.89a22,22,0,0,1-8.29,0c-3.7-.6-3.8-.55-4.85,3-1.44,4.83-3.24,6.19-8.42,6.18a14.28,14.28,0,0,0-4.57.95c-2.05.67-3.91.5-4.7-2A2.32,2.32,0,0,0,48,53.2a1.46,1.46,0,0,1-1.66-1.13c-.25-.92.4-1.33,1-1.74.46-.3.93-.58,1.38-.9s.84-.79.52-1.39-.78-.43-1.23-.27c-2.16.83-3.94-.33-5.79-1.1-2.34-1-4.6-1.37-6.78.42-1.36,1.11-2.76.64-4.13-.1a43.36,43.36,0,0,0-9.1-4c-3.08-.83-4.48,0-5.31,3.08-.22.81-.29,1.8-1.24,2-1.23.26-1.43-1-1.84-1.72-1.65-3-2.32-6,.65-8.8,1.39-1.3,1.12-2.43-.88-2.87a33,33,0,0,0-8.8-.94c-.92,0-2,.18-2.26-1s.7-1.87,1.63-2.24a31.17,31.17,0,0,1,10.92-1.66c10.54-.19,20.43,2.6,30,6.78C47.58,36.65,50,38,52.79,37.89Z"/><path d="M46.38,105.29a4.13,4.13,0,0,1-3.65-.49,23.42,23.42,0,0,1-8.61-8.45c-1.73-3-1.11-4.74,2-6.2,2-.93,4.11-1.66,6-2.71a6.65,6.65,0,0,0,3.49-4c-3.82,2.41-7.28,4.22-11.2,5-3.06.61-4.5-.72-4.12-3.85.33-2.71-.55-3.75-3.41-3.6-2.53.13-4.35-.44-4.93-3.22-.21-1-.22-1.74.93-1.78,7.08-.22,12.49-4.48,18.86-7.67a5.69,5.69,0,0,0-3.64.38c-4.53,2-8.8,4.77-13.94,5.12a20.4,20.4,0,0,1-2.21.07c-3.68-.16-5.85-3.1-5.15-6.75.2-1.07.91-.66,1.44-.77,1.49-.29,3.07-.26,4.94-1.53a25,25,0,0,1-6.54-.55c-2.76-.77-4.92-2.27-5.2-5.36-.18-1.95-1-1.36-1.9-.69-1.53,1.16-1.92,2.82-2,4.67-.09,4-1.77,6-6.28,7.08,3.44-2.51,2.71-6,2.71-9.33a7.78,7.78,0,0,1,1.73-5C2.34,55.54,3,60.21,0,60.58c.38-1.5.7-3.07,1.18-4.58.91-2.88,3.55-4.44,7-4.23,3.11.19,5.89,1.46,8.63,2.78,7.24,3.49,14.5,6.93,22.69,7.62s15.94-1.4,23.65-3.74c.62-.19,1.22-.42,1.83-.64,1.11-.39,1.56-.26,1.65,1.17.38,5.56-.69,10.32-5.48,14-4,3.07-5.3,7.84-6.23,12.63a12.52,12.52,0,0,1-6.35,8.93C42.75,97.83,42.43,99.67,46.38,105.29Z"/></g></g></svg>