<svg xmlns="http://www.w3.org/2000/svg" viewBox="0 0 44.23 44.23"><defs><style>.cls-1{fill:none;stroke:#fb542b;stroke-miterlimit:10;stroke-width:2px;opacity:0.4;}.cls-2{fill:#ff7654;fill-rule:evenodd;}</style></defs><title>Asset 4</title><g id="Layer_2" data-name="Layer 2"><g id="below_the_fold" data-name="below the fold"><rect class="cls-1" x="1" y="1" width="42.23" height="42.23" rx="21.12"/><path class="cls-2" d="M33.85,26.45v.82a1,1,0,0,1-1,1h-6a1,1,0,0,1-1,1h-8a1,1,0,0,1-1-1h-6a1,1,0,0,1-1-1v-.82a4.32,4.32,0,0,1,2.26-3.85,3.1,3.1,0,0,1-1.26-2.5,3,3,0,1,1,6,0,3.1,3.1,0,0,1-1.26,2.5,4.18,4.18,0,0,1,2,2.25,5.26,5.26,0,0,1,2.31-2.24,4.11,4.11,0,0,1-2-3.53,4,4,0,1,1,6,3.53,5.16,5.16,0,0,1,2.31,2.24,4.24,4.24,0,0,1,2-2.25,3.11,3.11,0,0,1-1.27-2.5,3,3,0,1,1,6,0,3.11,3.11,0,0,1-1.27,2.5A4.31,4.31,0,0,1,33.85,26.45Zm-20-7.37a1,1,0,1,0,1,1A1,1,0,0,0,13.81,19.08Zm0,5.12a2.11,2.11,0,0,0-2,2.05h4A2.11,2.11,0,0,0,13.81,24.2Zm8-7.17a2.05,2.05,0,1,0,2,2A2,2,0,0,0,21.82,17Zm0,7.17a3.16,3.16,0,0,0-3,3.07h6A3.17,3.17,0,0,0,21.82,24.2Zm8-5.12a1,1,0,1,0,1,1A1,1,0,0,0,29.84,19.08Zm0,5.12a2.13,2.13,0,0,0-2,2.05h4A2.13,2.13,0,0,0,29.84,24.2Z"/></g></g></svg>