<svg xmlns="http://www.w3.org/2000/svg" xmlns:xlink="http://www.w3.org/1999/xlink" id="Layer_1" x="0" y="0" version="1.1" viewBox="0 0 156 49" xml:space="preserve"><style>.st0{clip-path:url(#SVGID_2_);fill:#fff}</style><defs><path id="SVGID_1_" d="M0 0h156.1v49H0z"/></defs><clipPath id="SVGID_2_"><use overflow="visible" xlink:href="#SVGID_1_"/></clipPath><path d="M155.7 18.1c-.9-3.4-7.9-11.2-13-17.5-.1-.1-.4-.6-1-.6-.5 0-.9.5-.7.9.2.4 5.1 10.6 4.2 13.9-.9 3.4-5.4 2.7-6.1 2.7-.4 0-.1.3.3.7 2.5 2.2 4.1 5.3 4.1 9.3v3c0 .1 0 .1.1.1 5.7-.5 14.4-4 12.1-12.5M133.6 37.8c0 2.9-3.9 4.5-6.4 4.5-2.7 0-6.5-1.6-6.5-4.5V27.6c0-2.9 3.8-4.2 6.5-4.2 2.5 0 6.4 1.4 6.4 4.2v10.2zM127.2 17c-6 .1-13 3.5-13 10.5v10.7c0 7.1 7 10.5 13 10.5 5.9-.1 12.9-3.4 12.9-10.5V27.6c0-7-7-10.5-12.9-10.6M88.4 37.8c0 2.9-3.9 4.5-6.4 4.5-2.7 0-6.5-1.6-6.5-4.5V27.6c0-2.9 3.8-4.2 6.5-4.2 2.5 0 6.4 1.4 6.4 4.2v10.2zM81.9 17c-6 .1-13 3.5-13 10.5v10.7c0 7.1 7 10.5 13 10.5 5.9-.1 12.9-3.4 12.9-10.5V27.6c0-7-7-10.5-12.9-10.6M16.7 18.2c.4-.4.7-.7.3-.7-.7 0-5.2.7-6.1-2.7-.9-3.4 4-13.5 4.2-13.9.1-.4-.2-.9-.8-.9-.5 0-.9.6-1 .6-5 6.3-12.1 14.1-13 17.5-2.3 8.5 6.6 12 12.2 12.6.1 0 .1-.1.1-.1v-3c.1-4.1 1.6-7.2 4.1-9.4M68.5 19.4c-4.8-1.3-8.3-1.8-13.5-1.8-5.1 0-8.7.5-13.5 1.8-.2.1-.3.3-.2.4 1.6 1.4 2.3 3.2 2.6 5.2 2.6-.6 5-1 7.8-1.2v24.7c0 .1.1.1.2.1h6.2c.1 0 .2 0 .2-.1V23.8c2.7.2 4.9.5 7.5 1.2.4-2 1.2-3.9 2.9-5.2 0-.2-.1-.4-.2-.4M114.4 17.3c-.5-.1-1.8-.3-3-.2-5.9.2-12.6 3.7-12.6 10.5v21.1c0 .1.1.1.2.1h6.2c.1 0 .2 0 .2-.1V27.6c0-2.3 2.8-3.6 5.1-4.1.7-2.2 2-3.9 4-5.5.3-.3.2-.7-.1-.7M34.6 29.4c0 .1 0 .1-.1.2 0 .1-.1.1-.2.1H22.5v-2.1c0-2.9 3.5-4.3 6.2-4.3 2.6 0 5.9 1.4 5.9 4.3v1.8zm-5.9-12.6c-6.1.1-12.8 3.6-12.8 10.7v10.8c0 7.2 6.7 10.6 12.8 10.7 4.4 0 9.3-1.8 11.7-5.7.1-.1 0-.3-.1-.4-2.1-1.2-3.3-1.9-5.4-3-.1 0-.1 0-.2.1-1.1 1.9-4 2.9-6 2.9-2.7 0-6.2-1.7-6.2-4.6v-3.2h16.9c.9 0 1.6-.7 1.6-1.6v-5.9c0-7.2-6.3-10.7-12.3-10.8" class="st0"/></svg>