<svg xmlns="http://www.w3.org/2000/svg" viewBox="0 0 44.39 44.39"><defs><style>.cls-1{fill:none;stroke:#fb542b;stroke-miterlimit:10;stroke-width:2px;opacity:0.4;}.cls-2{fill:#ff7654;fill-rule:evenodd;}</style></defs><title>Asset 5</title><g id="Layer_2" data-name="Layer 2"><g id="below_the_fold" data-name="below the fold"><rect class="cls-1" x="1" y="1" width="42.39" height="42.39" rx="21.2"/><path class="cls-2" d="M31.86,24.56c-.11.65-1.6,6.76-1.77,7.45,0,0,0,0,0,.05l-.06.12a.77.77,0,0,1-.1.18l-.09.09a.86.86,0,0,1-.18.14l-.06,0a14,14,0,0,1-5.48,1,13.76,13.76,0,0,1-5.4-1h0a1.7,1.7,0,0,1-.14-.1s-.09-.05-.13-.1a23.34,23.34,0,0,1-2.91-4A24.29,24.29,0,0,0,12,24.09a.93.93,0,0,1-.06-1.3,4.41,4.41,0,0,1,5.72-.37l.49.49V14.12a2.76,2.76,0,1,1,5.51,0v5.67a2.52,2.52,0,0,1,.72,0,2.46,2.46,0,0,1,1.57.95,2.62,2.62,0,0,1,1.65-.07,2.48,2.48,0,0,1,1.35.93,2.63,2.63,0,0,1,1.58.16A2.44,2.44,0,0,1,31.86,24.56Zm-2.12-1.09a1.17,1.17,0,0,0-.86.11.93.93,0,0,1-1.38-.69.59.59,0,0,0-.45-.42,1.07,1.07,0,0,0-.9.24.92.92,0,0,1-1.54-.48.82.82,0,0,0-.59-.6.74.74,0,0,0-.65.2h0a.92.92,0,0,1-.66.29.93.93,0,0,1-.91-.85.09.09,0,0,0,0-.05V14.11a.82.82,0,0,0-.91-.94.84.84,0,0,0-.91.95V25.05a.91.91,0,0,1-.25.79,0,0,0,0,0,0,0,.93.93,0,0,1-.66.28.9.9,0,0,1-.76-.42l-1.9-1.92A2.61,2.61,0,0,0,14,23.55a24.7,24.7,0,0,1,3,3.93A24.82,24.82,0,0,0,19.59,31a12.59,12.59,0,0,0,4.51.8,13,13,0,0,0,4.31-.71c.66-2.69,1.56-6.44,1.64-6.87S29.86,23.53,29.74,23.47Zm-5.07-6.6a.93.93,0,0,1-.46-1.23,3.77,3.77,0,0,0,.32-1.52,3.69,3.69,0,1,0-6.93,1.76.93.93,0,0,1-.37,1.26.88.88,0,0,1-.44.12.92.92,0,0,1-.81-.49,5.53,5.53,0,1,1,9.91-.36A.93.93,0,0,1,24.67,16.87Z"/></g></g></svg>