<svg xmlns="http://www.w3.org/2000/svg" viewBox="0 0 51.22 51.22"><defs><style>.cls-1{opacity:0.4;}.cls-2{fill:none;stroke:#fb542b;stroke-miterlimit:10;stroke-width:2px;}.cls-3{fill:#ff7654;fill-rule:evenodd;}</style></defs><title>Asset 8</title><g id="Layer_2" data-name="Layer 2"><g id="below_the_fold" data-name="below the fold"><g id="solution_icon" data-name="solution icon"><g class="cls-1"><circle class="cls-2" cx="25.61" cy="25.61" r="24.61"/></g><g id="bat-logo2"><path id="Fill_1" data-name="Fill 1" class="cls-3" d="M30.92,29.45l-4.39-7v-3.8L34.4,31.77ZM21.27,31h8.64l2.8,1.87H18Zm3.41-8.54-4.37,7-3.17,1.81,7.54-12.57Zm.93,2,2.94,4.68H22.66Zm11.87,8.84L26.4,14.85a.69.69,0,0,0-.11-.13.89.89,0,0,0-1.37,0,.69.69,0,0,0-.11.13L13.74,33.31a.77.77,0,0,0-.1.23v0a1,1,0,0,0,0,.3.19.19,0,0,1,0,.08,1.06,1.06,0,0,0,.1.3h0l0,.07.09.12.12.09.07.06.14,0,.09,0a.76.76,0,0,0,.21,0H36.69a.92.92,0,0,0,.8-.47A.94.94,0,0,0,37.48,33.31Z"/></g></g></g></g></svg>