<svg xmlns="http://www.w3.org/2000/svg" viewBox="0 0 44.39 44.39"><defs><style>.cls-1{fill:none;stroke:#fb542b;stroke-miterlimit:10;stroke-width:2px;opacity:0.4;}.cls-2{fill:#ff7654;fill-rule:evenodd;}</style></defs><title>Asset 2</title><g id="Layer_2" data-name="Layer 2"><g id="below_the_fold" data-name="below the fold"><rect class="cls-1" x="1" y="1" width="42.39" height="42.39" rx="21.2"/><path class="cls-2" d="M30.79,32.3H28.31c-.46,0-.69-.36-.69-.83V21.22c0-.47.23-1.69.69-1.69h2.48a1,1,0,0,1,1,.83V31.47A1,1,0,0,1,30.79,32.3Zm-.68-11.08h-.83v9.39h.83Zm1.51-8.5v3.41a.83.83,0,1,1-1.66,0V14.78l-5.2,5.35a.81.81,0,0,1-1.1.07l-3.55-2.93L13.2,24.39a.83.83,0,0,1-.59.25.79.79,0,0,1-.58-.25.87.87,0,0,1,0-1.2l7.43-7.66a.82.82,0,0,1,1.11-.07l3.55,2.93,4.68-4.82H27.48a.85.85,0,0,1,0-1.7h3.33a.79.79,0,0,1,.74.52A.88.88,0,0,1,31.62,12.72ZM13.44,26.34h2.48a.84.84,0,0,1,.82.85v4.26a.84.84,0,0,1-.82.85H13.44a.84.84,0,0,1-.83-.85V27.19A.84.84,0,0,1,13.44,26.34Zm.82,4.26h.83V28h-.83Zm4.14-8.51h2.47a.84.84,0,0,1,.83.85v8.51a.84.84,0,0,1-.83.85H18.4a.77.77,0,0,1-.77-.83V22.93A.78.78,0,0,1,18.4,22.09Zm.82,8.51h.83V23.79h-.83Zm4.13-6.81h2.48a.94.94,0,0,1,1,.84v6.84a.93.93,0,0,1-1,.83H23.35a.75.75,0,0,1-.73-.83V24.63A.76.76,0,0,1,23.35,23.79Zm.83,6.81h.94V25.49h-.94Z"/></g></g></svg>