<svg xmlns="http://www.w3.org/2000/svg" xmlns:xlink="http://www.w3.org/1999/xlink" viewBox="0 0 425.6 246.41"><defs><style>.cls-1{opacity:0.08;}.cls-2,.cls-32{fill:none;}.cls-2{stroke:#b3b3b3;stroke-miterlimit:10;stroke-width:0.5px;}.cls-10,.cls-11,.cls-12,.cls-13,.cls-14,.cls-15,.cls-16,.cls-17,.cls-18,.cls-20,.cls-21,.cls-22,.cls-23,.cls-3,.cls-4,.cls-5,.cls-6,.cls-7,.cls-8,.cls-9{opacity:0.24;}.cls-3{fill:url(#linear-gradient);}.cls-4{fill:url(#linear-gradient-2);}.cls-5{fill:url(#linear-gradient-3);}.cls-6{fill:url(#linear-gradient-4);}.cls-7{fill:url(#linear-gradient-5);}.cls-8{fill:url(#linear-gradient-6);}.cls-9{fill:url(#linear-gradient-7);}.cls-10{fill:url(#linear-gradient-8);}.cls-11{fill:url(#linear-gradient-9);}.cls-12{fill:url(#linear-gradient-10);}.cls-13{fill:url(#linear-gradient-11);}.cls-14{fill:url(#linear-gradient-12);}.cls-15{fill:url(#linear-gradient-13);}.cls-16{fill:url(#linear-gradient-14);}.cls-17{fill:url(#linear-gradient-15);}.cls-18{fill:url(#linear-gradient-16);}.cls-19{fill:url(#linear-gradient-17);}.cls-20{fill:url(#linear-gradient-18);}.cls-21{fill:url(#linear-gradient-19);}.cls-22{fill:url(#linear-gradient-20);}.cls-23{fill:url(#linear-gradient-21);}.cls-24{fill:#fb542b;}.cls-25{fill:#ca3bb2;}.cls-26{fill:#ffb8a6;}.cls-27{font-size:14px;fill:#1a1a1a;}.cls-27,.cls-31{font-family:Poppins-Medium, Poppins;font-weight:500;}.cls-28{fill:#f0b9e7;}.cls-29{fill:#ff977d;}.cls-30{fill:#ea3a0d;}.cls-31{font-size:10px;fill:#ff7654;}.cls-32{stroke:#ccc;stroke-linejoin:round;stroke-width:2px;}</style><linearGradient id="linear-gradient" x1="344.54" y1="93.58" x2="344.54" y2="197.97" gradientUnits="userSpaceOnUse"><stop offset="0" stop-color="#7d186c"/><stop offset="0.03" stop-color="#7d186c"/><stop offset="0.17" stop-color="#811a6f" stop-opacity="0.95"/><stop offset="0.36" stop-color="#8b1e79" stop-opacity="0.81"/><stop offset="0.58" stop-color="#9d2689" stop-opacity="0.59"/><stop offset="0.82" stop-color="#b4319e" stop-opacity="0.28"/><stop offset="1" stop-color="#ca3bb2" stop-opacity="0"/></linearGradient><linearGradient id="linear-gradient-2" x1="127.26" y1="163.57" x2="127.26" y2="174.03" xlink:href="#linear-gradient"/><linearGradient id="linear-gradient-3" x1="87.07" y1="163.98" x2="87.07" y2="174.72" xlink:href="#linear-gradient"/><linearGradient id="linear-gradient-4" x1="237.02" y1="93.58" x2="237.02" y2="197.97" gradientUnits="userSpaceOnUse"><stop offset="0" stop-color="#7d186c"/><stop offset="0.03" stop-color="#7d186c"/><stop offset="0.15" stop-color="#811a6f" stop-opacity="0.95"/><stop offset="0.31" stop-color="#8b1e79" stop-opacity="0.81"/><stop offset="0.49" stop-color="#9d2689" stop-opacity="0.59"/><stop offset="0.69" stop-color="#b4319e" stop-opacity="0.28"/><stop offset="0.84" stop-color="#ca3bb2" stop-opacity="0"/></linearGradient><linearGradient id="linear-gradient-5" x1="213.93" y1="93.58" x2="213.93" y2="197.97" gradientUnits="userSpaceOnUse"><stop offset="0" stop-color="#ea3a0d"/><stop offset="0.03" stop-color="#ea3a0d"/><stop offset="0.11" stop-color="#ea3b0e" stop-opacity="0.97"/><stop offset="0.22" stop-color="#ec3d10" stop-opacity="0.9"/><stop offset="0.35" stop-color="#ee4014" stop-opacity="0.78"/><stop offset="0.49" stop-color="#f14419" stop-opacity="0.61"/><stop offset="0.64" stop-color="#f44a1f" stop-opacity="0.39"/><stop offset="0.79" stop-color="#f95027" stop-opacity="0.14"/><stop offset="0.87" stop-color="#fb542b" stop-opacity="0"/></linearGradient><linearGradient id="linear-gradient-6" x1="179.01" y1="142.49" x2="179.01" y2="173.35" xlink:href="#linear-gradient"/><linearGradient id="linear-gradient-7" x1="262.85" y1="275.01" x2="262.85" y2="170.61" xlink:href="#linear-gradient"/><linearGradient id="linear-gradient-8" x1="302.88" y1="93.58" x2="302.88" y2="197.97" xlink:href="#linear-gradient"/><linearGradient id="linear-gradient-9" x1="44.85" y1="158.32" x2="44.85" y2="175.6" xlink:href="#linear-gradient"/><linearGradient id="linear-gradient-10" x1="141.1" y1="177.63" x2="141.1" y2="173.54" xlink:href="#linear-gradient"/><linearGradient id="linear-gradient-11" x1="286.3" y1="245.22" x2="286.3" y2="140.82" xlink:href="#linear-gradient"/><linearGradient id="linear-gradient-12" x1="80.22" y1="182.6" x2="80.22" y2="174.74" xlink:href="#linear-gradient"/><linearGradient id="linear-gradient-13" x1="330.87" y1="93.58" x2="330.87" y2="197.97" xlink:href="#linear-gradient"/><linearGradient id="linear-gradient-14" x1="105.77" y1="181.42" x2="105.77" y2="174.05" xlink:href="#linear-gradient"/><linearGradient id="linear-gradient-15" x1="65.8" y1="159.08" x2="65.8" y2="175.26" xlink:href="#linear-gradient"/><linearGradient id="linear-gradient-16" x1="351.74" y1="244.96" x2="351.74" y2="140.56" gradientUnits="userSpaceOnUse"><stop offset="0" stop-color="#ffb8a6"/><stop offset="0.03" stop-color="#ffb8a6"/><stop offset="0.12" stop-color="#ffb6a3" stop-opacity="0.98"/><stop offset="0.24" stop-color="#ffaf9b" stop-opacity="0.91"/><stop offset="0.38" stop-color="#fea48d" stop-opacity="0.8"/><stop offset="0.53" stop-color="#fe947a" stop-opacity="0.64"/><stop offset="0.7" stop-color="#fd8162" stop-opacity="0.45"/><stop offset="0.87" stop-color="#fc6945" stop-opacity="0.21"/><stop offset="1" stop-color="#fb542b" stop-opacity="0"/></linearGradient><linearGradient id="linear-gradient-17" x1="386.92" y1="269.57" x2="386.92" y2="165.18" gradientUnits="userSpaceOnUse"><stop offset="0" stop-color="#ea3a0d"/><stop offset="0.03" stop-color="#ea3a0d"/><stop offset="0.13" stop-color="#ea3b0e" stop-opacity="0.97"/><stop offset="0.25" stop-color="#ec3d10" stop-opacity="0.9"/><stop offset="0.4" stop-color="#ee4014" stop-opacity="0.78"/><stop offset="0.56" stop-color="#f14419" stop-opacity="0.61"/><stop offset="0.73" stop-color="#f44a1f" stop-opacity="0.39"/><stop offset="0.91" stop-color="#f95027" stop-opacity="0.14"/><stop offset="1" stop-color="#fb542b" stop-opacity="0"/></linearGradient><linearGradient id="linear-gradient-18" x1="369.76" y1="93.58" x2="369.76" y2="197.97" xlink:href="#linear-gradient"/><linearGradient id="linear-gradient-19" x1="319.9" y1="237.41" x2="319.9" y2="133.01" xlink:href="#linear-gradient"/><linearGradient id="linear-gradient-20" x1="337.67" y1="244.16" x2="337.67" y2="139.76" xlink:href="#linear-gradient-16"/><linearGradient id="linear-gradient-21" x1="404.81" y1="93.58" x2="404.81" y2="197.97" xlink:href="#linear-gradient-17"/></defs><title>Asset 1</title><g id="Layer_2" data-name="Layer 2"><g id="below_the_fold" data-name="below the fold"><g class="cls-1"><line class="cls-2" x1="35.86" y1="93.07" x2="35.86" y2="227.39"/><line class="cls-2" x1="30.61" y1="93.07" x2="30.61" y2="227.39"/><line class="cls-2" x1="25.1" y1="93.07" x2="25.1" y2="227.39"/><line class="cls-2" x1="41.37" y1="93.08" x2="41.37" y2="227.39"/><line class="cls-2" x1="46.89" y1="93.08" x2="46.89" y2="227.39"/><line class="cls-2" x1="52.4" y1="93.08" x2="52.4" y2="227.39"/><line class="cls-2" x1="57.91" y1="93.08" x2="57.91" y2="227.39"/><line class="cls-2" x1="63.42" y1="93.08" x2="63.42" y2="227.39"/><line class="cls-2" x1="68.93" y1="93.08" x2="68.93" y2="227.39"/><line class="cls-2" x1="74.45" y1="93.08" x2="74.45" y2="227.39"/><line class="cls-2" x1="79.96" y1="93.08" x2="79.96" y2="227.39"/><line class="cls-2" x1="85.47" y1="93.08" x2="85.47" y2="227.39"/><line class="cls-2" x1="90.98" y1="93.08" x2="90.98" y2="227.39"/><line class="cls-2" x1="96.5" y1="93.08" x2="96.5" y2="227.39"/><line class="cls-2" x1="102.01" y1="93.08" x2="102.01" y2="227.39"/><line class="cls-2" x1="107.52" y1="93.08" x2="107.52" y2="227.39"/><line class="cls-2" x1="113.03" y1="93.08" x2="113.03" y2="227.39"/><line class="cls-2" x1="118.55" y1="93.08" x2="118.55" y2="227.39"/><line class="cls-2" x1="124.06" y1="93.08" x2="124.06" y2="227.39"/><line class="cls-2" x1="129.57" y1="93.08" x2="129.57" y2="227.39"/><line class="cls-2" x1="135.08" y1="93.08" x2="135.08" y2="227.39"/><line class="cls-2" x1="140.6" y1="93.08" x2="140.6" y2="227.39"/><line class="cls-2" x1="146.11" y1="93.08" x2="146.11" y2="227.39"/><line class="cls-2" x1="151.62" y1="93.08" x2="151.62" y2="227.39"/><line class="cls-2" x1="157.13" y1="93.08" x2="157.13" y2="227.39"/><line class="cls-2" x1="162.65" y1="93.08" x2="162.65" y2="227.39"/><line class="cls-2" x1="168.16" y1="93.08" x2="168.16" y2="227.39"/><line class="cls-2" x1="173.67" y1="93.08" x2="173.67" y2="227.39"/><line class="cls-2" x1="179.18" y1="93.08" x2="179.18" y2="227.39"/><line class="cls-2" x1="184.7" y1="93.08" x2="184.7" y2="227.39"/><line class="cls-2" x1="190.21" y1="93.08" x2="190.21" y2="227.39"/><line class="cls-2" x1="195.72" y1="93.08" x2="195.72" y2="227.39"/><line class="cls-2" x1="201.23" y1="93.08" x2="201.23" y2="227.39"/><line class="cls-2" x1="206.74" y1="93.08" x2="206.74" y2="227.39"/><line class="cls-2" x1="212.26" y1="93.08" x2="212.26" y2="227.4"/><line class="cls-2" x1="217.77" y1="93.08" x2="217.77" y2="227.4"/><line class="cls-2" x1="223.28" y1="93.08" x2="223.28" y2="227.4"/><line class="cls-2" x1="228.79" y1="93.08" x2="228.79" y2="227.4"/><line class="cls-2" x1="234.31" y1="93.08" x2="234.31" y2="227.4"/><line class="cls-2" x1="239.82" y1="93.08" x2="239.82" y2="227.4"/><line class="cls-2" x1="245.33" y1="93.08" x2="245.33" y2="227.4"/><line class="cls-2" x1="250.84" y1="93.08" x2="250.84" y2="227.4"/><line class="cls-2" x1="256.36" y1="93.08" x2="256.36" y2="227.4"/><line class="cls-2" x1="261.87" y1="93.08" x2="261.87" y2="227.4"/><line class="cls-2" x1="267.38" y1="93.08" x2="267.38" y2="227.4"/><line class="cls-2" x1="272.89" y1="93.08" x2="272.89" y2="227.4"/><line class="cls-2" x1="278.41" y1="93.08" x2="278.41" y2="227.4"/><line class="cls-2" x1="283.92" y1="93.08" x2="283.92" y2="227.4"/><line class="cls-2" x1="289.43" y1="93.08" x2="289.43" y2="227.4"/><line class="cls-2" x1="294.94" y1="93.08" x2="294.94" y2="227.4"/><line class="cls-2" x1="300.46" y1="93.08" x2="300.46" y2="227.4"/><line class="cls-2" x1="305.97" y1="93.08" x2="305.97" y2="227.4"/><line class="cls-2" x1="311.48" y1="93.08" x2="311.48" y2="227.4"/><line class="cls-2" x1="316.99" y1="93.08" x2="316.99" y2="227.4"/><line class="cls-2" x1="322.51" y1="93.08" x2="322.51" y2="227.4"/><line class="cls-2" x1="328.02" y1="93.08" x2="328.02" y2="227.4"/><line class="cls-2" x1="333.53" y1="93.08" x2="333.53" y2="227.4"/><line class="cls-2" x1="339.04" y1="93.08" x2="339.04" y2="227.4"/><line class="cls-2" x1="344.55" y1="93.08" x2="344.55" y2="227.4"/><line class="cls-2" x1="350.07" y1="93.08" x2="350.07" y2="227.4"/><line class="cls-2" x1="355.58" y1="93.08" x2="355.58" y2="227.4"/><line class="cls-2" x1="361.09" y1="93.08" x2="361.09" y2="227.4"/><line class="cls-2" x1="366.6" y1="93.08" x2="366.6" y2="227.4"/><line class="cls-2" x1="372.12" y1="93.08" x2="372.12" y2="227.4"/><line class="cls-2" x1="377.63" y1="93.08" x2="377.63" y2="227.4"/><line class="cls-2" x1="383.14" y1="93.08" x2="383.14" y2="227.4"/><line class="cls-2" x1="388.65" y1="93.08" x2="388.65" y2="227.4"/><line class="cls-2" x1="394.17" y1="93.08" x2="394.17" y2="227.4"/><line class="cls-2" x1="399.68" y1="93.08" x2="399.68" y2="227.4"/><line class="cls-2" x1="405.19" y1="93.08" x2="405.19" y2="227.4"/><line class="cls-2" x1="410.7" y1="93.08" x2="410.7" y2="227.4"/><line class="cls-2" x1="416.22" y1="93.08" x2="416.22" y2="227.4"/><line class="cls-2" x1="421.68" y1="93.08" x2="421.68" y2="227.4"/></g><path class="cls-3" d="M343.77,178.35c.2.34.31.4.36.4s.16,0,.44-.4a30.89,30.89,0,0,0,2.64-5c.54-1.18,1.1-2.4,1.75-3.56l-8.83.17c.43,1,.83,2,1.21,3A37.81,37.81,0,0,0,343.77,178.35Z"/><path class="cls-4" d="M125.1,163.58c-1.76.15-2.23,2.52-2.6,4.42-.09.46-.17.88-.27,1.24-.43,1.66-.89,3.24-1.37,4.79l12.8-.24a33.69,33.69,0,0,0-6-8.87A3.64,3.64,0,0,0,125.1,163.58Z"/><path class="cls-5" d="M86.75,164.41c-.21-.33-.35-.44-.44-.43s-.12.06-.28.41a36.82,36.82,0,0,0-2.31,9l-.24,1.38,7.17-.13a42.38,42.38,0,0,1-1.48-4.18A27,27,0,0,0,86.75,164.41Z"/><path class="cls-6" d="M245.79,162.23c0-.19,0-.64-.09-1.29-.9-13.87-1.82-16.49-2.29-16.82-1.44,0-2.42,4.58-2.84,6.52-.12.57-.23,1-.31,1.33s-.37,1.06-.71,1.95c-.66,1.77-2.43,6.44-2.12,7.18l-.83.56L232,155.42c-.29-.4-.71-.79-1-.68a1.07,1.07,0,0,0-.35.5,38.51,38.51,0,0,0-2,5.79c-.36,1.24-.73,2.49-1.18,3.73v7.29l19.12-.35c-.06-.7-.11-1.41-.17-2.1C246.21,167.13,246,164.67,245.79,162.23Z"/><path class="cls-7" d="M226.23,167.66a2.28,2.28,0,0,1-1.23,1.23c-1,.31-1.93-.4-2.54-1.84-4.12-9.76-4.89-19.64-5.72-30.11l-.14-1.77c-.8-10-1.54-18.49-2.52-27,0-.15-.05-.49-.09-1-.81-9.39-1.6-12.09-2.05-12.84-1.24,4.37-4,39.1-5.64,62.33-.6,3.48-1.44,5.35-2.49,5.62a1.42,1.42,0,0,1-1.5-.67,23.2,23.2,0,0,1-1.92-2.84v13.8l27.07-.5v-7.29A23.14,23.14,0,0,1,226.23,167.66Z"/><path class="cls-8" d="M197.08,151.39a65.74,65.74,0,0,0-2.63-6.11,5,5,0,0,0-2.38-2.63c-1.24-.45-2.67.13-4,.84a19.93,19.93,0,0,0-6.38,4.63,22.4,22.4,0,0,0-3.27,6.43,34,34,0,0,1-2.21,4.94,3.42,3.42,0,0,1-1.28,1.39c-1.24.64-2.41-.11-3.44-.76a5.54,5.54,0,0,0-1.92-.92c-1.4-.23-2.68,1.14-3.27,2.5-.36.82-.68,1.68-1,2.59-1.47,3.94-3.15,8.34-7.6,9.06l42.75-.8v-13.8A52.63,52.63,0,0,1,197.08,151.39Z"/><path class="cls-9" d="M253.18,197.46c1.58.17,2.71-1.64,3.52-3.23a66.49,66.49,0,0,1,15.14-19.41,17.2,17.2,0,0,1,4.79-3.21c.49-.2,1-.35,1.49-.5l-30.54.57a153.38,153.38,0,0,0,2.95,22.1C250.9,195.37,251.66,197.3,253.18,197.46Z"/><path class="cls-10" d="M296.84,171.47a6.72,6.72,0,0,1,3.64-.11,4.76,4.76,0,0,1,2.42,2.16,5.13,5.13,0,0,0,1.47,1.6,5.34,5.34,0,0,0,5.19-.14,10,10,0,0,0,3.67-4.52l-20.71.39a3.36,3.36,0,0,0,1.22.77A5.72,5.72,0,0,0,296.84,171.47Z"/><path class="cls-11" d="M48.14,171.2a38,38,0,0,1-2.91-6.32,33.63,33.63,0,0,0-3.09-6.56A112.82,112.82,0,0,0,38,169.84c-.6,1.89-1.22,3.84-1.89,5.76l17.47-.33a5.38,5.38,0,0,1-1.88-.51A9,9,0,0,1,48.14,171.2Z"/><path class="cls-12" d="M137.5,177.19a6.35,6.35,0,0,0,2.75.44,7.89,7.89,0,0,0,3.36-.53,8.3,8.3,0,0,0,2.31-2,14.54,14.54,0,0,1,1.51-1.53l-12.66.23C135.47,175.16,136.21,176.56,137.5,177.19Z"/><path class="cls-13" d="M287.75,167.79c-1.39-.28-2.62.68-3.92,1.69a16.68,16.68,0,0,1-1.9,1.34l-.48.23,9.71-.18c-.24-.27-.47-.56-.7-.84C289.64,169,288.87,168,287.75,167.79Z"/><path class="cls-14" d="M82.46,174.74l-4.49.08c.33,2.75.74,5.75,2.22,7.78A29.35,29.35,0,0,0,82.46,174.74Z"/><path class="cls-15" d="M331.56,177.29c.1,0,.24-.24.29-.33a34.1,34.1,0,0,0,2.25-4.53c.34-.79.69-1.59,1.07-2.37l-8.61.16a27.75,27.75,0,0,0,4.49,6.73C331.38,177.3,331.52,177.31,331.56,177.29Z"/><path class="cls-16" d="M97.2,180.72a2.06,2.06,0,0,0,3.11,0l.83-.64a21.53,21.53,0,0,1,5.69-3.48c2.2-.79,5.52-.93,7.62,1.27.23.25.45.52.66.79a5.75,5.75,0,0,0,.86,1,1.41,1.41,0,0,0,1.58.29,2.12,2.12,0,0,0,.57-1c.6-1.59,1.16-3.21,1.69-4.88l-28.07.52A13.44,13.44,0,0,0,93,176.75,16.81,16.81,0,0,0,97.2,180.72Z"/><path class="cls-17" d="M76.69,172.67l-.22-1.5A65.49,65.49,0,0,0,74.21,160c-.17-.52-.51-1-.76-.94s-.32.3-.44.53a40.42,40.42,0,0,0-2.66,6.91,52.67,52.67,0,0,1-2,5.67,1.64,1.64,0,0,1-.76.89,1.58,1.58,0,0,1-1.33-.15A9,9,0,0,1,63,170.29l-.19-.27a3.27,3.27,0,0,0-1-1c-1-.5-2.21.39-2.83,1.51-.21.38-.39.78-.57,1.18a7.13,7.13,0,0,1-1.7,2.65,4.15,4.15,0,0,1-2.15.9L77,174.84l0-.27C76.86,173.91,76.78,173.27,76.69,172.67Z"/><path class="cls-18" d="M350.93,168.78c-.21.07-.38.33-.53.56a3.91,3.91,0,0,0-.26.44l3.2-.06c-.53-.27-1.06-.54-1.6-.77A1.29,1.29,0,0,0,350.93,168.78Z"/><path class="cls-19" d="M384.12,186l.05.16c.15.54.28,1.23.44,2,.39,2,.92,4.67,1.86,5.59.27.26.46.32.53.3s.55-.3.86-2.6l2-22.46-5.81.11v16.49C384.05,185.77,384.09,185.89,384.12,186Z"/><path class="cls-20" d="M359.8,170.82a9.23,9.23,0,0,1,4.59,1.44,9.13,9.13,0,0,1,1.69,1.89,13.4,13.4,0,0,0,.92,1.16c.75.81,2,1.45,2.9.95a3.33,3.33,0,0,0,1.06-1.14l2.48-3.58c.33-.47,1-1.46,2.07-1.46h0a2.6,2.6,0,0,1,1.84,1c3.7,4.07,5.23,9.36,6.67,14.52V169.15l-28.51.53a12,12,0,0,0,2,.77A18.52,18.52,0,0,0,359.8,170.82Z"/><path class="cls-21" d="M320.32,161.25c-.41-.52-.75-.76-1-.7a1.26,1.26,0,0,0-.56.43,19.14,19.14,0,0,0-3.23,6.46l-.4,1.14c-.23.61-.47,1.24-.75,1.86l11.11-.2q-.4-.78-.78-1.56A42.12,42.12,0,0,0,320.32,161.25Z"/><path class="cls-22" d="M337.8,167.7s-.19.07-.41.4A19.32,19.32,0,0,0,336.3,170l2.73,0a21.22,21.22,0,0,0-1-2C337.88,167.75,337.82,167.71,337.8,167.7Z"/><path class="cls-23" d="M407.12,126.17l0-.16c-.89-5.32-1.82-10.82-3-16.15-.05-.22-.11-.54-.19-.93-.4-2.05-1.62-8.28-3.49-8.28-1.07.7-3.75,12.67-5.66,23.83L390.83,169l28-.52c-.39-.81-.76-1.62-1.12-2.43C411.93,153.05,409.21,138.65,407.12,126.17Z"/><path class="cls-24" d="M419.8,168.28l-.91.43a.5.5,0,0,0,.91-.43Z"/><path class="cls-25" d="M35.58,175.61h0l-.47-.17a.51.51,0,0,0,.31.64.5.5,0,0,0,.63-.31l-.47-.16Z"/><polygon class="cls-24" points="35.58 175.61 35.58 175.61 35.58 175.61 35.58 175.61"/><path class="cls-24" d="M388.36,191.56c-.21,1.54-.71,4.08-2.24,2.59C385,193,384.45,190,384,187.78v2.49c.38,1.72.9,3.41,1.75,4.24a1.5,1.5,0,0,0,1.56.53c.77-.26,1.24-1.31,1.52-3.43l2-22.58h-.5Z"/><path class="cls-25" d="M121.75,169.11c.5-1.92.69-5.81,3.31-6a4,4,0,0,1,2.94,1.49,34.62,34.62,0,0,1,6.21,9.21h.56a1.24,1.24,0,0,1-.1-.2,35.27,35.27,0,0,0-6.32-9.36,4.52,4.52,0,0,0-3.33-1.63c-2.52.21-3.09,3.11-3.5,5.23-.09.43-.17.83-.26,1.17-.46,1.76-.94,3.44-1.45,5.07h.52C120.84,172.41,121.31,170.76,121.75,169.11Z"/><path class="cls-26" d="M155.49,173.41a8.92,8.92,0,0,0,2.15-.06l-2.39,0Z"/><path class="cls-25" d="M85.57,164.18c.14-.3.32-.63.64-.69s.75.31,1,.66c2,3.18,2.51,7,4,10.43h.55a36.64,36.64,0,0,1-1.62-4.46,27.42,27.42,0,0,0-2.52-6.22c-.54-.87-1.11-1-1.48-.89a1.49,1.49,0,0,0-1,1,37.13,37.13,0,0,0-2.38,9.19c-.09.52-.18,1-.28,1.57H83C83.61,171.14,84.09,167.48,85.57,164.18Z"/><path class="cls-25" d="M383.69,186.32c-1.46-5.25-3-10.74-6.71-14.86a2.11,2.11,0,0,0-1.47-.88c-.72,0-1.24.65-1.65,1.25l-2.49,3.58a3.71,3.71,0,0,1-1.23,1.29c-1.16.63-2.61-.09-3.51-1a23,23,0,0,0-2.55-3c-1.83-1.41-4.41-1.15-6.65-1.73a14.7,14.7,0,0,1-3-1.23l-1.06,0,.26.13a17.64,17.64,0,0,0,3.71,1.56,19.1,19.1,0,0,0,2.36.41,6,6,0,0,1,5.6,2.92,14.4,14.4,0,0,0,1,1.25c1,1.12,2.71,1.91,4.1,1.15a4.35,4.35,0,0,0,1.42-1.45l2.48-3.58c.37-.54.78-1,1.24-1h0a1.75,1.75,0,0,1,1.1.71c3.63,4,5.12,9.34,6.55,14.5l0,.16c.13.5.27,1.21.42,2,.12.59.24,1.23.39,1.86v-2.49C383.9,187.22,383.8,186.71,383.69,186.32Z"/><path class="cls-25" d="M148.52,173.37c2.06-1.19,4.63-.65,7-.45,6.93.57,8.12-6.45,10.27-11.42.67-1.56,2.13-3.06,3.81-2.8s3.4,2.58,5,1.73a2.81,2.81,0,0,0,1.07-1.19c2.15-3.67,2.84-8.15,5.54-11.43A20.14,20.14,0,0,1,187.8,143c1.38-.71,3-1.39,4.44-.86a5.43,5.43,0,0,1,2.66,2.87c2.1,4.09,3.34,8.66,5.49,12.68v-1.11c-.9-1.81-1.65-3.72-2.38-5.59a66.33,66.33,0,0,0-2.67-6.21,5.9,5.9,0,0,0-2.93-3.11c-1.6-.59-3.27.08-4.84.89a20.67,20.67,0,0,0-6.69,4.89,23.77,23.77,0,0,0-3.44,6.7,31.76,31.76,0,0,1-2.14,4.8,2.43,2.43,0,0,1-.87,1c-.67.34-1.37,0-2.44-.72a6.34,6.34,0,0,0-2.3-1.06c-1.94-.31-3.59,1.33-4.35,3.09-.37.84-.71,1.76-1,2.64-1.64,4.39-3.31,8.93-8.73,8.48l-1.15-.11c-2.1-.22-4.28-.45-6.15.63a6.12,6.12,0,0,0-.84.6l.87,0Z"/><path class="cls-24" d="M202.7,161.27c1.83,2.27,2.89-3.46,3.1-4.66,0,0,4.41-63,6-63,1.77,0,2.67,13.26,2.81,14.48,1,9,1.8,18,2.52,27.07.87,10.9,1.5,21.49,5.82,31.73.36.84,1.06,1.83,1.93,1.56a1.81,1.81,0,0,0,.93-1,25.7,25.7,0,0,0,1.68-4.23v-1.72a30.89,30.89,0,0,1-2.12,5.72c-.18.33-.38.66-.64.74-.54.16-1.08-.73-1.31-1.28-4.06-9.61-4.83-19.41-5.65-29.8l-.14-1.77c-.81-10.06-1.54-18.51-2.53-27.08,0-.15,0-.48-.08-.94-1-11.65-2-14-3.22-14-.74,0-1.44,0-4.07,32-1.28,15.58-2.39,31.37-2.39,31.47-.54,3.11-1.29,4.65-1.75,4.77-.11,0-.28-.09-.47-.33a23.35,23.35,0,0,1-2.7-4.34v1.11A21.51,21.51,0,0,0,202.7,161.27Z"/><path class="cls-24" d="M418.59,165.67c-5.7-12.91-8.4-27.25-10.48-39.67l0-.15c-.89-5.34-1.81-10.85-3-16.22-.05-.21-.11-.51-.18-.89-.92-4.72-2.1-9.09-4.47-9.09-2,0-4.72,13.41-6.65,24.7L389.83,169h.5l3.91-44.63s4.16-24.25,6.15-24.25c2.61,0,3.78,7.91,4.16,9.6,1.24,5.4,2.15,10.87,3.07,16.33,2.26,13.54,4.94,27.18,10.52,39.8.39.88.79,1.75,1.2,2.62h-.54l.09.2.91-.43C419.38,167.42,419,166.55,418.59,165.67Z"/><path class="cls-25" d="M276.82,172.07a16.68,16.68,0,0,0-4.65,3.13,65.34,65.34,0,0,0-15,19.26c-.87,1.69-2.14,3.7-4,3.5s-2.66-2.3-3.07-4.07a152.46,152.46,0,0,1-3-22.2h-.5a153.74,153.74,0,0,0,3,22.3c.63,2.74,1.85,4.28,3.51,4.46h.33c2,0,3.28-2,4.19-3.78a65.57,65.57,0,0,1,14.91-19.12,16.45,16.45,0,0,1,4.5-3c.62-.24,1.29-.43,1.94-.61a14.64,14.64,0,0,0,2.51-.87l-1.43,0C279,171.42,277.85,171.66,276.82,172.07Z"/><path class="cls-25" d="M281.69,170.38c2.06-1.16,3.84-3.55,6.16-3.08,1.77.36,2.71,2.22,4,3.56h.7a14,14,0,0,1-1.27-1.44c-.9-1.13-1.83-2.3-3.3-2.6-1.83-.36-3.31.77-4.73,1.88a15.66,15.66,0,0,1-1.78,1.26,12.64,12.64,0,0,1-2.77,1l-.55.15,1.9,0A9.07,9.07,0,0,0,281.69,170.38Z"/><path class="cls-25" d="M143.84,177.54a7.82,7.82,0,0,1-3.59.59,6.79,6.79,0,0,1-3-.49c-1.5-.73-2.31-2.35-3.06-3.84v0h-.55l.12.24c.76,1.52,1.63,3.26,3.28,4.06a7.21,7.21,0,0,0,3.19.54,8.34,8.34,0,0,0,3.81-.64,8.85,8.85,0,0,0,2.6-2.26,9,9,0,0,1,2.11-1.92,3.51,3.51,0,0,1,.65-.31l-1.12,0C146.62,174.61,145.64,176.65,143.84,177.54Z"/><path class="cls-25" d="M314.62,168.4c1-2.71,1.81-5.59,3.73-7.75a1.62,1.62,0,0,1,.83-.59c.61-.13,1.15.39,1.54.88,2.2,2.8,3.66,6.1,5.28,9.29h.56c-.34-.66-.67-1.33-1-2a43,43,0,0,0-4.45-7.6c-.25-.31-1-1.28-2-1.06a2.14,2.14,0,0,0-1.1.74,19.94,19.94,0,0,0-3.42,6.79c-.13.38-.27.76-.4,1.13-.27.74-.57,1.49-.92,2.23h.56C314.1,169.78,314.37,169.09,314.62,168.4Z"/><path class="cls-25" d="M337,167.83c.22-.35.58-.73,1-.61a1,1,0,0,1,.5.5,23.9,23.9,0,0,1,1.14,2.26h.55a24.35,24.35,0,0,0-1.26-2.5,1.44,1.44,0,0,0-.78-.73c-.32-.09-.94-.11-1.54.82a21.72,21.72,0,0,0-1.38,2.5h.56A21,21,0,0,1,337,167.83Z"/><path class="cls-25" d="M230.19,155a1.37,1.37,0,0,1,.61-.74c.59-.26,1.18.32,1.57.83l4.63,6.24c-.67-1,2.38-8.18,2.78-9.53.45-1.57,1.35-8.19,3.72-8.19,1.81,0,2.66,17.1,2.79,18.54.29,3.15.54,6.33.79,9.51h.5c-.06-.72-.12-1.45-.17-2.16-.2-2.47-.39-4.94-.62-7.38,0-.19,0-.63-.09-1.27-1.07-16.36-2.17-17.73-3.2-17.73-2.16,0-3.11,3.6-3.91,7.29-.12.54-.21,1-.29,1.26s-.37,1-.68,1.88a46.13,46.13,0,0,0-2.09,6.32l-3.76-5.07c-1-1.27-1.77-1.17-2.17-1a1.87,1.87,0,0,0-.86,1,38.93,38.93,0,0,0-2.06,5.93l-.22.73v1.72A65.79,65.79,0,0,1,230.19,155Z"/><path class="cls-25" d="M41.68,158.12a.5.5,0,0,1,.87-.08c2.61,3.94,3.51,8.86,6,12.9a7.85,7.85,0,0,0,4.25,3.71,4.15,4.15,0,0,0,2.1.07c2.43-.54,2.76-2.72,3.72-4.44.7-1.25,2.22-2.37,3.49-1.7A4.33,4.33,0,0,1,63.43,170a8.47,8.47,0,0,0,3,2.5,1.1,1.1,0,0,0,.91.14,1.18,1.18,0,0,0,.51-.64c1.84-4.1,2.59-8.65,4.71-12.61a1.36,1.36,0,0,1,.76-.78c.67-.17,1.14.62,1.36,1.27a77.45,77.45,0,0,1,2.5,12.73c.1.69.19,1.45.28,2.23H78c0-.12,0-.24,0-.36-.08-.68-.16-1.33-.25-1.93l-.22-1.5a66.35,66.35,0,0,0-2.3-11.31c-.39-1.19-1.14-1.81-2-1.6a1.8,1.8,0,0,0-1.08,1,40.41,40.41,0,0,0-2.73,7.08,53.45,53.45,0,0,1-2,5.56c-.05.1-.15.34-.25.38s-.51,0-1.88-1a7.61,7.61,0,0,1-1.49-1.51l-.13-.18a3.85,3.85,0,0,0-1.3-1.3c-1.49-.79-3.29.35-4.16,1.9a13.32,13.32,0,0,0-.61,1.26,6.1,6.1,0,0,1-1.44,2.29,3.79,3.79,0,0,1-4,.27A8.24,8.24,0,0,1,49,170.68a37.31,37.31,0,0,1-2.83-6.16A30.75,30.75,0,0,0,42.44,157l-.5-.67-.35.76a107.2,107.2,0,0,0-4.54,12.44c-.62,1.93-1.25,3.94-1.94,5.9l.47.17C37.63,169.73,39.15,163.83,41.68,158.12Z"/><path class="cls-25" d="M80.29,183.5c-2-2.13-2.46-5.61-2.82-8.67H77c.38,3.19.84,6.74,3,9l.47.5.33-.6a28.53,28.53,0,0,0,2.76-9H83A28.1,28.1,0,0,1,80.29,183.5Z"/><path class="cls-25" d="M118.59,179.11a2.46,2.46,0,0,1-.75,1.2,1.87,1.87,0,0,1-2.19-.31,19.17,19.17,0,0,1-1.56-1.8c-1.75-1.83-4.71-2-7.09-1.14s-4.37,2.52-6.39,4.05a3.4,3.4,0,0,1-1.67.81,3.35,3.35,0,0,1-2-.79A17.78,17.78,0,0,1,92.57,177a14.48,14.48,0,0,1-1.38-2.46h-.54a15.64,15.64,0,0,0,1.52,2.74,17.69,17.69,0,0,0,4.46,4.21,3.69,3.69,0,0,0,2.35.87,3.75,3.75,0,0,0,1.93-.9l.84-.64a20.34,20.34,0,0,1,5.42-3.34c2.07-.74,4.9-.71,6.55,1a8,8,0,0,1,.6.71,7.06,7.06,0,0,0,1,1.12,2.35,2.35,0,0,0,2.8.34,3,3,0,0,0,.93-1.44q1-2.55,1.8-5.25h-.53Q119.54,176.59,118.59,179.11Z"/><path class="cls-25" d="M345,178.64c-.22.31-.52.65-.9.61s-.57-.35-.74-.65c-1.59-2.7-2.48-5.76-3.76-8.62H339c.5,1.09,1,2.22,1.38,3.33a37.06,37.06,0,0,0,2.5,5.54,1.56,1.56,0,0,0,1.13.89,1.65,1.65,0,0,0,1.35-.82,32.2,32.2,0,0,0,2.73-5.15,37.45,37.45,0,0,1,2-4h-.59C347.88,172.66,346.88,175.92,345,178.64Z"/><path class="cls-25" d="M350,169.07a1.73,1.73,0,0,1,.8-.76,1.67,1.67,0,0,1,1.17.18c.84.36,1.65.8,2.46,1.21l1.11,0c-.48-.22-1-.46-1.45-.72s-1.26-.64-1.92-.93a2.09,2.09,0,0,0-1.53-.2,2.21,2.21,0,0,0-1.06,1c-.21.33-.4.66-.59,1h.59C349.69,169.55,349.82,169.31,350,169.07Z"/><path class="cls-25" d="M309.82,175.41a5.84,5.84,0,0,1-5.71.14c-1.65-1-1.83-3.06-3.79-3.72-2.16-.74-4.58,1-6.74.27a4.49,4.49,0,0,1-1.76-1.24h-.66a5.22,5.22,0,0,0,2.26,1.7,6.72,6.72,0,0,0,3.64-.12,5.91,5.91,0,0,1,3.1-.15,3.9,3.9,0,0,1,1.92,1.78,5.62,5.62,0,0,0,1.78,1.9,6.31,6.31,0,0,0,6.22-.14,11.33,11.33,0,0,0,4.26-5.4h-.55A10.67,10.67,0,0,1,309.82,175.41Z"/><path class="cls-25" d="M332.27,177.23a1.09,1.09,0,0,1-.58.54c-.37.1-.73-.19-1-.47a28.62,28.62,0,0,1-4.69-7.07h-.55a30.1,30.1,0,0,0,4.88,7.41,1.62,1.62,0,0,0,1.49.61,1.52,1.52,0,0,0,.87-.76,34,34,0,0,0,2.33-4.68c.4-.92.82-1.87,1.28-2.78h-.57A75.23,75.23,0,0,1,332.27,177.23Z"/><path class="cls-25" d="M36.05,175.77l.06-.17h-.53Z"/><path class="cls-24" d="M54.64,175.26H53.58A4.69,4.69,0,0,0,54.64,175.26Z"/><path class="cls-24" d="M387,194.1c-.07,0-.26,0-.53-.3-.94-.92-1.47-3.62-1.86-5.59-.16-.8-.29-1.49-.44-2l-.05-.16c0-.13-.07-.25-.1-.38v2.14c.43,2.18,1,5.26,2.1,6.37,1.53,1.49,2-1.05,2.24-2.59l2-22.53h-.5l-2,22.46C387.55,193.8,387.09,194.07,387,194.1Z"/><path class="cls-25" d="M330.69,177.3c.27.28.63.57,1,.47a1.09,1.09,0,0,0,.58-.54,75.23,75.23,0,0,0,3.46-7.18h-.56c-.38.78-.73,1.58-1.07,2.37a34.1,34.1,0,0,1-2.25,4.53c-.05.09-.19.3-.29.33s-.18,0-.51-.34a27.75,27.75,0,0,1-4.49-6.73H326A28.62,28.62,0,0,0,330.69,177.3Z"/><path class="cls-25" d="M357.43,170.93c2.24.58,4.82.32,6.65,1.73a23,23,0,0,1,2.55,3c.9,1,2.35,1.68,3.51,1a3.71,3.71,0,0,0,1.23-1.29l2.49-3.58c.41-.6.93-1.25,1.65-1.25a2.11,2.11,0,0,1,1.47.88c3.75,4.12,5.25,9.61,6.71,14.86.11.39.21.9.33,1.46v-2.14c-1.44-5.16-3-10.45-6.67-14.52a2.6,2.6,0,0,0-1.84-1h0c-1.05,0-1.74,1-2.07,1.46L371,175.12a3.33,3.33,0,0,1-1.06,1.14c-.92.5-2.15-.14-2.9-.95a13.4,13.4,0,0,1-.92-1.16,9.13,9.13,0,0,0-1.69-1.89,9.23,9.23,0,0,0-4.59-1.44,18.52,18.52,0,0,1-2.25-.37,12,12,0,0,1-2-.77l-1.11,0A14.7,14.7,0,0,0,357.43,170.93Z"/><path class="cls-25" d="M343.34,178.6c.17.3.4.62.74.65s.68-.3.9-.61c1.9-2.72,2.9-6,4.57-8.85H349c-.65,1.16-1.21,2.38-1.75,3.56a30.89,30.89,0,0,1-2.64,5c-.28.4-.42.41-.44.4s-.16-.06-.36-.4a37.81,37.81,0,0,1-2.43-5.39c-.38-1-.78-2-1.21-3h-.55C340.86,172.84,341.75,175.9,343.34,178.6Z"/><path class="cls-25" d="M293.58,172.1c2.16.73,4.58-1,6.74-.27,2,.66,2.14,2.73,3.79,3.72a5.84,5.84,0,0,0,5.71-.14,10.67,10.67,0,0,0,4-5h-.56a10,10,0,0,1-3.67,4.52,5.34,5.34,0,0,1-5.19.14,5.13,5.13,0,0,1-1.47-1.6,4.76,4.76,0,0,0-2.42-2.16,6.72,6.72,0,0,0-3.64.11,5.72,5.72,0,0,1-3.1.15,3.36,3.36,0,0,1-1.22-.77h-.7A4.49,4.49,0,0,0,293.58,172.1Z"/><path class="cls-25" d="M77.19,172.6a77.45,77.45,0,0,0-2.5-12.73c-.22-.65-.69-1.44-1.36-1.27a1.36,1.36,0,0,0-.76.78c-2.12,4-2.87,8.51-4.71,12.61a1.18,1.18,0,0,1-.51.64,1.1,1.1,0,0,1-.91-.14,8.47,8.47,0,0,1-3-2.5,4.33,4.33,0,0,0-1.31-1.41c-1.27-.67-2.79.45-3.49,1.7-1,1.72-1.29,3.9-3.72,4.44a4.15,4.15,0,0,1-2.1-.07,7.85,7.85,0,0,1-4.25-3.71c-2.5-4.06-3.4-9-6-12.94a.48.48,0,0,0-.83.08c-2.54,5.72-4.06,11.64-6.12,17.53h.53c.67-1.92,1.29-3.87,1.89-5.76a112.82,112.82,0,0,1,4.14-11.52,33.63,33.63,0,0,1,3.09,6.56,38,38,0,0,0,2.91,6.32,9,9,0,0,0,3.56,3.56,5.38,5.38,0,0,0,1.88.51h1.06a4.15,4.15,0,0,0,2.15-.9,7.13,7.13,0,0,0,1.7-2.65c.18-.4.36-.8.57-1.18.62-1.12,1.88-2,2.83-1.51a3.27,3.27,0,0,1,1,1l.19.27a9,9,0,0,0,3.19,2.65,1.58,1.58,0,0,0,1.33.15,1.64,1.64,0,0,0,.76-.89,52.67,52.67,0,0,0,2-5.67A40.42,40.42,0,0,1,73,159.62c.12-.23.28-.49.44-.53s.59.42.76.94a65.49,65.49,0,0,1,2.26,11.14l.22,1.5c.09.6.17,1.24.25,1.9l0,.27h.5C77.38,174.05,77.29,173.29,77.19,172.6Z"/><path class="cls-25" d="M250.05,193.89c.41,1.77,1.26,3.87,3.07,4.07s3.16-1.81,4-3.5a65.34,65.34,0,0,1,15-19.26,16.68,16.68,0,0,1,4.65-3.13c1-.41,2.14-.65,3.2-1l-1.9,0c-.5.15-1,.3-1.49.5a17.2,17.2,0,0,0-4.79,3.21,66.49,66.49,0,0,0-15.14,19.41c-.81,1.59-1.94,3.4-3.52,3.23s-2.28-2.09-2.65-3.68a153.38,153.38,0,0,1-2.95-22.1h-.5A152.46,152.46,0,0,0,250.05,193.89Z"/><path class="cls-25" d="M246.29,162.18c-.13-1.44-1-18.54-2.79-18.54-2.37,0-3.27,6.62-3.72,8.19-.4,1.35-3.45,8.52-2.78,9.53l-4.63-6.24c-.39-.51-1-1.09-1.57-.83a1.37,1.37,0,0,0-.61.74,65.79,65.79,0,0,0-2.73,8.17v1.56c.45-1.24.82-2.49,1.18-3.73a38.51,38.51,0,0,1,2-5.79,1.07,1.07,0,0,1,.35-.5c.25-.11.67.28,1,.68l4.64,6.24.83-.56c-.31-.74,1.46-5.41,2.12-7.18.34-.89.61-1.6.71-1.95s.19-.76.31-1.33c.42-1.94,1.4-6.5,2.84-6.52.47.33,1.39,2.95,2.29,16.82.05.65.08,1.1.09,1.29.23,2.44.42,4.9.62,7.37.06.69.11,1.4.17,2.1h.5C246.83,168.51,246.58,165.33,246.29,162.18Z"/><path class="cls-25" d="M320.72,160.94c-.39-.49-.93-1-1.54-.88a1.62,1.62,0,0,0-.83.59c-1.92,2.16-2.75,5-3.73,7.75-.25.69-.52,1.38-.83,2h.55c.28-.62.52-1.25.75-1.86l.4-1.14a19.14,19.14,0,0,1,3.23-6.46,1.26,1.26,0,0,1,.56-.43c.29-.06.63.18,1,.7a42.12,42.12,0,0,1,4.35,7.43q.38.78.78,1.56H326C324.38,167,322.92,163.74,320.72,160.94Z"/><path class="cls-24" d="M418.14,165.88c-5.58-12.62-8.26-26.26-10.52-39.8-.92-5.46-1.83-10.93-3.07-16.33-.38-1.69-1.55-9.6-4.16-9.6-2,0-6.15,24.25-6.15,24.25L390.33,169h.5l3.9-44.55c1.91-11.16,4.59-23.13,5.66-23.83,1.87,0,3.09,6.23,3.49,8.28.08.39.14.71.19.93,1.21,5.33,2.14,10.83,3,16.15l0,.16c2.09,12.48,4.81,26.88,10.56,39.91.36.81.73,1.62,1.12,2.43h.54C418.93,167.63,418.53,166.76,418.14,165.88Z"/><path class="cls-25" d="M165.24,164.29c.34-.91.66-1.77,1-2.59.59-1.36,1.87-2.73,3.27-2.5a5.54,5.54,0,0,1,1.92.92c1,.65,2.2,1.4,3.44.76a3.42,3.42,0,0,0,1.28-1.39,34,34,0,0,0,2.21-4.94,22.4,22.4,0,0,1,3.27-6.43,19.93,19.93,0,0,1,6.38-4.63c1.37-.71,2.8-1.29,4-.84a5,5,0,0,1,2.38,2.63,65.74,65.74,0,0,1,2.63,6.11,52.63,52.63,0,0,0,3.31,7.36v-1c-2.15-4-3.39-8.59-5.49-12.68a5.43,5.43,0,0,0-2.66-2.87c-1.46-.53-3.06.15-4.44.86a20.14,20.14,0,0,0-6.53,4.77c-2.7,3.28-3.39,7.76-5.54,11.43a2.81,2.81,0,0,1-1.07,1.19c-1.65.85-3.22-1.43-5-1.73s-3.14,1.24-3.81,2.8c-2.15,5-3.34,12-10.27,11.42-2.38-.2-4.95-.74-7,.45l-.22.15,1.12,0a10.84,10.84,0,0,1,4.9-.2l.93.09,2.39,0C162.09,172.63,163.77,168.23,165.24,164.29Z"/><path class="cls-25" d="M338.44,167.72a1,1,0,0,0-.5-.5c-.39-.12-.75.26-1,.61a21,21,0,0,0-1.24,2.22h.57a19.32,19.32,0,0,1,1.09-1.94c.22-.33.39-.4.41-.4s.08.05.21.27a21.22,21.22,0,0,1,1,2h.55A23.9,23.9,0,0,0,338.44,167.72Z"/><path class="cls-25" d="M351.94,168.49a1.67,1.67,0,0,0-1.17-.18,1.73,1.73,0,0,0-.8.76c-.15.24-.28.48-.42.72h.59a3.91,3.91,0,0,1,.26-.44c.15-.23.32-.49.53-.56a1.29,1.29,0,0,1,.81.17c.54.23,1.07.5,1.6.77l1.06,0C353.59,169.29,352.78,168.85,351.94,168.49Z"/><path class="cls-25" d="M287.85,167.3c-2.32-.47-4.1,1.92-6.16,3.08a9.07,9.07,0,0,1-1.67.7l1.43,0,.48-.23a16.68,16.68,0,0,0,1.9-1.34c1.3-1,2.53-2,3.92-1.69,1.12.23,1.89,1.2,2.71,2.24.23.28.46.57.7.84h.66C290.56,169.52,289.62,167.66,287.85,167.3Z"/><path class="cls-25" d="M92.57,177a17.78,17.78,0,0,0,4.34,4.09,3.35,3.35,0,0,0,2,.79,3.4,3.4,0,0,0,1.67-.81c2-1.53,4-3.2,6.39-4.05s5.34-.69,7.09,1.14a19.17,19.17,0,0,0,1.56,1.8,1.87,1.87,0,0,0,2.19.31,2.46,2.46,0,0,0,.75-1.2q.94-2.52,1.74-5.07h-.52c-.53,1.67-1.09,3.29-1.69,4.88a2.12,2.12,0,0,1-.57,1,1.41,1.41,0,0,1-1.58-.29,5.75,5.75,0,0,1-.86-1c-.21-.27-.43-.54-.66-.79-2.1-2.2-5.42-2.06-7.62-1.27a21.53,21.53,0,0,0-5.69,3.48l-.83.64a2.06,2.06,0,0,1-3.11,0,16.81,16.81,0,0,1-4.22-4,13.44,13.44,0,0,1-1.24-2.18h-.55A14.48,14.48,0,0,0,92.57,177Z"/><path class="cls-25" d="M134.22,173.8c.75,1.49,1.56,3.11,3.06,3.84a6.79,6.79,0,0,0,3,.49,7.82,7.82,0,0,0,3.59-.59c1.8-.89,2.78-2.93,4.46-4l-.87,0a14.54,14.54,0,0,0-1.51,1.53,8.3,8.3,0,0,1-2.31,2,7.89,7.89,0,0,1-3.36.53,6.35,6.35,0,0,1-2.75-.44c-1.29-.63-2-2-2.73-3.42h-.56Z"/><path class="cls-24" d="M224.85,168.42c-.87.27-1.57-.72-1.93-1.56C218.6,156.62,218,146,217.1,135.13c-.72-9-1.49-18.07-2.52-27.07-.14-1.22-1-14.48-2.81-14.48-1.56,0-6,63-6,63-.21,1.2-1.27,6.93-3.1,4.66a21.51,21.51,0,0,1-2.31-3.54v1a23.2,23.2,0,0,0,1.92,2.84,1.42,1.42,0,0,0,1.5.67c1.05-.27,1.89-2.14,2.49-5.62,1.62-23.23,4.4-58,5.64-62.33.45.75,1.24,3.45,2.05,12.84,0,.48.07.82.09,1,1,8.56,1.72,17,2.52,27l.14,1.77c.83,10.47,1.6,20.35,5.72,30.11.61,1.44,1.57,2.15,2.54,1.84a2.28,2.28,0,0,0,1.23-1.23,23.14,23.14,0,0,0,1.23-2.9V163.2a25.7,25.7,0,0,1-1.68,4.23A1.81,1.81,0,0,1,224.85,168.42Z"/><path class="cls-25" d="M128,164.57a4,4,0,0,0-2.94-1.49c-2.62.22-2.81,4.11-3.31,6-.44,1.65-.91,3.3-1.42,4.93h.53c.48-1.55.94-3.13,1.37-4.79.1-.36.18-.78.27-1.24.37-1.9.84-4.27,2.6-4.42a3.64,3.64,0,0,1,2.55,1.34,33.69,33.69,0,0,1,6,8.87h.55A34.62,34.62,0,0,0,128,164.57Z"/><path class="cls-25" d="M87.17,164.15c-.21-.35-.55-.74-1-.66s-.5.39-.64.69c-1.48,3.3-2,7-2.6,10.55h.51l.24-1.38a36.82,36.82,0,0,1,2.31-9c.16-.35.25-.4.28-.41s.23.1.44.43a27,27,0,0,1,2.42,6,42.38,42.38,0,0,0,1.48,4.18h.54C89.68,171.2,89.12,167.33,87.17,164.15Z"/><path class="cls-25" d="M80.29,183.5A28.1,28.1,0,0,0,83,174.73h-.51a29.35,29.35,0,0,1-2.27,7.86c-1.48-2-1.89-5-2.22-7.78h-.5C77.83,177.89,78.3,181.37,80.29,183.5Z"/><g class="cls-1"><line class="cls-2" x1="15.93" y1="211.66" x2="425.6" y2="211.66"/><line class="cls-2" x1="15.93" y1="215.67" x2="425.6" y2="215.67"/><line class="cls-2" x1="15.93" y1="207.46" x2="425.6" y2="207.46"/><line class="cls-2" x1="15.93" y1="203.26" x2="425.6" y2="203.26"/><line class="cls-2" x1="15.93" y1="199.06" x2="425.6" y2="199.06"/><line class="cls-2" x1="15.93" y1="194.85" x2="425.6" y2="194.85"/><line class="cls-2" x1="15.93" y1="190.65" x2="425.6" y2="190.65"/><line class="cls-2" x1="15.93" y1="186.45" x2="425.6" y2="186.45"/><line class="cls-2" x1="15.93" y1="182.25" x2="425.6" y2="182.25"/><line class="cls-2" x1="15.93" y1="178.04" x2="425.6" y2="178.04"/><line class="cls-2" x1="15.93" y1="173.84" x2="425.6" y2="173.84"/><line class="cls-2" x1="15.93" y1="169.64" x2="425.6" y2="169.64"/><line class="cls-2" x1="15.93" y1="165.44" x2="425.6" y2="165.44"/><line class="cls-2" x1="15.93" y1="161.23" x2="425.6" y2="161.23"/><line class="cls-2" x1="15.93" y1="157.03" x2="425.6" y2="157.03"/><line class="cls-2" x1="15.93" y1="152.83" x2="425.6" y2="152.83"/><line class="cls-2" x1="15.93" y1="148.63" x2="425.6" y2="148.63"/><line class="cls-2" x1="15.93" y1="144.43" x2="425.6" y2="144.43"/><line class="cls-2" x1="15.93" y1="140.22" x2="425.6" y2="140.22"/><line class="cls-2" x1="15.93" y1="136.02" x2="425.6" y2="136.02"/><line class="cls-2" x1="15.93" y1="131.82" x2="425.6" y2="131.82"/><line class="cls-2" x1="15.93" y1="127.62" x2="425.6" y2="127.62"/><line class="cls-2" x1="15.93" y1="123.41" x2="425.6" y2="123.41"/><line class="cls-2" x1="15.93" y1="119.21" x2="425.6" y2="119.21"/><line class="cls-2" x1="15.93" y1="115.01" x2="425.6" y2="115.01"/><line class="cls-2" x1="15.93" y1="110.81" x2="425.6" y2="110.81"/><line class="cls-2" x1="15.93" y1="106.6" x2="425.6" y2="106.6"/><line class="cls-2" x1="15.93" y1="102.4" x2="425.6" y2="102.4"/><line class="cls-2" x1="15.93" y1="98.2" x2="425.6" y2="98.2"/></g><text class="cls-27" transform="translate(70.99 11.95)">Using Brave User Ads </text><text class="cls-27" transform="translate(70.99 31.3)">Using Brave User Ads + Sponsored Images</text><circle class="cls-28" cx="35.86" cy="175.6" r="1.3"/><circle class="cls-28" cx="41.7" cy="157.45" r="1.3"/><circle class="cls-28" cx="48.83" cy="171.06" r="1.3"/><circle class="cls-28" cx="54.66" cy="174.31" r="1.3"/><circle class="cls-28" cx="61.15" cy="168.47" r="1.3"/><circle class="cls-28" cx="67.63" cy="172.36" r="1.3"/><circle class="cls-28" cx="73.47" cy="158.74" r="1.3"/><circle class="cls-28" cx="79.95" cy="182.74" r="1.3"/><circle class="cls-28" cx="86.44" cy="163.93" r="1.3"/><circle class="cls-28" cx="92.27" cy="176.9" r="1.3"/><circle class="cls-28" cx="98.76" cy="181.44" r="1.3"/><circle class="cls-28" cx="105.24" cy="177.55" r="1.3"/><circle class="cls-28" cx="111.73" cy="176.9" r="1.3"/><circle class="cls-28" cx="117.56" cy="180.14" r="1.3"/><circle class="cls-28" cx="124.05" cy="163.93" r="1.3"/><circle class="cls-28" cx="130.53" cy="167.17" r="1.3"/><circle class="cls-28" cx="136.37" cy="176.9" r="1.3"/><circle class="cls-28" cx="142.85" cy="177.55" r="1.3"/><circle class="cls-28" cx="149.34" cy="173.01" r="1.3"/><circle class="cls-28" cx="155.82" cy="173.01" r="1.3"/><circle class="cls-28" cx="161.66" cy="171.06" r="1.3"/><circle class="cls-28" cx="168.14" cy="159.39" r="1.3"/><circle class="cls-28" cx="174.62" cy="160.69" r="1.3"/><circle class="cls-28" cx="180.46" cy="148.37" r="1.3"/><circle class="cls-28" cx="186.94" cy="143.83" r="1.3"/><circle class="cls-28" cx="193.43" cy="143.18" r="1.3"/><circle class="cls-28" cx="199.26" cy="155.5" r="1.3"/><circle class="cls-29" cx="205.75" cy="156.8" r="1.3"/><circle class="cls-29" cx="218.72" cy="149.67" r="1.3"/><circle class="cls-29" cx="224.55" cy="168.47" r="1.3"/><circle class="cls-28" cx="231.04" cy="154.21" r="1.3"/><circle class="cls-28" cx="236.82" cy="160.69" r="1.3"/><circle class="cls-28" cx="243.36" cy="143.83" r="1.3"/><circle class="cls-28" cx="249.19" cy="191.81" r="1.3"/><circle class="cls-28" cx="256.33" cy="196.35" r="1.3"/><circle class="cls-28" cx="262.16" cy="185.98" r="1.3"/><circle class="cls-28" cx="268.65" cy="178.85" r="1.3"/><circle class="cls-28" cx="275.13" cy="173.01" r="1.3"/><circle class="cls-28" cx="281.45" cy="170.83" r="1.3"/><circle class="cls-28" cx="287.45" cy="167.17" r="1.3"/><circle class="cls-28" cx="293.93" cy="172.04" r="1.3"/><circle class="cls-28" cx="300.42" cy="171.71" r="1.3"/><circle class="cls-28" cx="306.25" cy="176.25" r="1.3"/><circle class="cls-28" cx="312.74" cy="171.71" r="1.3"/><circle class="cls-28" cx="319.22" cy="160.04" r="1.3"/><circle class="cls-28" cx="325.43" cy="169.12" r="1.3"/><circle class="cls-28" cx="331.54" cy="178.2" r="1.3"/><circle class="cls-28" cx="338.03" cy="167.17" r="1.3"/><circle class="cls-28" cx="344.31" cy="178.85" r="1.3"/><circle class="cls-28" cx="350.35" cy="168.47" r="1.3"/><circle class="cls-28" cx="356.83" cy="171.06" r="1.3"/><circle class="cls-28" cx="363.32" cy="172.36" r="1.3"/><circle class="cls-28" cx="369.15" cy="176.9" r="1.3"/><circle class="cls-28" cx="375.5" cy="170.7" r="1.3"/><circle class="cls-28" cx="381.95" cy="180.79" r="1.3"/><circle class="cls-29" cx="388.27" cy="191.81" r="1.3"/><circle class="cls-29" cx="394.24" cy="124.38" r="1.3"/><circle class="cls-29" cx="407.09" cy="123.08" r="1.3"/><circle class="cls-29" cx="413.24" cy="152.26" r="1.3"/><circle class="cls-29" cx="419.34" cy="168.47" r="1.3"/><circle class="cls-30" cx="211.9" cy="93.9" r="2.11"/><circle class="cls-30" cx="400.72" cy="100.58" r="2.11"/><text class="cls-31" transform="translate(173.12 240.59)">Campaign Timeline</text><polyline class="cls-32" points="425.6 224.38 19.12 224.38 19.12 91"/><text class="cls-31" transform="translate(8.53 207.91) rotate(-90)">Registration Activity</text><rect class="cls-25" x="17.26" y="3.93" width="43.08" height="6.33"/><rect class="cls-24" x="17.26" y="23.28" width="43.08" height="6.33"/></g></g></svg>