<svg xmlns="http://www.w3.org/2000/svg" viewBox="0 0 44.42 44.42"><defs><style>.cls-1{fill:none;stroke:#fb542b;stroke-miterlimit:10;stroke-width:2px;opacity:0.4;}.cls-2{fill:#ff7654;fill-rule:evenodd;}</style></defs><title>Asset 6</title><g id="Layer_2" data-name="Layer 2"><g id="below_the_fold" data-name="below the fold"><rect class="cls-1" x="1" y="1" width="42.42" height="42.42" rx="21.07"/><path class="cls-2" d="M22.38,31c-7.47,0-11.5-6.26-11.5-8.82s4-8.82,11.5-8.82,11.51,6.26,11.51,8.82S29.86,31,22.38,31Zm0-15.68c-6.5,0-9.58,5.5-9.58,6.86s3.08,6.86,9.58,6.86S32,23.57,32,22.21,28.89,15.35,22.38,15.35Zm0,11.76a4.9,4.9,0,1,1,4.8-4.9A4.85,4.85,0,0,1,22.38,27.11Zm0-7.84a2.94,2.94,0,1,0,2.88,2.94A2.91,2.91,0,0,0,22.38,19.27Z"/></g></g></svg>