<svg xmlns="http://www.w3.org/2000/svg" xmlns:xlink="http://www.w3.org/1999/xlink" viewBox="0 0 498.03 93.69"><defs><style>.cls-1{fill:#f0f0f0;}.cls-2{fill:url(#linear-gradient);}.cls-3{fill:#fff;}.cls-4{fill:url(#linear-gradient-2);}.cls-5{fill:#4c4c4c;}.cls-6{fill:#727272;}.cls-7{fill:#e3e3e3;}.cls-8{fill:#706a6f;}</style><linearGradient id="linear-gradient" x1="-704.85" y1="446.82" x2="-704.65" y2="446.82" gradientTransform="matrix(217.6, 0, 0, -255.47, 153391.49, 114196.37)" gradientUnits="userSpaceOnUse"><stop offset="0" stop-color="#f50"/><stop offset="0.41" stop-color="#f50"/><stop offset="0.58" stop-color="#ff2000"/><stop offset="1" stop-color="#ff2000"/></linearGradient><linearGradient id="linear-gradient-2" x1="-704.24" y1="435.22" x2="-704.05" y2="435.22" gradientTransform="matrix(180.61, 0, 0, -46.03, 127213.06, 20060.16)" gradientUnits="userSpaceOnUse"><stop offset="0" stop-color="#ff452a"/><stop offset="1" stop-color="#ff2000"/></linearGradient></defs><title>Asset 2</title><g id="Layer_2" data-name="Layer 2"><g id="Layer_1-2" data-name="Layer 1"><rect class="cls-1" width="498.03" height="93.69" rx="12" ry="12"/><g id="starting-collection"><g id="Build-Icons"><g id="build-icons_Stable" data-name="build-icons/Stable"><g id="Logo"><path id="Head" class="cls-2" d="M57.35,32.56l1.15-2.83S57,28.16,55.26,26.39s-5.53-.74-5.53-.74l-4.29-4.86h-15l-4.28,4.86s-3.76-1-5.54.74-3.24,3.34-3.24,3.34l1.15,2.83L17,36.74s4.3,16.31,4.81,18.3c1,3.93,1.67,5.44,4.49,7.43s7.94,5.44,8.77,6,1.88,1.42,2.82,1.42,2-.9,2.82-1.42,6-4,8.78-6S53,59,54,55c.5-2,4.81-18.3,4.81-18.3Z"/><path id="Face" class="cls-3" d="M48.53,28.74S54,35.41,54,36.83s-.69,1.8-1.38,2.54l-4.14,4.4A1.84,1.84,0,0,0,47.79,46c.48,1.13,1.18,2.57.4,4s-2.13,2.44-3,2.27a15.59,15.59,0,0,1-3.63-1.7c-.75-.48-3.11-2.43-3.11-3.18S40.9,45.3,41.35,45s2.51-1.49,2.55-2,0-.59-.58-1.74-1.7-2.66-1.52-3.67,2-1.54,3.2-2,3.68-1.37,4-1.51.23-.27-.69-.36a17.69,17.69,0,0,0-4.69-.11,15.84,15.84,0,0,0-3.33,1.09c-.16.27-.31.27-.14,1.18s1,5.28,1.11,6.06.24,1.28-.59,1.48a21,21,0,0,1-2.73.52,20.94,20.94,0,0,1-2.72-.52c-.84-.2-.67-.71-.59-1.48s.94-5.15,1.11-6.06,0-.91-.14-1.18a16,16,0,0,0-3.34-1.09,17.61,17.61,0,0,0-4.68.11c-.92.09-1,.22-.69.36s2.72,1,4,1.51,3,1,3.2,2-.91,2.53-1.51,3.67-.62,1.28-.58,1.74,2.09,1.64,2.54,2,2.89,1.64,2.89,2.38-2.36,2.7-3.1,3.18a15.78,15.78,0,0,1-3.63,1.7c-.86.17-2.21-.81-3-2.27s-.08-2.91.4-4a1.84,1.84,0,0,0-.73-2.18l-4.13-4.4c-.7-.74-1.39-1.11-1.39-2.54s5.51-8.09,5.51-8.09,4.65.89,5.28.89a16.22,16.22,0,0,0,3.23-.94,7.32,7.32,0,0,1,2.09-.42,7.26,7.26,0,0,1,2.09.42,16.27,16.27,0,0,0,3.24.94C43.88,29.63,48.53,28.74,48.53,28.74ZM44.4,54.24c.34.22.13.62-.18.84s-4.49,3.46-4.89,3.82-1,.94-1.41.94-1-.59-1.4-.94-4.58-3.6-4.89-3.82-.52-.62-.18-.84,1.41-.75,2.88-1.51a16.94,16.94,0,0,1,3.59-1.41,17,17,0,0,1,3.6,1.41C43,53.49,44.06,54,44.4,54.24Z"/><g id="Top-Head"><path id="path-3" class="cls-4" d="M49.73,25.65l-4.29-4.86h-15l-4.28,4.86s-3.76-1-5.54.74c0,0,5-.46,6.74,2.35,0,0,4.65.89,5.28.89a16.22,16.22,0,0,0,3.23-.94,7.32,7.32,0,0,1,2.09-.42,7.26,7.26,0,0,1,2.09.42,16.27,16.27,0,0,0,3.24.94c.63,0,5.28-.89,5.28-.89,1.72-2.81,6.73-2.35,6.73-2.35-1.77-1.78-5.53-.74-5.53-.74"/></g></g></g></g></g><path class="cls-5" d="M74.7,30.61V16.8h2.15V30.61Z"/><path class="cls-5" d="M79.14,20.54h2v1.69h0a3.26,3.26,0,0,1,3.16-1.86c2.22,0,3.5,1.41,3.5,3.72v6.52H85.74V24.49c0-1.51-.71-2.34-2.14-2.34a2.34,2.34,0,0,0-2.39,2.59v5.87H79.14Z"/><path class="cls-5" d="M92.48,18.16v2.38h1.91v1.64H92.48v5.55c0,.87.38,1.26,1.23,1.26a4.17,4.17,0,0,0,.67,0v1.64a6.2,6.2,0,0,1-1.14.09c-2,0-2.84-.77-2.84-2.71V22.18H88.94V20.54H90.4V18.16Z"/><path class="cls-5" d="M104.48,27.65c-.29,1.84-2,3.15-4.34,3.15-3,0-4.74-2-4.74-5.18s1.81-5.26,4.66-5.26,4.53,2,4.53,5v.71H97.48v.12a2.63,2.63,0,0,0,2.71,2.91,2.26,2.26,0,0,0,2.32-1.47Zm-7-3h5A2.47,2.47,0,0,0,100.06,22,2.6,2.6,0,0,0,97.49,24.65Z"/><path class="cls-5" d="M106.26,16.8h2.07V30.61h-2.07Z"/><path class="cls-5" d="M110.32,20.43A4.69,4.69,0,1,1,115,25,4.59,4.59,0,0,1,110.32,20.43Zm8.22,0A3.54,3.54,0,1,0,115,24,3.49,3.49,0,0,0,118.54,20.43Zm-5.33,2.09V18.17h2.19A1.4,1.4,0,0,1,117,19.52a1.21,1.21,0,0,1-1,1.29l1.21,1.71h-1.24l-1-1.57h-.71v1.57Zm1-2.32h1c.45,0,.7-.23.7-.63s-.24-.57-.67-.57h-1Z"/><path class="cls-5" d="M131.76,30.84c-3.95,0-6.44-2.77-6.44-7.2s2.48-7.07,6.41-7.07a5.6,5.6,0,0,1,5.87,4.57h-2.2a3.61,3.61,0,0,0-3.66-2.69c-2.64,0-4.23,1.93-4.23,5.17S129.15,29,131.78,29a3.52,3.52,0,0,0,3.81-3.53v-.24H132V23.46h5.68v1.41C137.71,28.61,135.5,30.84,131.76,30.84Z"/><path class="cls-5" d="M139.11,27.74c0-1.76,1.35-2.84,3.74-3l2.76-.16v-.78c0-1.12-.76-1.79-2-1.79a1.93,1.93,0,0,0-2.13,1.48h-2c.12-1.82,1.67-3.16,4.15-3.16s4,1.29,4,3.31v6.94h-2V29h-.05a3.58,3.58,0,0,1-3.17,1.83A3.06,3.06,0,0,1,139.11,27.74Zm6.5-.9V26l-2.48.15c-1.24.09-1.94.64-1.94,1.5s.73,1.45,1.84,1.45A2.41,2.41,0,0,0,145.61,26.84Z"/><path class="cls-5" d="M149.66,20.54h2v1.69h.05a3,3,0,0,1,2.86-1.86,2.76,2.76,0,0,1,2.81,2h.05a3.27,3.27,0,0,1,3.14-2,3.11,3.11,0,0,1,3.29,3.32v6.92h-2.08V24.19a1.81,1.81,0,0,0-1.92-2.05,2,2,0,0,0-2.08,2.18v6.29h-2V24a1.77,1.77,0,0,0-1.9-1.89,2.11,2.11,0,0,0-2.1,2.25v6.22h-2.06Z"/><path class="cls-5" d="M174.44,27.65c-.29,1.84-2,3.15-4.33,3.15-3,0-4.75-2-4.75-5.18s1.82-5.26,4.66-5.26,4.53,2,4.53,5v.71h-7.1v.12a2.63,2.63,0,0,0,2.7,2.91,2.29,2.29,0,0,0,2.33-1.47Zm-7-3h5A2.48,2.48,0,0,0,170,22,2.59,2.59,0,0,0,167.46,24.65Z"/><path class="cls-5" d="M176.15,20.54h2v1.71h0a2.42,2.42,0,0,1,2.42-1.87,4.78,4.78,0,0,1,.7.07v1.93a2.78,2.78,0,0,0-.92-.12,2.08,2.08,0,0,0-2.16,2.32v6h-2.06Z"/><path class="cls-5" d="M191.66,16.8c4.11,0,6.54,2.53,6.54,6.88s-2.43,6.93-6.54,6.93h-4.87V16.8Zm-2.73,12h2.53c2.93,0,4.54-1.79,4.54-5.05s-1.62-5.05-4.54-5.05h-2.53Z"/><path class="cls-5" d="M199.59,27.74c0-1.76,1.35-2.84,3.74-3l2.75-.16v-.78c0-1.12-.75-1.79-2-1.79a1.93,1.93,0,0,0-2.12,1.48H200c.11-1.82,1.66-3.16,4.15-3.16s4,1.29,4,3.31v6.94h-2V29h0a3.59,3.59,0,0,1-3.18,1.83A3,3,0,0,1,199.59,27.74Zm6.49-.9V26l-2.48.15c-1.23.09-1.93.64-1.93,1.5s.73,1.45,1.84,1.45A2.41,2.41,0,0,0,206.08,26.84Z"/><path class="cls-5" d="M210.3,34.31V32.63a3.66,3.66,0,0,0,.67,0,1.68,1.68,0,0,0,1.79-1.43s.18-.62.18-.62L209.3,20.54h2.24l2.55,8.19h0l2.55-8.19h2.18l-3.77,10.59c-.86,2.44-1.86,3.23-3.94,3.23A7.58,7.58,0,0,1,210.3,34.31Z"/><path class="cls-5" d="M223.76,20.36c2.35,0,3.87,1.3,3.94,3.16h-1.95a1.78,1.78,0,0,0-2-1.59c-1.12,0-1.86.54-1.86,1.35,0,.63.46,1.06,1.55,1.31l1.63.37c2.06.48,2.85,1.28,2.85,2.74,0,1.83-1.72,3.1-4.09,3.1-2.52,0-4-1.24-4.22-3.15h2c.19,1.05.91,1.57,2.17,1.57s2-.52,2-1.34c0-.65-.37-1-1.47-1.28l-1.64-.39c-1.91-.44-2.86-1.35-2.86-2.82C219.88,21.59,221.45,20.36,223.76,20.36Z"/><path class="cls-6" d="M81.89,54.58H74.57V42.78h7.32V44.1H76.05v3.79h5.53V49.2H76.05v4.06h5.84Z"/><path class="cls-6" d="M92.12,50.33c0,2.66-1.46,4.4-3.61,4.4a3,3,0,0,1-2.7-1.53h0v4.22H84.35V46.07H85.7v1.44h0a3.07,3.07,0,0,1,2.75-1.58C90.65,45.93,92.12,47.66,92.12,50.33Zm-1.46,0c0-1.92-1-3.15-2.46-3.15s-2.44,1.26-2.44,3.15,1,3.15,2.44,3.15S90.66,52.26,90.66,50.33Z"/><path class="cls-6" d="M94.19,43.67a.89.89,0,1,1,.89.89A.89.89,0,0,1,94.19,43.67Zm.18,2.4h1.42v8.51H94.37Z"/><path class="cls-6" d="M104.13,48.86A2.08,2.08,0,0,0,102,47.18c-1.48,0-2.47,1.22-2.47,3.15s1,3.15,2.48,3.15a2.06,2.06,0,0,0,2.17-1.64h1.4A3.4,3.4,0,0,1,102,54.73c-2.35,0-3.92-1.66-3.92-4.4s1.56-4.4,3.91-4.4a3.38,3.38,0,0,1,3.57,2.93Z"/><path class="cls-6" d="M111.35,50.33c0-2.67,1.46-4.4,3.61-4.4a3,3,0,0,1,2.7,1.53h0V42.78h1.42v11.8h-1.36V53.14h0A3.05,3.05,0,0,1,115,54.73C112.82,54.73,111.35,53,111.35,50.33Zm1.46,0c0,1.93.94,3.15,2.45,3.15s2.44-1.25,2.44-3.15-1-3.15-2.44-3.15S112.81,48.41,112.81,50.33Z"/><path class="cls-6" d="M128.83,52.14a3.38,3.38,0,0,1-3.54,2.59c-2.44,0-3.92-1.7-3.92-4.37s1.5-4.43,3.85-4.43,3.71,1.67,3.71,4.24v.54h-6.1v.08a2.43,2.43,0,0,0,2.49,2.7,2.06,2.06,0,0,0,2.11-1.35Zm-6-2.54h4.62a2.27,2.27,0,0,0-2.26-2.44A2.4,2.4,0,0,0,122.84,49.6Z"/><path class="cls-6" d="M130.77,52.18c0-1.46,1.12-2.38,3.08-2.49l2.44-.14v-.71c0-1-.69-1.66-1.87-1.66a1.78,1.78,0,0,0-2,1.35h-1.37c.09-1.47,1.35-2.6,3.37-2.6s3.25,1.08,3.25,2.77v5.88h-1.35V53.12h0a3.11,3.11,0,0,1-2.73,1.61A2.55,2.55,0,0,1,130.77,52.18Zm5.52-.83v-.7l-2.28.14c-1.14.08-1.8.58-1.8,1.39s.68,1.34,1.71,1.34A2.24,2.24,0,0,0,136.29,51.35Z"/><path class="cls-6" d="M140.34,42.78h1.42v11.8h-1.42Z"/><path class="cls-6" d="M147.4,45.93c1.86,0,3.11,1.09,3.16,2.6h-1.35a1.63,1.63,0,0,0-1.81-1.44c-1,0-1.73.51-1.73,1.26,0,.59.44,1,1.39,1.22l1.34.32c1.72.42,2.34,1.09,2.34,2.31,0,1.48-1.39,2.53-3.29,2.53s-3.24-1-3.4-2.6h1.42c.17,1,.83,1.44,2,1.44s1.86-.49,1.86-1.26-.33-1-1.31-1.2l-1.35-.33c-1.6-.39-2.38-1.13-2.38-2.36C144.27,47,145.56,45.93,147.4,45.93Z"/><path class="cls-6" d="M156.72,50.33c0-2.72,1.59-4.4,3.94-4.4s3.94,1.68,3.94,4.4-1.59,4.4-3.94,4.4S156.72,53,156.72,50.33Zm6.43,0c0-2-1-3.15-2.49-3.15s-2.49,1.14-2.49,3.15,1,3.15,2.49,3.15S163.15,52.33,163.15,50.33Z"/><path class="cls-6" d="M166.77,46.07h1.34v1.36h0a2.84,2.84,0,0,1,2.69-1.5,2.8,2.8,0,0,1,2.95,3.13v5.52h-1.42V49.31c0-1.37-.65-2.12-2-2.12a2.17,2.17,0,0,0-2.22,2.39v5h-1.42Z"/><path class="cls-6" d="M185.69,54.78c-3.3,0-5.41-2.41-5.41-6.16s2.1-6,5.41-6a4.74,4.74,0,0,1,4.93,3.86h-1.55a3.35,3.35,0,0,0-3.38-2.5c-2.43,0-3.9,1.75-3.9,4.67s1.49,4.81,3.9,4.81a3.28,3.28,0,0,0,3.53-3.34v-.21h-3.33V48.58h4.8V49.7C190.69,52.89,188.83,54.78,185.69,54.78Z"/><path class="cls-6" d="M192.76,52.18c0-1.46,1.12-2.38,3.08-2.49l2.44-.14v-.71c0-1-.69-1.66-1.87-1.66a1.78,1.78,0,0,0-2,1.35h-1.38c.1-1.47,1.36-2.6,3.37-2.6S199.7,47,199.7,48.7v5.88h-1.35V53.12h0a3.11,3.11,0,0,1-2.73,1.61A2.55,2.55,0,0,1,192.76,52.18Zm5.52-.83v-.7l-2.28.14c-1.14.08-1.8.58-1.8,1.39s.68,1.34,1.7,1.34A2.24,2.24,0,0,0,198.28,51.35Z"/><path class="cls-6" d="M202.25,46.07h1.34v1.36h0a2.53,2.53,0,0,1,2.41-1.5,2.39,2.39,0,0,1,2.39,1.62h0a2.83,2.83,0,0,1,2.67-1.62,2.6,2.6,0,0,1,2.77,2.78v5.87h-1.43V49a1.65,1.65,0,0,0-1.76-1.85,1.88,1.88,0,0,0-1.92,2v5.41h-1.43v-5.7a1.61,1.61,0,0,0-1.74-1.69,2,2,0,0,0-2,2.06v5.33h-1.42Z"/><path class="cls-6" d="M216.35,43.67a.89.89,0,1,1,.89.89A.89.89,0,0,1,216.35,43.67Zm.18,2.4H218v8.51h-1.42Z"/><path class="cls-6" d="M220.61,46.07H222v1.36h0a2.85,2.85,0,0,1,2.7-1.5,2.8,2.8,0,0,1,2.94,3.13v5.52h-1.42V49.31c0-1.37-.65-2.12-2-2.12A2.17,2.17,0,0,0,222,49.58v5h-1.43Z"/><path class="cls-6" d="M230.1,55.28h1.46a2.21,2.21,0,0,0,2.19,1.3,2.1,2.1,0,0,0,2.36-2.12V53.12h0a3.08,3.08,0,0,1-2.72,1.53c-2.17,0-3.59-1.71-3.59-4.36s1.42-4.36,3.62-4.36a3.08,3.08,0,0,1,2.76,1.58h0V46.07h1.36v8.34c0,2-1.5,3.38-3.85,3.38A3.39,3.39,0,0,1,230.1,55.28Zm6-5c0-1.87-1-3.11-2.47-3.11s-2.42,1.21-2.42,3.11,1,3.11,2.42,3.11S236.11,52.17,236.11,50.29Z"/><path class="cls-6" d="M248.74,42.78a3.8,3.8,0,0,1,0,7.59H246v4.21h-1.47V42.78ZM246,49.06h2.35a2.49,2.49,0,1,0,0-5H246Z"/><path class="cls-6" d="M254.49,48.68c0-3.71,2.08-6.1,5.32-6.1a4.69,4.69,0,0,1,4.89,3.92h-1.48a3.38,3.38,0,0,0-3.41-2.56c-2.31,0-3.81,1.87-3.81,4.74s1.48,4.74,3.81,4.74a3.26,3.26,0,0,0,3.41-2.27h1.48c-.54,2.33-2.29,3.63-4.89,3.63C256.55,54.78,254.49,52.41,254.49,48.68Z"/><path class="cls-6" d="M269.94,45.93c1.87,0,3.11,1.09,3.17,2.6h-1.36a1.63,1.63,0,0,0-1.81-1.44c-1,0-1.72.51-1.72,1.26,0,.59.43,1,1.38,1.22l1.35.32c1.72.42,2.34,1.09,2.34,2.31,0,1.48-1.4,2.53-3.3,2.53s-3.24-1-3.4-2.6H268c.17,1,.83,1.44,2,1.44s1.87-.49,1.87-1.26-.34-1-1.31-1.2l-1.35-.33c-1.61-.39-2.38-1.13-2.38-2.36C266.82,47,268.1,45.93,269.94,45.93Z"/><path class="cls-6" d="M282.66,45.93c1.86,0,3.1,1.09,3.16,2.6h-1.36a1.62,1.62,0,0,0-1.8-1.44c-1,0-1.73.51-1.73,1.26,0,.59.43,1,1.38,1.22l1.35.32c1.72.42,2.34,1.09,2.34,2.31,0,1.48-1.4,2.53-3.3,2.53s-3.23-1-3.4-2.6h1.43c.17,1,.82,1.44,2,1.44s1.87-.49,1.87-1.26-.34-1-1.31-1.2l-1.35-.33c-1.6-.39-2.38-1.13-2.38-2.36C279.53,47,280.82,45.93,282.66,45.93Z"/><path class="cls-6" d="M290.1,44v2h1.65v1.17H290.1V52.3c0,.78.33,1.13,1,1.13.17,0,.49,0,.59,0v1.19a5,5,0,0,1-.9.07c-1.56,0-2.17-.64-2.17-2.28V47.24h-1.26V46.07h1.26V44Z"/><path class="cls-6" d="M293.5,52.18c0-1.46,1.12-2.38,3.08-2.49l2.44-.14v-.71c0-1-.69-1.66-1.87-1.66a1.78,1.78,0,0,0-2,1.35h-1.37c.09-1.47,1.35-2.6,3.37-2.6s3.25,1.08,3.25,2.77v5.88h-1.35V53.12h0a3.11,3.11,0,0,1-2.73,1.61A2.55,2.55,0,0,1,293.5,52.18Zm5.52-.83v-.7l-2.28.14c-1.14.08-1.8.58-1.8,1.39s.68,1.34,1.71,1.34A2.24,2.24,0,0,0,299,51.35Z"/><path class="cls-6" d="M303,46.07h1.34v1.4h0a2.07,2.07,0,0,1,2.06-1.54,5,5,0,0,1,.57,0v1.39a2.91,2.91,0,0,0-.76-.08,1.8,1.8,0,0,0-1.82,2v5.3H303Z"/><path class="cls-6" d="M310.78,44v2h1.65v1.17h-1.65V52.3c0,.78.33,1.13,1.05,1.13.17,0,.49,0,.59,0v1.19a5,5,0,0,1-.9.07c-1.56,0-2.17-.64-2.17-2.28V47.24h-1.26V46.07h1.26V44Z"/><path class="cls-6" d="M325.57,51.2h-4.7l-1.18,3.38h-1.55l4.35-11.8H324l4.35,11.8h-1.55ZM321.3,50h3.83l-1.89-5.38h-.05Z"/><path class="cls-6" d="M336.91,54.58h-1.35V53.2h0a3,3,0,0,1-5.64-1.6V46.07h1.42v5.27c0,1.38.65,2.13,2,2.13a2.16,2.16,0,0,0,2.22-2.4v-5h1.42Z"/><path class="cls-6" d="M339.42,55.28h1.46a2.2,2.2,0,0,0,2.18,1.3,2.11,2.11,0,0,0,2.37-2.12V53.12h0a3.08,3.08,0,0,1-2.72,1.53c-2.17,0-3.59-1.71-3.59-4.36s1.42-4.36,3.62-4.36a3.1,3.1,0,0,1,2.77,1.58h0V46.07h1.36v8.34c0,2-1.5,3.38-3.84,3.38C341.13,57.79,339.65,56.73,339.42,55.28Zm6-5c0-1.87-1-3.11-2.47-3.11s-2.42,1.21-2.42,3.11.95,3.11,2.42,3.11S345.43,52.17,345.43,50.29Z"/><path class="cls-6" d="M356.43,54.58h-1.35V53.2h0a3,3,0,0,1-5.65-1.6V46.07h1.43v5.27c0,1.38.64,2.13,2,2.13a2.15,2.15,0,0,0,2.21-2.4v-5h1.43Z"/><path class="cls-6" d="M362,45.93c1.87,0,3.11,1.09,3.17,2.6H363.8A1.63,1.63,0,0,0,362,47.09c-1,0-1.72.51-1.72,1.26,0,.59.43,1,1.38,1.22l1.35.32c1.71.42,2.34,1.09,2.34,2.31,0,1.48-1.4,2.53-3.3,2.53s-3.24-1-3.4-2.6h1.42c.17,1,.83,1.44,2,1.44s1.86-.49,1.86-1.26-.33-1-1.3-1.2l-1.35-.33c-1.61-.39-2.38-1.13-2.38-2.36C358.87,47,360.15,45.93,362,45.93Z"/><path class="cls-6" d="M369.43,44v2h1.65v1.17h-1.65V52.3c0,.78.33,1.13,1.06,1.13.16,0,.49,0,.59,0v1.19a5.21,5.21,0,0,1-.9.07c-1.57,0-2.17-.64-2.17-2.28V47.24h-1.27V46.07H368V44Z"/><path class="cls-6" d="M76.79,68h1.42a2.15,2.15,0,0,0,2.38-2c0-1.17-.73-2-2.24-2a2.24,2.24,0,0,0-2.52,2H74.42c.16-2,1.72-3.29,3.93-3.29,2.36,0,3.72,1.36,3.72,3a2.83,2.83,0,0,1-2.5,2.78v0a2.85,2.85,0,0,1,2.89,2.89c0,2-1.78,3.44-4.1,3.44s-4.07-1.36-4.18-3.32H75.6c.09,1.25,1.19,2.05,2.76,2.05S81,72.73,81,71.5c0-1.46-1-2.27-2.69-2.27H76.79Z"/><path class="cls-6" d="M84.82,68.79c0-3.69,1.62-6.09,4.36-6.09s4.33,2.38,4.33,6.08-1.59,6.11-4.33,6.11S84.82,72.52,84.82,68.79Zm7.21,0c0-2.9-1-4.8-2.85-4.8s-2.88,1.92-2.88,4.79,1,4.83,2.88,4.83S92,71.74,92,68.79Z"/><path class="cls-6" d="M97.8,64.14v2h1.65v1.17H97.8v5.06c0,.77.32,1.12,1,1.12a4.69,4.69,0,0,0,.59,0v1.2a5.2,5.2,0,0,1-.9.06c-1.56,0-2.17-.63-2.17-2.27V67.36H95.11V66.19h1.26v-2Z"/><path class="cls-6" d="M101.78,62.9h1.42v4.65h0a2.83,2.83,0,0,1,2.7-1.51,2.87,2.87,0,0,1,3,3.16v5.5H107.5V69.46a1.89,1.89,0,0,0-2-2.16,2.22,2.22,0,0,0-2.29,2.44v5h-1.42Z"/><path class="cls-6" d="M111.75,73.85a.93.93,0,1,1,.93.93A.92.92,0,0,1,111.75,73.85Z"/><rect class="cls-7" x="395.96" width="1.4" height="93.69"/><path class="cls-8" d="M425.11,49.21c0-4,2.25-6.57,5.73-6.57a5.05,5.05,0,0,1,5.28,4.23h-1.6a3.65,3.65,0,0,0-3.68-2.76c-2.49,0-4.1,2-4.1,5.1s1.59,5.12,4.11,5.12a3.51,3.51,0,0,0,3.67-2.45h1.6c-.58,2.51-2.47,3.91-5.28,3.91C427.33,55.79,425.11,53.24,425.11,49.21Z"/><path class="cls-8" d="M438.62,42.85h1.54V55.58h-1.54Z"/><path class="cls-8" d="M442.57,51c0-2.92,1.71-4.74,4.25-4.74s4.25,1.82,4.25,4.74-1.71,4.75-4.25,4.75S442.57,53.91,442.57,51Zm6.94,0c0-2.16-1.06-3.39-2.69-3.39s-2.69,1.23-2.69,3.39,1.07,3.4,2.69,3.4S449.51,53.15,449.51,51Z"/><path class="cls-8" d="M456.61,46.25c2,0,3.35,1.18,3.41,2.8h-1.46a1.75,1.75,0,0,0-1.95-1.55c-1.12,0-1.86.56-1.86,1.36,0,.63.47,1.07,1.49,1.31l1.45.36c1.86.45,2.53,1.17,2.53,2.48,0,1.6-1.51,2.73-3.56,2.73s-3.49-1.09-3.67-2.8h1.54c.18,1,.89,1.55,2.13,1.55s2-.53,2-1.36c0-.66-.36-1-1.41-1.3l-1.45-.35c-1.73-.42-2.57-1.22-2.57-2.54C453.24,47.37,454.63,46.25,456.61,46.25Z"/><path class="cls-8" d="M470.19,53a3.63,3.63,0,0,1-3.82,2.79c-2.63,0-4.22-1.83-4.22-4.71s1.62-4.78,4.15-4.78,4,1.8,4,4.58v.58h-6.57v.09a2.62,2.62,0,0,0,2.68,2.91A2.2,2.2,0,0,0,468.68,53Zm-6.46-2.74h5a2.46,2.46,0,0,0-2.45-2.63A2.58,2.58,0,0,0,463.73,50.21Z"/></g></g></svg>