<svg xmlns="http://www.w3.org/2000/svg" viewBox="0 0 933.2762 20.886"><title>Asset 6</title><g id="Layer_2" data-name="Layer 2"><g id="below_the_fold" data-name="below the fold"><g id="brand_spacer" data-name="brand spacer"><line y1="10.0718" x2="423.0747" y2="10.0718" style="fill:none;stroke:#cbcbcb;stroke-miterlimit:10"/><line x1="510.2015" y1="10.0718" x2="933.2762" y2="10.0718" style="fill:none;stroke:#cbcbcb;stroke-miterlimit:10"/></g></g><g id="hero"><g style="opacity:0.24"><path d="M460.176.1426l11.8188,6.8289v6.9572L453.9174,3.4929,459.72.1426a.4373.4373,0,0,1,.4562,0" style="fill:#3ca8e4"/><path d="M471.9948,0l-6.0163,3.4786,6.0163,3.4786Z" style="fill:#2853c2"/><path d="M471.9948,0l5.8024,3.35a.4724.4724,0,0,1,.2281.3992V17.3931l-6.0305-3.4786Z" style="fill:#1a4198"/><path d="M478.0253,17.4073l-5.8024,3.35a.4629.4629,0,0,1-.47,0l-11.8187-6.8289V6.9572Z" style="fill:#2853c2"/><path d="M453.9174,3.4929V17.1365a.4386.4386,0,0,0,.2281.3991l5.8024,3.35V6.9572Z" style="fill:#60bdff"/><path d="M459.9479,20.886l6.0163-3.4787-6.0163-3.4786Z" style="fill:#3ca8e4"/></g></g></g></svg>