<svg xmlns="http://www.w3.org/2000/svg" xmlns:xlink="http://www.w3.org/1999/xlink" viewBox="0 0 799.1808 325.7099"><defs><linearGradient id="linear-gradient" x1="84.9107" y1="-101.1927" x2="714.2701" y2="426.9026" gradientUnits="userSpaceOnUse"><stop offset="0" stop-color="#404143"/><stop offset="0.0225" stop-color="#3d3f41"/><stop offset="0.1931" stop-color="#283036"/><stop offset="0.3862" stop-color="#1a252e"/><stop offset="0.6192" stop-color="#121f29"/><stop offset="1" stop-color="#0f1d28"/></linearGradient><linearGradient id="linear-gradient-2" x1="-451.0702" y1="741.1408" x2="-450.9558" y2="741.1408" gradientTransform="matrix(217.6, 0, 0, -255.4727, 98191.0991, 189403.9407)" gradientUnits="userSpaceOnUse"><stop offset="0" stop-color="#f50"/><stop offset="0.4099" stop-color="#f50"/><stop offset="0.582" stop-color="#ff2000"/><stop offset="1" stop-color="#ff2000"/></linearGradient><linearGradient id="linear-gradient-3" x1="-450.6959" y1="734.2781" x2="-450.5839" y2="734.2781" gradientTransform="matrix(180.608, 0, 0, -46.0337, 81440.0603, 33852.2274)" gradientUnits="userSpaceOnUse"><stop offset="0" stop-color="#ff452a"/><stop offset="1" stop-color="#ff2000"/></linearGradient></defs><title>Asset 2</title><g id="Layer_2" data-name="Layer 2"><g id="Layer_1-2" data-name="Layer 1"><rect width="799.1808" height="325.7099" style="fill:url(#linear-gradient)"/><rect x="399.5904" y="219.4328" width="363.9646" height="71.8109" style="fill:#424c53"/><rect x="31.0834" y="43.0866" width="39.1696" height="39.1696" style="fill:#0076ed"/><g id="starting-collection"><g id="Build-Icons"><g id="build-icons_Stable" data-name="build-icons/Stable"><g id="Logo"><path id="Head" d="M62.2447,55.0686l.6846-1.6825S62.058,52.4513,61,51.3919s-3.2987-.4362-3.2987-.4362L55.1494,48.057H46.187l-2.5518,2.8987s-2.2406-.6231-3.2986.4362-1.9295,1.9942-1.9295,1.9942l.6847,1.6825L38.22,57.5613s2.5627,9.7187,2.863,10.9055c.5913,2.3369.9958,3.24,2.6763,4.4245s4.73,3.24,5.2281,3.552,1.12.8424,1.68.8424,1.1826-.5308,1.6805-.8424,3.5476-2.368,5.2281-3.552,2.085-2.0876,2.6762-4.4245c.3-1.1868,2.863-10.9055,2.863-10.9055Z" style="fill:url(#linear-gradient-2)"/><path id="Face" d="M56.9855,52.7941s3.2822,3.9727,3.2822,4.8217-.4129,1.0732-.828,1.5146S57.2115,61.5,56.9786,61.747s-.7175.6229-.4324,1.2985a2.679,2.679,0,0,1,.238,2.4072c-.4678.8719-1.2691,1.4539-1.7826,1.3577a9.3889,9.3889,0,0,1-2.1628-1.0155c-.4434-.2882-1.8489-1.4488-1.8489-1.8928s1.4528-1.2413,1.7212-1.4225,1.4927-.8822,1.5178-1.1574.0155-.3559-.3458-1.036-1.0119-1.5875-.9036-2.1913,1.1576-.9176,1.9065-1.2008,2.1905-.8179,2.3705-.901.1337-.1624-.412-.2142a10.43,10.43,0,0,0-2.7918-.0627,9.2713,9.2713,0,0,0-1.9871.6483c-.0966.1572-.1818.1625-.0826.7046s.61,3.1437.66,3.6058.1465.7675-.3511.8814a12.4733,12.4733,0,0,1-1.6232.3117,12.4764,12.4764,0,0,1-1.6232-.3117c-.4976-.1139-.4007-.4194-.3511-.8814s.56-3.0636.66-3.6058.014-.5474-.0826-.7046a9.2713,9.2713,0,0,0-1.9871-.6483,10.43,10.43,0,0,0-2.7918.0627c-.5456.0518-.5922.131-.412.2142s1.6218.6179,2.3706.901,1.7982.5971,1.9065,1.2008-.5424,1.5113-.9037,2.1913-.3708.7608-.3458,1.036,1.2494.9763,1.5178,1.1574,1.7212.9785,1.7212,1.4225-1.4054,1.6046-1.8489,1.8928A9.385,9.385,0,0,1,46.3348,66.81c-.5134.0962-1.3148-.4858-1.7825-1.3577a2.6787,2.6787,0,0,1,.2379-2.4072c.2851-.6756-.2-1.0509-.4324-1.2985L41.8967,59.13c-.4151-.4414-.828-.6655-.828-1.5146s3.2823-4.8217,3.2823-4.8217,2.77.53,3.143.53a9.73,9.73,0,0,0,1.9295-.5609,3.2108,3.2108,0,0,1,2.4895,0,9.7313,9.7313,0,0,0,1.9294.5609C54.2159,53.3238,56.9855,52.7941,56.9855,52.7941ZM54.5249,67.9905c.2032.1273.0793.3674-.1058.4984s-2.6722,2.0594-2.9136,2.2725-.5961.5652-.8373.5652-.5959-.352-.8373-.5652-2.7285-2.1415-2.9136-2.2725-.3089-.3711-.1058-.4984.8389-.4487,1.716-.9032a9.9688,9.9688,0,0,1,2.1407-.8408,9.9709,9.9709,0,0,1,2.1408.8408C53.6861,67.5418,54.3217,67.8631,54.5249,67.9905Z" style="fill:#fff"/><g id="Top-Head"><path id="path-3" d="M57.7012,50.9557,55.1494,48.057H46.187l-2.5518,2.8987s-2.2406-.6231-3.2986.4362c0,0,2.9874-.27,4.0144,1.4022,0,0,2.77.53,3.143.53a9.73,9.73,0,0,0,1.9295-.5609,3.2108,3.2108,0,0,1,2.4895,0,9.7313,9.7313,0,0,0,1.9294.5609c.3735,0,3.1431-.53,3.1431-.53C58.0124,51.1219,61,51.3919,61,51.3919c-1.058-1.0593-3.2987-.4362-3.2987-.4362" style="fill:url(#linear-gradient-3)"/></g></g></g></g></g><path d="M102.47,76.7025V53.04h6.7324a7.3592,7.3592,0,0,1,4.8677,1.5015,4.8549,4.8549,0,0,1,1.7988,3.9107,5.7552,5.7552,0,0,1-1.0893,3.4985,5.8747,5.8747,0,0,1-3.003,2.1118v.0659a6.0233,6.0233,0,0,1,3.8282,1.8072,5.5573,5.5573,0,0,1,1.4355,3.9682,6.1871,6.1871,0,0,1-2.1782,4.9175,8.1075,8.1075,0,0,1-5.4946,1.8809Zm2.7725-21.1539v7.64H108.08a5.3894,5.3894,0,0,0,3.5805-1.0972,3.82,3.82,0,0,0,1.3037-3.0937q0-3.449-4.5376-3.4488Zm0,10.1314v8.5142h3.7617a5.6375,5.6375,0,0,0,3.7871-1.1548,3.9571,3.9571,0,0,0,1.3447-3.1685q0-4.1909-5.709-4.1909Z" style="fill:#fff"/><path d="M133.5737,76.7025h-2.706v-2.64h-.066a5.6649,5.6649,0,0,1-5.1977,3.0361,5.5533,5.5533,0,0,1-3.9517-1.3364,4.6311,4.6311,0,0,1-1.4277-3.5478q0-4.736,5.5776-5.5113l5.0655-.7094q0-4.3066-3.4815-4.3067a8.3165,8.3165,0,0,0-5.5112,2.0791V60.994a10.4679,10.4679,0,0,1,5.7422-1.5845q5.9568,0,5.9565,6.3032Zm-2.706-8.5474-4.0757.561a6.6209,6.6209,0,0,0-2.8379.9322,2.6888,2.6888,0,0,0-.957,2.3681,2.5768,2.5768,0,0,0,.8828,2.021,3.4079,3.4079,0,0,0,2.351.7842,4.3444,4.3444,0,0,0,3.3252-1.4111,5.04,5.04,0,0,0,1.3116-3.5723Z" style="fill:#fff"/><path d="M147.4834,62.5447A3.3091,3.3091,0,0,0,145.4375,62a3.4537,3.4537,0,0,0-2.896,1.6338,7.5523,7.5523,0,0,0-1.1631,4.4551v8.6133h-2.7061V59.8055h2.7061v3.4819h.0659a5.8991,5.8991,0,0,1,1.7656-2.78,4.026,4.026,0,0,1,2.6568-.9985,4.4216,4.4216,0,0,1,1.6167.231Z" style="fill:#fff"/><path d="M159.2324,62.5447A3.3091,3.3091,0,0,0,157.1865,62a3.4537,3.4537,0,0,0-2.896,1.6338,7.5523,7.5523,0,0,0-1.1631,4.4551v8.6133h-2.706V59.8055h2.706v3.4819h.0659a5.8993,5.8993,0,0,1,1.7657-2.78,4.0257,4.0257,0,0,1,2.6567-.9985,4.4216,4.4216,0,0,1,1.6167.231Z" style="fill:#fff"/><path d="M168.7861,77.0984a7.8372,7.8372,0,0,1-5.9814-2.3676,8.77,8.77,0,0,1-2.2359-6.2788,9.1367,9.1367,0,0,1,2.3267-6.65,8.3653,8.3653,0,0,1,6.2866-2.3926,7.581,7.581,0,0,1,5.8994,2.3266,9.2288,9.2288,0,0,1,2.12,6.4522,9.0768,9.0768,0,0,1-2.2851,6.4761A8.0079,8.0079,0,0,1,168.7861,77.0984Zm.1983-15.4116a5.1457,5.1457,0,0,0-4.125,1.774,7.28,7.28,0,0,0-1.5181,4.892,6.8892,6.8892,0,0,0,1.5342,4.7359,5.2153,5.2153,0,0,0,4.1089,1.7329,4.9472,4.9472,0,0,0,4.0341-1.7,7.3726,7.3726,0,0,0,1.4112-4.835,7.5011,7.5011,0,0,0-1.4112-4.8843A4.926,4.926,0,0,0,168.9844,61.6868Z" style="fill:#fff"/><path d="M195.55,76.7025h-2.7061V67.0662q0-5.38-3.9272-5.3794a4.2592,4.2592,0,0,0-3.3579,1.5264,5.6561,5.6561,0,0,0-1.3282,3.853v9.6363h-2.706V59.8055h2.706v2.8052h.066a6.0986,6.0986,0,0,1,5.5444-3.2012A5.1708,5.1708,0,0,1,194.082,61.2a7.9759,7.9759,0,0,1,1.4683,5.1729Z" style="fill:#fff"/><path d="M203.9824,52.6443l-2.31,7.3594h-1.9472l1.8315-7.3594Z" style="fill:#fff"/><path d="M205.4346,76.0921V73.1878a8.0074,8.0074,0,0,0,4.8676,1.6338q3.564,0,3.564-2.3765a2.0647,2.0647,0,0,0-.3052-1.1465,3.0465,3.0465,0,0,0-.8252-.8335,6.3732,6.3732,0,0,0-1.2212-.6518q-.701-.2886-1.51-.6021a19.4217,19.4217,0,0,1-1.9717-.8994,5.9408,5.9408,0,0,1-1.419-1.0229,3.7958,3.7958,0,0,1-.8579-1.2954,4.5754,4.5754,0,0,1-.289-1.7,4.0382,4.0382,0,0,1,.5444-2.1036,4.8313,4.8313,0,0,1,1.4521-1.5346,6.781,6.781,0,0,1,2.0708-.9326,9.2115,9.2115,0,0,1,2.4009-.3135,9.6965,9.6965,0,0,1,3.9273.7593V62.908a7.6544,7.6544,0,0,0-4.29-1.2212,5,5,0,0,0-1.37.1734,3.3443,3.3443,0,0,0-1.0478.4868,2.2548,2.2548,0,0,0-.6768.75,1.9812,1.9812,0,0,0-.2393.9653,2.3185,2.3185,0,0,0,.2393,1.1055,2.4334,2.4334,0,0,0,.7017.792,5.3221,5.3221,0,0,0,1.122.6274q.6593.2805,1.5015.61a20.8847,20.8847,0,0,1,2.0132.8828,6.931,6.931,0,0,1,1.518,1.0229,3.9981,3.9981,0,0,1,.9654,1.312,4.2364,4.2364,0,0,1,.3379,1.7657,4.1592,4.1592,0,0,1-.5528,2.1777,4.7372,4.7372,0,0,1-1.4765,1.5347,6.7686,6.7686,0,0,1-2.1289.9077,10.524,10.524,0,0,1-2.5245.2968A9.5856,9.5856,0,0,1,205.4346,76.0921Z" style="fill:#fff"/><path d="M116.39,103.3758h-6.8022v21.6709h-2.76V103.3758h-6.7856v-2.5693H116.39Z" style="fill:#808486"/><path d="M133.6909,125.0467h-2.6943v-9.9732q0-5.41-3.9107-5.4091a4.2132,4.2132,0,0,0-3.3188,1.5634,5.9306,5.9306,0,0,0-1.3477,4.0147v9.8042h-2.6943V99.42h2.6943v11.1905h.0659a6.09,6.09,0,0,1,5.52-3.2793q5.6851,0,5.6851,7.0488Z" style="fill:#808486"/><path d="M152.2905,117.0848H140.4111a6.5855,6.5855,0,0,0,1.5117,4.4629,5.1333,5.1333,0,0,0,3.9761,1.5717,8.1255,8.1255,0,0,0,5.2251-1.9267v2.603a9.5653,9.5653,0,0,1-5.8657,1.6568,7.014,7.014,0,0,1-5.603-2.3584,9.8334,9.8334,0,0,1-2.0376-6.6348,9.6335,9.6335,0,0,1,2.2265-6.584,7.0528,7.0528,0,0,1,5.5288-2.5439,6.2447,6.2447,0,0,1,5.11,2.1977,9.34,9.34,0,0,1,1.8076,6.1021Zm-2.76-2.35a5.7516,5.7516,0,0,0-1.126-3.7359,3.7867,3.7867,0,0,0-3.0806-1.3349,4.2949,4.2949,0,0,0-3.2368,1.4028,6.4482,6.4482,0,0,0-1.6431,3.668Z" style="fill:#808486"/><path d="M166.9629,103.3421a1.68,1.68,0,0,1-1.232-.5073,1.7353,1.7353,0,0,1-.5092-1.2847,1.7644,1.7644,0,0,1,.5092-1.293,1.6676,1.6676,0,0,1,1.232-.5156,1.7155,1.7155,0,0,1,1.2573.5156,1.8427,1.8427,0,0,1,0,2.5611A1.7022,1.7022,0,0,1,166.9629,103.3421Zm1.3144,21.7046H165.583v-17.31h2.6943Z" style="fill:#808486"/><path d="M187.6982,125.0467h-2.6943v-9.8721q0-5.51-3.9107-5.51a4.193,4.193,0,0,0-3.3437,1.5634,5.9,5.9,0,0,0-1.3228,3.9468v9.8721h-2.6943v-17.31h2.6943v2.8736h.066a6.044,6.044,0,0,1,5.52-3.2793,5.0829,5.0829,0,0,1,4.2226,1.8339,8.3372,8.3372,0,0,1,1.4624,5.2994Z" style="fill:#808486"/><path d="M206.0019,107.7371l-6.7036,17.31h-2.6455l-6.375-17.31h2.9575l4.272,12.5767a11.5655,11.5655,0,0,1,.5913,2.417h.0659a11.6841,11.6841,0,0,1,.5259-2.35l4.4692-12.6441Z" style="fill:#808486"/><path d="M222.2192,117.0848H210.34a6.5855,6.5855,0,0,0,1.5117,4.4629,5.1333,5.1333,0,0,0,3.9761,1.5717,8.1255,8.1255,0,0,0,5.2251-1.9267v2.603a9.5653,9.5653,0,0,1-5.8657,1.6568,7.0141,7.0141,0,0,1-5.603-2.3584,9.8334,9.8334,0,0,1-2.0376-6.6348,9.634,9.634,0,0,1,2.2265-6.584,7.0528,7.0528,0,0,1,5.5288-2.5439,6.2447,6.2447,0,0,1,5.11,2.1977,9.34,9.34,0,0,1,1.8076,6.1021Zm-2.76-2.35a5.7516,5.7516,0,0,0-1.126-3.7359,3.7867,3.7867,0,0,0-3.0806-1.3349,4.2949,4.2949,0,0,0-3.2368,1.4028,6.4482,6.4482,0,0,0-1.6431,3.668Z" style="fill:#808486"/><path d="M240.26,125.0467h-2.6943v-9.8721q0-5.51-3.9106-5.51a4.1932,4.1932,0,0,0-3.3438,1.5634,5.9,5.9,0,0,0-1.3227,3.9468v9.8721h-2.6944v-17.31h2.6944v2.8736h.0659a6.044,6.044,0,0,1,5.52-3.2793,5.0829,5.0829,0,0,1,4.2226,1.8339,8.3372,8.3372,0,0,1,1.4624,5.2994Z" style="fill:#808486"/><path d="M253.1416,124.8777a5.0791,5.0791,0,0,1-2.5142.5411q-4.42,0-4.42-5.0713V110.1038h-2.8916v-2.3667h2.8916V103.511l2.6948-.896v5.1221h4.2393v2.3667h-4.2393v9.7534a4.13,4.13,0,0,0,.5752,2.4849,2.2611,2.2611,0,0,0,1.9058.7437,2.78,2.78,0,0,0,1.7583-.5748Z" style="fill:#808486"/><path d="M263.5093,125.4525a7.6912,7.6912,0,0,1-5.9561-2.4258,9.14,9.14,0,0,1-2.2266-6.4322,9.523,9.523,0,0,1,2.3169-6.812,8.2047,8.2047,0,0,1,6.26-2.4511,7.4382,7.4382,0,0,1,5.8735,2.3833,9.6254,9.6254,0,0,1,2.1114,6.61,9.4617,9.4617,0,0,1-2.2754,6.6348A7.8605,7.8605,0,0,1,263.5093,125.4525Zm.1972-15.7881a5.0613,5.0613,0,0,0-4.1079,1.8169,7.6079,7.6079,0,0,0-1.5112,5.0122,7.1894,7.1894,0,0,0,1.5278,4.851,5.1245,5.1245,0,0,0,4.0913,1.7749,4.8629,4.8629,0,0,0,4.0171-1.7407,7.708,7.708,0,0,0,1.4048-4.9531,7.8419,7.8419,0,0,0-1.4048-5.0034A4.8429,4.8429,0,0,0,263.7065,109.6644Z" style="fill:#808486"/><path d="M284.9673,110.5433a3.2269,3.2269,0,0,0-2.0376-.5581,3.4175,3.4175,0,0,0-2.8833,1.6738,7.9021,7.9021,0,0,0-1.1587,4.564v8.8237h-2.6944v-17.31h2.6944v3.5669h.0659a6.0635,6.0635,0,0,1,1.7583-2.8486,3.943,3.943,0,0,1,2.645-1.0225,4.2886,4.2886,0,0,1,1.61.2368Z" style="fill:#808486"/><path d="M304.1421,125.4525a7.6913,7.6913,0,0,1-5.9561-2.4258,9.14,9.14,0,0,1-2.2265-6.4322,9.5229,9.5229,0,0,1,2.3168-6.812,8.2047,8.2047,0,0,1,6.26-2.4511,7.4382,7.4382,0,0,1,5.8735,2.3833,9.625,9.625,0,0,1,2.1114,6.61,9.4617,9.4617,0,0,1-2.2754,6.6348A7.8605,7.8605,0,0,1,304.1421,125.4525Zm.1972-15.7881a5.0613,5.0613,0,0,0-4.1079,1.8169,7.6079,7.6079,0,0,0-1.5112,5.0122,7.1894,7.1894,0,0,0,1.5278,4.851,5.1246,5.1246,0,0,0,4.0913,1.7749,4.8629,4.8629,0,0,0,4.0171-1.7407,7.708,7.708,0,0,0,1.4048-4.9531,7.8419,7.8419,0,0,0-1.4048-5.0034A4.8429,4.8429,0,0,0,304.3393,109.6644Z" style="fill:#808486"/><path d="M324.5322,101.8548a3.5067,3.5067,0,0,0-1.791-.4565q-2.8264,0-2.8262,3.6679v2.6709h3.9434v2.3667H319.915v14.9429h-2.6782V110.1038h-2.8755v-2.3667h2.8755V104.931a5.9267,5.9267,0,0,1,1.5283-4.3018,5.0841,5.0841,0,0,1,3.8115-1.5806,5.1437,5.1437,0,0,1,1.9556.3042Z" style="fill:#808486"/><path d="M343.7724,124.8777a5.0784,5.0784,0,0,1-2.5141.5411q-4.42,0-4.42-5.0713V110.1038h-2.8916v-2.3667h2.8916V103.511l2.6948-.896v5.1221h4.2392v2.3667h-4.2392v9.7534a4.13,4.13,0,0,0,.5752,2.4849,2.2608,2.2608,0,0,0,1.9057.7437,2.78,2.78,0,0,0,1.7583-.5748Z" style="fill:#808486"/><path d="M361.3364,125.0467h-2.6943v-9.9732q0-5.41-3.9107-5.4091a4.2132,4.2132,0,0,0-3.3188,1.5634,5.9306,5.9306,0,0,0-1.3477,4.0147v9.8042h-2.6943V99.42h2.6943v11.1905h.0659a6.0906,6.0906,0,0,1,5.52-3.2793q5.6852,0,5.6851,7.0488Z" style="fill:#808486"/><path d="M379.936,117.0848H368.0566a6.5855,6.5855,0,0,0,1.5117,4.4629,5.1333,5.1333,0,0,0,3.9761,1.5717,8.1255,8.1255,0,0,0,5.2251-1.9267v2.603a9.5653,9.5653,0,0,1-5.8657,1.6568,7.014,7.014,0,0,1-5.603-2.3584,9.8334,9.8334,0,0,1-2.0376-6.6348,9.634,9.634,0,0,1,2.2265-6.584,7.0528,7.0528,0,0,1,5.5288-2.5439,6.2447,6.2447,0,0,1,5.11,2.1977,9.34,9.34,0,0,1,1.8076,6.1021Zm-2.76-2.35a5.7516,5.7516,0,0,0-1.126-3.7359,3.7867,3.7867,0,0,0-3.0806-1.3349,4.2949,4.2949,0,0,0-3.2368,1.4028,6.4482,6.4482,0,0,0-1.6431,3.668Z" style="fill:#808486"/><path d="M407.49,118.6063h-3.0234v6.44h-2.6616v-6.44H390.7309v-1.8086l10.4829-15.9912h3.253v15.5517H407.49Zm-5.685-2.2481v-10.48q0-1.1154.0659-2.5019h-.0659a17.3956,17.3956,0,0,1-.9039,1.8594l-7.2456,11.123Z" style="fill:#808486"/><path d="M417.48,125.4525a6.1444,6.1444,0,0,1-5.4634-3.0933q-1.9636-3.0937-1.9634-8.9424,0-6.4233,2.0454-9.72a6.55,6.55,0,0,1,5.9068-3.2964q7.3938,0,7.394,12.4243,0,6.1531-2.0869,9.39A6.5737,6.5737,0,0,1,417.48,125.4525Zm.3779-22.7022q-5.0449,0-5.0444,10.5313,0,9.8378,4.9458,9.8378,4.8793,0,4.88-10.0068Q422.6391,102.751,417.8579,102.75Z" style="fill:#808486"/><path d="M442.9966,125.0467H429.6714v-2.4341h5.3237v-18.831l-5.4551,1.6733v-2.6367l8.1494-2.5528v22.3472h5.3072Z" style="fill:#808486"/><path d="M454.7114,130.5574h-2.3989A21.9826,21.9826,0,0,1,447.2192,115.8a22.8239,22.8239,0,0,1,5.0933-14.9936h2.4321a23.1865,23.1865,0,0,0-5.1592,14.96A22.7808,22.7808,0,0,0,454.7114,130.5574Z" style="fill:#808486"/><path d="M471.7666,125.0467h-3.7788L460.561,116.73h-.0659v8.3169h-2.6943V99.42h2.6943v16.2447h.0659l7.065-7.9278h3.5327l-7.8042,8.3506Z" style="fill:#808486"/><path d="M474.5923,130.5574h-2.3985a22.7808,22.7808,0,0,0,5.126-14.791,23.1887,23.1887,0,0,0-5.1592-14.96h2.4317A22.7287,22.7287,0,0,1,479.7187,115.8,21.8927,21.8927,0,0,1,474.5923,130.5574Z" style="fill:#808486"/><path d="M501.7031,124.8777a5.0785,5.0785,0,0,1-2.5142.5411q-4.42,0-4.42-5.0713V110.1038h-2.8916v-2.3667h2.8916V103.511l2.6948-.896v5.1221h4.2393v2.3667h-4.2393v9.7534a4.1307,4.1307,0,0,0,.5752,2.4849,2.2611,2.2611,0,0,0,1.9058.7437,2.78,2.78,0,0,0,1.7583-.5748Z" style="fill:#808486"/><path d="M519.2671,125.0467h-2.6944v-9.9732q0-5.41-3.9111-5.4091a4.2131,4.2131,0,0,0-3.3184,1.5634,5.9311,5.9311,0,0,0-1.3476,4.0147v9.8042h-2.6944V99.42h2.6944v11.1905h.0664a6.0889,6.0889,0,0,1,5.52-3.2793q5.6836,0,5.6846,7.0488Z" style="fill:#808486"/><path d="M525.7241,103.3421a1.6828,1.6828,0,0,1-1.2324-.5073,1.7384,1.7384,0,0,1-.5088-1.2847,1.7677,1.7677,0,0,1,.5088-1.293,1.67,1.67,0,0,1,1.2324-.5156,1.7134,1.7134,0,0,1,1.2568.5156,1.8427,1.8427,0,0,1,0,2.5611A1.7,1.7,0,0,1,525.7241,103.3421Zm1.3145,21.7046h-2.6944v-17.31h2.6944Z" style="fill:#808486"/><path d="M546.46,125.0467h-2.6944v-9.8721q0-5.51-3.9111-5.51a4.1905,4.1905,0,0,0-3.3428,1.5634,5.9,5.9,0,0,0-1.3232,3.9468v9.8721h-2.6944v-17.31h2.6944v2.8736h.0664a6.0435,6.0435,0,0,1,5.52-3.2793,5.084,5.084,0,0,1,4.2226,1.8339,8.34,8.34,0,0,1,1.462,5.2994Z" style="fill:#808486"/><path d="M565.5024,125.0467h-3.7793l-7.4258-8.3169h-.0664v8.3169h-2.6943V99.42h2.6943v16.2447h.0664l7.0645-7.9278h3.5332l-7.8047,8.3506Z" style="fill:#808486"/><path d="M567.2446,124.4212v-2.9751a7.8273,7.8273,0,0,0,4.8467,1.6733q3.5493,0,3.5488-2.434a2.1622,2.1622,0,0,0-.3037-1.1748,3.0874,3.0874,0,0,0-.8213-.8536,6.33,6.33,0,0,0-1.2158-.6674q-.6987-.296-1.5039-.6172a18.973,18.973,0,0,1-1.9629-.9214,5.9273,5.9273,0,0,1-1.4131-1.0479,3.9027,3.9027,0,0,1-.8545-1.3271,4.7994,4.7994,0,0,1-.2881-1.7412,4.2319,4.2319,0,0,1,.543-2.1553,4.8886,4.8886,0,0,1,1.4453-1.5718,6.6572,6.6572,0,0,1,2.0625-.9551,8.9213,8.9213,0,0,1,2.3906-.3212,9.4172,9.4172,0,0,1,3.91.7778v2.8057a7.4694,7.4694,0,0,0-4.2715-1.2505,4.87,4.87,0,0,0-1.3642.1772,3.2961,3.2961,0,0,0-1.043.4985,2.2711,2.2711,0,0,0-.6738.77,2.0663,2.0663,0,0,0-.2383.9887,2.4233,2.4233,0,0,0,.2383,1.1324,2.4686,2.4686,0,0,0,.6982.8115,5.2716,5.2716,0,0,0,1.1172.6421q.6577.2879,1.4951.6255a20.6983,20.6983,0,0,1,2.0049.9043,6.9034,6.9034,0,0,1,1.5117,1.0483,4.0951,4.0951,0,0,1,.9609,1.3438,4.4416,4.4416,0,0,1,.337,1.8086,4.3572,4.3572,0,0,1-.5508,2.2314,4.7987,4.7987,0,0,1-1.4707,1.5723,6.64,6.64,0,0,1-2.1192.93,10.2,10.2,0,0,1-2.5136.3042A9.3221,9.3221,0,0,1,567.2446,124.4212Z" style="fill:#808486"/><path d="M593.1391,103.3421a1.6829,1.6829,0,0,1-1.2324-.5073,1.7388,1.7388,0,0,1-.5088-1.2847,1.7681,1.7681,0,0,1,.5088-1.293,1.67,1.67,0,0,1,1.2324-.5156,1.7138,1.7138,0,0,1,1.2569.5156,1.8427,1.8427,0,0,1,0,2.5611A1.7006,1.7006,0,0,1,593.1391,103.3421Zm1.3145,21.7046h-2.6943v-17.31h2.6943Z" style="fill:#808486"/><path d="M607.7134,124.8777a5.0783,5.0783,0,0,1-2.5137.5411q-4.421,0-4.42-5.0713V110.1038h-2.8926v-2.3667H600.78V103.511l2.6943-.896v5.1221h4.2393v2.3667h-4.2393v9.7534a4.13,4.13,0,0,0,.5752,2.4849,2.2608,2.2608,0,0,0,1.9062.7437,2.78,2.78,0,0,0,1.7579-.5748Z" style="fill:#808486"/><path d="M116.061,166.59h-2.6943v-9.9732q0-5.41-3.9107-5.4092a4.213,4.213,0,0,0-3.3188,1.5635,5.9306,5.9306,0,0,0-1.3477,4.0147V166.59h-2.6943V140.9632H104.79v11.19h.0659a6.0908,6.0908,0,0,1,5.5206-3.2793q5.685,0,5.685,7.0489Z" style="fill:#808486"/><path d="M133.1816,166.59h-2.6943v-2.7046h-.0659a5.6176,5.6176,0,0,1-5.1758,3.11,5.437,5.437,0,0,1-3.9351-1.3691,4.8154,4.8154,0,0,1-1.4214-3.6343q0-4.8516,5.5538-5.646l5.0444-.727q0-4.4122-3.4668-4.4117a8.15,8.15,0,0,0-5.4883,2.13v-2.84a10.2088,10.2088,0,0,1,5.7183-1.6231q5.9311,0,5.9311,6.4575Zm-2.6943-8.7564-4.0586.5747a6.4769,6.4769,0,0,0-2.8262.9551,2.7918,2.7918,0,0,0-.9526,2.4258,2.6772,2.6772,0,0,0,.8789,2.0708,3.3371,3.3371,0,0,0,2.3413.8027,4.2661,4.2661,0,0,0,3.3105-1.4453,5.2492,5.2492,0,0,0,1.3067-3.66Z" style="fill:#808486"/><path d="M137.24,165.9642v-2.9751a7.8263,7.8263,0,0,0,4.8467,1.6733q3.5493,0,3.5493-2.4341a2.1594,2.1594,0,0,0-.3042-1.1748,3.08,3.08,0,0,0-.8213-.8535,6.3059,6.3059,0,0,0-1.2158-.6675q-.6987-.2958-1.5034-.6172a19.096,19.096,0,0,1-1.9639-.9213,5.9281,5.9281,0,0,1-1.4126-1.0479,3.9047,3.9047,0,0,1-.8545-1.3271,4.8106,4.8106,0,0,1-.2876-1.7413,4.2313,4.2313,0,0,1,.542-2.1552,4.8973,4.8973,0,0,1,1.4463-1.5718,6.6469,6.6469,0,0,1,2.062-.9551,8.912,8.912,0,0,1,2.3906-.3213,9.4139,9.4139,0,0,1,3.91.7779v2.8056a7.4676,7.4676,0,0,0-4.272-1.25,4.8659,4.8659,0,0,0-1.3637.1773,3.2918,3.2918,0,0,0-1.043.4985,2.2816,2.2816,0,0,0-.6738.7695,2.0727,2.0727,0,0,0-.2383.9888,2.4291,2.4291,0,0,0,.2383,1.1323,2.4758,2.4758,0,0,0,.6982.8116,5.2885,5.2885,0,0,0,1.1172.6421q.657.2877,1.4951.6254a20.7468,20.7468,0,0,1,2.0049.9043,6.8914,6.8914,0,0,1,1.5112,1.0484,4.0917,4.0917,0,0,1,.9615,1.3437,4.444,4.444,0,0,1,.3369,1.8086,4.3621,4.3621,0,0,1-.55,2.2315,4.7994,4.7994,0,0,1-1.4707,1.5722,6.6494,6.6494,0,0,1-2.12.93,10.1948,10.1948,0,0,1-2.5136.3042A9.3234,9.3234,0,0,1,137.24,165.9642Z" style="fill:#808486"/><path d="M176.1147,165.2034q0,9.534-8.8725,9.5337a11.6324,11.6324,0,0,1-5.4551-1.2168v-2.7724a10.9684,10.9684,0,0,0,5.4224,1.623q6.21,0,6.21-6.7954v-1.8931h-.0654a6.6959,6.6959,0,0,1-10.836,1.0054,9.398,9.398,0,0,1-1.9145-6.1953,10.9929,10.9929,0,0,1,2.062-7.0151,6.8106,6.8106,0,0,1,5.644-2.6031,5.4511,5.4511,0,0,1,5.0445,2.8062h.0654v-2.4h2.6948Zm-2.6948-6.44v-2.5522a5.03,5.03,0,0,0-1.3555-3.5333,4.4052,4.4052,0,0,0-3.3764-1.47,4.63,4.63,0,0,0-3.9107,1.8677,8.5126,8.5126,0,0,0-1.4126,5.2319A7.3,7.3,0,0,0,164.72,162.93a4.3313,4.3313,0,0,0,3.59,1.7324,4.6323,4.6323,0,0,0,3.689-1.6562A6.2875,6.2875,0,0,0,173.42,158.763Z" style="fill:#808486"/><path d="M188.602,166.9954a7.6911,7.6911,0,0,1-5.956-2.4258,9.1393,9.1393,0,0,1-2.2266-6.4321,9.523,9.523,0,0,1,2.3169-6.812,8.2046,8.2046,0,0,1,6.26-2.4512,7.4386,7.4386,0,0,1,5.8735,2.3833,9.6259,9.6259,0,0,1,2.1113,6.61,9.4619,9.4619,0,0,1-2.2754,6.6348A7.86,7.86,0,0,1,188.602,166.9954Zm.1973-15.7881a5.0615,5.0615,0,0,0-4.1079,1.8169,7.6082,7.6082,0,0,0-1.5112,5.0122,7.189,7.189,0,0,0,1.5278,4.8511,5.1243,5.1243,0,0,0,4.0913,1.7749,4.8632,4.8632,0,0,0,4.0171-1.7407,7.7082,7.7082,0,0,0,1.4048-4.9531,7.8424,7.8424,0,0,0-1.4048-5.0035A4.8432,4.8432,0,0,0,188.7993,151.2073Z" style="fill:#808486"/><path d="M215.2524,166.59h-2.6943v-9.8721q0-5.51-3.9107-5.51a4.1928,4.1928,0,0,0-3.3437,1.5635,5.9,5.9,0,0,0-1.3228,3.9468V166.59h-2.6943V149.28h2.6943v2.8735h.066a6.0442,6.0442,0,0,1,5.52-3.2793,5.0829,5.0829,0,0,1,4.2226,1.834,8.3371,8.3371,0,0,1,1.4624,5.2993Z" style="fill:#808486"/><path d="M233.852,158.6277H221.9726a6.5847,6.5847,0,0,0,1.5118,4.4629,5.1327,5.1327,0,0,0,3.976,1.5718,8.126,8.126,0,0,0,5.2251-1.9267v2.603a9.5653,9.5653,0,0,1-5.8657,1.6567,7.0138,7.0138,0,0,1-5.603-2.3584,9.8333,9.8333,0,0,1-2.0376-6.6347,9.634,9.634,0,0,1,2.2265-6.584,7.0529,7.0529,0,0,1,5.5289-2.544,6.2444,6.2444,0,0,1,5.11,2.1978,9.34,9.34,0,0,1,1.8076,6.102Zm-2.76-2.35a5.7512,5.7512,0,0,0-1.126-3.7358,3.7865,3.7865,0,0,0-3.0806-1.335,4.295,4.295,0,0,0-3.2368,1.4029,6.4481,6.4481,0,0,0-1.643,3.6679Z" style="fill:#808486"/><path d="M259.1875,166.59h-2.6944v-2.7046h-.0659a5.6174,5.6174,0,0,1-5.1758,3.11,5.4369,5.4369,0,0,1-3.935-1.3691,4.815,4.815,0,0,1-1.4214-3.6343q0-4.8516,5.5537-5.646l5.0444-.727q0-4.4122-3.4668-4.4117a8.15,8.15,0,0,0-5.4882,2.13v-2.84a10.2085,10.2085,0,0,1,5.7182-1.6231q5.9312,0,5.9312,6.4575Zm-2.6944-8.7564-4.0585.5747a6.476,6.476,0,0,0-2.8262.9551,2.7916,2.7916,0,0,0-.9527,2.4258,2.6772,2.6772,0,0,0,.8789,2.0708,3.3375,3.3375,0,0,0,2.3414.8027,4.2661,4.2661,0,0,0,3.31-1.4453,5.2491,5.2491,0,0,0,1.3066-3.66Z" style="fill:#808486"/><path d="M285.46,149.28l-5.0439,17.31H277.623l-3.4668-12.3907a8.2679,8.2679,0,0,1-.2627-1.6059h-.0659a7.7525,7.7525,0,0,1-.3452,1.5722L269.72,166.59h-2.6948l-5.0933-17.31h2.8257l3.4834,13.0161a8.0736,8.0736,0,0,1,.23,1.5552h.1313a7.5088,7.5088,0,0,1,.2959-1.5894l3.8775-12.9819h2.4648l3.4834,13.05a9.5779,9.5779,0,0,1,.2461,1.5552h.1318a7.3448,7.3448,0,0,1,.2793-1.5552l3.4175-13.05Z" style="fill:#808486"/><path d="M297.3559,152.0862a3.2275,3.2275,0,0,0-2.0376-.5581,3.4175,3.4175,0,0,0-2.8833,1.6739,7.9027,7.9027,0,0,0-1.1587,4.5639V166.59H288.582V149.28h2.6943v3.5669h.066a6.0635,6.0635,0,0,1,1.7583-2.8486,3.9428,3.9428,0,0,1,2.645-1.0225,4.2877,4.2877,0,0,1,1.61.2368Z" style="fill:#808486"/><path d="M315.0185,149.28l-7.7387,20.082q-2.07,5.3753-5.8164,5.375a5.9993,5.9993,0,0,1-1.7579-.22v-2.4849a4.8606,4.8606,0,0,0,1.5938.3047q2.0368,0,3.0561-2.5019l1.3472-3.2793L299.13,149.28h2.99l4.5513,13.32q.0819.2533.3452,1.3184h.0986q.082-.4057.3286-1.2847l4.7813-13.354Z" style="fill:#808486"/><path d="M561.9321,267.595a13.8824,13.8824,0,0,1-6.5351,1.3858,10.5384,10.5384,0,0,1-8.085-3.25,11.9936,11.9936,0,0,1-3.0361-8.5313,12.5731,12.5731,0,0,1,3.416-9.1748,11.59,11.59,0,0,1,8.6621-3.498,13.9062,13.9062,0,0,1,5.5781.9736v2.9541a11.3087,11.3087,0,0,0-5.61-1.4189,8.6061,8.6061,0,0,0-6.6084,2.7226,10.251,10.251,0,0,0-2.5332,7.2764,9.7555,9.7555,0,0,0,2.3681,6.8887A8.0538,8.0538,0,0,0,555.76,266.49a11.6619,11.6619,0,0,0,6.1719-1.584Z" style="fill:#fff"/><path d="M569.0932,268.5853h-2.706V243.57h2.706Z" style="fill:#fff"/><path d="M581.6333,268.9808a7.84,7.84,0,0,1-5.9815-2.3672,8.7742,8.7742,0,0,1-2.2353-6.2793,9.1365,9.1365,0,0,1,2.3262-6.6494,8.3662,8.3662,0,0,1,6.2871-2.3926,7.5814,7.5814,0,0,1,5.8994,2.3262,9.2292,9.2292,0,0,1,2.12,6.4521,9.0768,9.0768,0,0,1-2.2852,6.4766A8.0085,8.0085,0,0,1,581.6333,268.9808Zm.1982-15.4112a5.1457,5.1457,0,0,0-4.125,1.7735,7.282,7.282,0,0,0-1.5176,4.8926,6.8858,6.8858,0,0,0,1.5342,4.7353,5.2156,5.2156,0,0,0,4.1084,1.7334,4.9477,4.9477,0,0,0,4.0342-1.7,7.3694,7.3694,0,0,0,1.4111-4.835,7.4977,7.4977,0,0,0-1.4111-4.8837A4.926,4.926,0,0,0,581.8315,253.57Z" style="fill:#fff"/><path d="M593.3491,267.9749v-2.9043a8.0091,8.0091,0,0,0,4.8682,1.6338q3.5639,0,3.5634-2.3769a2.0654,2.0654,0,0,0-.3046-1.1465,3.0507,3.0507,0,0,0-.8252-.833,6.3938,6.3938,0,0,0-1.2217-.6524q-.7-.2886-1.51-.6015a19.5633,19.5633,0,0,1-1.9717-.9,5.9614,5.9614,0,0,1-1.4189-1.0234,3.7867,3.7867,0,0,1-.8574-1.2949,4.5677,4.5677,0,0,1-.2891-1.7,4.042,4.042,0,0,1,.5439-2.1035,4.8337,4.8337,0,0,1,1.4522-1.5342,6.7668,6.7668,0,0,1,2.0713-.9326,9.1865,9.1865,0,0,1,2.4-.3135,9.7,9.7,0,0,1,3.9277.7588V254.79a7.6577,7.6577,0,0,0-4.29-1.2207,5.0276,5.0276,0,0,0-1.37.1729,3.35,3.35,0,0,0-1.0479.4873,2.2651,2.2651,0,0,0-.6768.75,1.9841,1.9841,0,0,0-.2392.9658,2.3208,2.3208,0,0,0,.2392,1.1055,2.4443,2.4443,0,0,0,.7022.792,5.298,5.298,0,0,0,1.1221.6269q.6591.2813,1.5009.61a20.9545,20.9545,0,0,1,2.0137.8828,6.9,6.9,0,0,1,1.5176,1.0234,3.9916,3.9916,0,0,1,.9658,1.3116,4.2468,4.2468,0,0,1,.3379,1.7656,4.1636,4.1636,0,0,1-.5527,2.1777,4.7554,4.7554,0,0,1-1.4766,1.5352,6.7706,6.7706,0,0,1-2.1289.9072,10.4974,10.4974,0,0,1-2.5244.2969A9.59,9.59,0,0,1,593.3491,267.9749Z" style="fill:#fff"/><path d="M622.2915,260.8128h-11.93a6.3184,6.3184,0,0,0,1.5176,4.3564,5.231,5.231,0,0,0,3.9931,1.5352,8.302,8.302,0,0,0,5.2471-1.8818v2.541a9.804,9.804,0,0,1-5.8906,1.6172,7.1373,7.1373,0,0,1-5.626-2.3018,9.42,9.42,0,0,1-2.0469-6.4765,9.2354,9.2354,0,0,1,2.2364-6.4268,7.1687,7.1687,0,0,1,5.5527-2.4834,6.3523,6.3523,0,0,1,5.1318,2.1455,8.9412,8.9412,0,0,1,1.8145,5.9561ZM619.52,258.52a5.51,5.51,0,0,0-1.1309-3.6464,3.85,3.85,0,0,0-3.0937-1.3038,4.3719,4.3719,0,0,0-3.251,1.3692,6.2106,6.2106,0,0,0-1.6494,3.581Z" style="fill:#fff"/></g></g></svg>