<svg xmlns="http://www.w3.org/2000/svg" xmlns:xlink="http://www.w3.org/1999/xlink" viewBox="0 0 799.18 325.71"><defs><style>.cls-1{fill:url(#linear-gradient);}.cls-2{fill:#424c53;}.cls-3{fill:#0076ed;}.cls-4{fill:url(#linear-gradient-2);}.cls-5{fill:#fff;}.cls-6{fill:url(#linear-gradient-3);}.cls-7{fill:#808486;}</style><linearGradient id="linear-gradient" x1="84.91" y1="-101.19" x2="714.27" y2="426.9" gradientUnits="userSpaceOnUse"><stop offset="0" stop-color="#404143"/><stop offset="0.02" stop-color="#3d3f41"/><stop offset="0.19" stop-color="#283036"/><stop offset="0.39" stop-color="#1a252e"/><stop offset="0.62" stop-color="#121f29"/><stop offset="1" stop-color="#0f1d28"/></linearGradient><linearGradient id="linear-gradient-2" x1="-451.07" y1="380.38" x2="-450.96" y2="380.38" gradientTransform="matrix(217.6, 0, 0, -255.47, 98191.1, 97238.76)" gradientUnits="userSpaceOnUse"><stop offset="0" stop-color="#f50"/><stop offset="0.41" stop-color="#f50"/><stop offset="0.58" stop-color="#ff2000"/><stop offset="1" stop-color="#ff2000"/></linearGradient><linearGradient id="linear-gradient-3" x1="-450.7" y1="367.12" x2="-450.58" y2="367.12" gradientTransform="matrix(180.61, 0, 0, -46.03, 81440.06, 16950.36)" gradientUnits="userSpaceOnUse"><stop offset="0" stop-color="#ff452a"/><stop offset="1" stop-color="#ff2000"/></linearGradient></defs><title>Asset 1</title><g id="Layer_2" data-name="Layer 2"><g id="Layer_1-2" data-name="Layer 1"><rect class="cls-1" width="799.18" height="325.71"/><rect class="cls-2" x="399.59" y="219.43" width="363.96" height="71.81"/><rect class="cls-3" x="31.08" y="43.09" width="39.17" height="39.17"/><g id="starting-collection"><g id="Build-Icons"><g id="build-icons_Stable" data-name="build-icons/Stable"><g id="Logo"><path id="Head" class="cls-4" d="M62.24,55.07l.69-1.68s-.87-.94-1.93-2S57.7,51,57.7,51l-2.55-2.9h-9L43.64,51s-2.25-.63-3.3.43-1.93,2-1.93,2l.68,1.68-.87,2.49s2.56,9.72,2.86,10.91c.59,2.33,1,3.24,2.68,4.42s4.73,3.24,5.23,3.55,1.12.85,1.68.85,1.18-.54,1.68-.85,3.55-2.36,5.23-3.55,2.08-2.09,2.67-4.42c.3-1.19,2.87-10.91,2.87-10.91Z"/><path id="Face" class="cls-5" d="M57,52.79s3.28,4,3.28,4.83-.42,1.07-.83,1.51L57,61.75a1.09,1.09,0,0,0-.43,1.3,2.67,2.67,0,0,1,.23,2.4c-.46.87-1.26,1.46-1.78,1.36a9.47,9.47,0,0,1-2.16-1C52.4,65.51,51,64.35,51,63.9s1.45-1.24,1.72-1.42,1.49-.88,1.52-1.16,0-.35-.35-1-1-1.59-.9-2.2,1.16-.91,1.91-1.2,2.19-.81,2.37-.9.13-.16-.42-.21a10.27,10.27,0,0,0-2.79-.06,9.24,9.24,0,0,0-2,.64c-.1.16-.19.17-.09.71s.61,3.14.66,3.6.15.77-.35.89a13.1,13.1,0,0,1-1.62.31,12.76,12.76,0,0,1-1.62-.31c-.5-.12-.41-.42-.36-.89s.56-3.06.66-3.6,0-.55-.08-.71a9.59,9.59,0,0,0-2-.64,10.3,10.3,0,0,0-2.79.06c-.54,0-.59.13-.41.21s1.62.62,2.37.9,1.8.6,1.91,1.2-.55,1.52-.91,2.2-.37.76-.34,1,1.25,1,1.52,1.16,1.72,1,1.72,1.42-1.41,1.61-1.85,1.89a9.54,9.54,0,0,1-2.17,1c-.51.1-1.31-.49-1.78-1.36a2.67,2.67,0,0,1,.24-2.4,1.09,1.09,0,0,0-.43-1.3L41.9,59.13c-.42-.44-.83-.67-.83-1.51s3.28-4.83,3.28-4.83,2.77.53,3.14.53a9.43,9.43,0,0,0,1.93-.56,4.38,4.38,0,0,1,1.25-.25,4.29,4.29,0,0,1,1.24.25,9.79,9.79,0,0,0,1.93.56C54.22,53.32,57,52.79,57,52.79ZM54.52,68c.21.13.08.37-.1.5s-2.67,2.06-2.91,2.27-.6.57-.84.57-.6-.36-.84-.57-2.73-2.14-2.91-2.27-.31-.37-.11-.5.84-.45,1.72-.9a9.52,9.52,0,0,1,2.14-.84,9.71,9.71,0,0,1,2.14.84C53.69,67.54,54.32,67.86,54.52,68Z"/><g id="Top-Head"><path id="path-3" class="cls-6" d="M57.7,51l-2.55-2.9h-9L43.64,51s-2.25-.63-3.3.43c0,0,3-.27,4,1.4,0,0,2.77.53,3.14.53a9.43,9.43,0,0,0,1.93-.56,4.38,4.38,0,0,1,1.25-.25,4.29,4.29,0,0,1,1.24.25,9.79,9.79,0,0,0,1.93.56c.38,0,3.15-.53,3.15-.53,1-1.67,4-1.4,4-1.4-1.06-1.06-3.3-.43-3.3-.43"/></g></g></g></g></g><path class="cls-5" d="M107.55,53v2.38h-2.31V74.33h2.31V76.7h-7.39V74.33h2.31V55.42h-2.31V53Z"/><path class="cls-5" d="M125.12,76.7h-2.7V67.07q0-5.38-3.93-5.38a4.29,4.29,0,0,0-3.36,1.52,5.69,5.69,0,0,0-1.32,3.86V76.7H111.1V59.81h2.71v2.8h.06a6.12,6.12,0,0,1,5.55-3.2,5.19,5.19,0,0,1,4.24,1.79,8,8,0,0,1,1.46,5.17Z"/><path class="cls-5" d="M138.06,76.54a5.24,5.24,0,0,1-2.52.53q-4.44,0-4.44-4.95v-10h-2.91V59.81h2.91V55.68l2.7-.87v5h4.26v2.31H133.8v9.52a4,4,0,0,0,.58,2.42,2.31,2.31,0,0,0,1.92.73,2.85,2.85,0,0,0,1.76-.56Z"/><path class="cls-5" d="M155,68.93H143.06a6.36,6.36,0,0,0,1.52,4.36,5.24,5.24,0,0,0,4,1.53,8.31,8.31,0,0,0,5.25-1.88v2.54a9.81,9.81,0,0,1-5.89,1.62,7.17,7.17,0,0,1-5.63-2.3,9.46,9.46,0,0,1-2-6.48,9.25,9.25,0,0,1,2.23-6.43A7.18,7.18,0,0,1,148,59.41a6.39,6.39,0,0,1,5.14,2.14,9,9,0,0,1,1.81,6Zm-2.77-2.29A5.53,5.53,0,0,0,151.09,63a3.83,3.83,0,0,0-3.09-1.3,4.37,4.37,0,0,0-3.26,1.37,6.2,6.2,0,0,0-1.65,3.58Z"/><path class="cls-5" d="M161.79,76.7h-2.71v-25h2.71Z"/><path class="cls-5" d="M179.58,77.25a12.38,12.38,0,0,1-8.76-21.13,12.37,12.37,0,1,1,17.49,17.51A11.9,11.9,0,0,1,179.58,77.25Zm0-23.3a10.91,10.91,0,0,0-7.72,18.64,10.91,10.91,0,0,0,15.43-15.44A10.47,10.47,0,0,0,179.58,54Zm6,18.66h-2.67l-1.72-3.78c-.86-1.89-1.8-2.84-2.8-2.84h-1.45v6.62h-2.2V56.87h4.43A6.79,6.79,0,0,1,183.41,58a3.76,3.76,0,0,1,1.5,3.14,3.89,3.89,0,0,1-1,2.75,5.37,5.37,0,0,1-2.93,1.54v.06c.87.19,1.73,1.16,2.59,2.91Zm-8.64-13.86v5.38h2.36c2.16,0,3.25-.9,3.25-2.71a2.33,2.33,0,0,0-.88-2.06,4.88,4.88,0,0,0-2.77-.61Z"/><path class="cls-5" d="M224.66,75.09a15.86,15.86,0,0,1-7.92,2,10.84,10.84,0,0,1-8.2-3.27,12,12,0,0,1-3.12-8.65,12.31,12.31,0,0,1,3.47-9,11.85,11.85,0,0,1,8.8-3.53,14.93,14.93,0,0,1,6.49,1.26V57a12.45,12.45,0,0,0-6.8-1.82,8.53,8.53,0,0,0-6.52,2.74,10,10,0,0,0-2.54,7.1A10,10,0,0,0,210.68,72a8.27,8.27,0,0,0,6.4,2.57,9.91,9.91,0,0,0,4.81-1.11V66.87H216.7V64.36h8Z"/><path class="cls-5" d="M241.88,76.7h-2.7V74.06h-.07a5.65,5.65,0,0,1-5.2,3A5.56,5.56,0,0,1,230,75.76a4.63,4.63,0,0,1-1.42-3.55c0-3.15,1.85-5,5.57-5.51l5.07-.71q0-4.3-3.48-4.3a8.27,8.27,0,0,0-5.51,2.08V61a10.5,10.5,0,0,1,5.74-1.58q6,0,5.95,6.3Zm-2.7-8.54-4.08.56a6.52,6.52,0,0,0-2.84.93,2.7,2.7,0,0,0-.95,2.37,2.57,2.57,0,0,0,.88,2,3.42,3.42,0,0,0,2.35.78,4.37,4.37,0,0,0,3.33-1.41,5.05,5.05,0,0,0,1.31-3.57Z"/><path class="cls-5" d="M271,76.7h-2.71V67a7.31,7.31,0,0,0-.87-4.06,3.27,3.27,0,0,0-2.91-1.25,3.58,3.58,0,0,0-2.94,1.58,6.07,6.07,0,0,0-1.22,3.8V76.7h-2.7v-10c0-3.32-1.29-5-3.85-5a3.55,3.55,0,0,0-2.94,1.49,6.18,6.18,0,0,0-1.15,3.89V76.7H247V59.81h2.71v2.67h.07A5.71,5.71,0,0,1,255,59.41a4.9,4.9,0,0,1,4.79,3.5,6,6,0,0,1,5.61-3.5q5.58,0,5.58,6.88Z"/><path class="cls-5" d="M289.67,68.93H277.74a6.32,6.32,0,0,0,1.52,4.36,5.24,5.24,0,0,0,4,1.53,8.35,8.35,0,0,0,5.25-1.88v2.54a9.81,9.81,0,0,1-5.89,1.62A7.17,7.17,0,0,1,277,74.8a9.46,9.46,0,0,1-2-6.48,9.25,9.25,0,0,1,2.23-6.43,7.18,7.18,0,0,1,5.55-2.48,6.39,6.39,0,0,1,5.14,2.14,9,9,0,0,1,1.81,6Zm-2.77-2.29A5.53,5.53,0,0,0,285.77,63a3.86,3.86,0,0,0-3.1-1.3,4.35,4.35,0,0,0-3.25,1.37,6.2,6.2,0,0,0-1.65,3.58Z"/><path class="cls-5" d="M302.57,62.55a3.24,3.24,0,0,0-2-.55,3.48,3.48,0,0,0-2.9,1.63,7.61,7.61,0,0,0-1.16,4.46V76.7h-2.71V59.81h2.71v3.48h.07a5.83,5.83,0,0,1,1.76-2.78,4,4,0,0,1,2.66-1,4.47,4.47,0,0,1,1.61.23Z"/><path class="cls-5" d="M315.13,76.7V53h6.54q12.49,0,12.5,11.53a11.61,11.61,0,0,1-3.47,8.81,12.93,12.93,0,0,1-9.3,3.32Zm2.77-21.15V74.19h3.53a10,10,0,0,0,7.25-2.49q2.6-2.49,2.59-7.06,0-9.09-9.67-9.09Z"/><path class="cls-5" d="M350.56,76.7h-2.71V74.06h-.06a5.66,5.66,0,0,1-5.2,3,5.56,5.56,0,0,1-3.95-1.34,4.63,4.63,0,0,1-1.43-3.55q0-4.72,5.58-5.51l5.06-.71q0-4.3-3.48-4.3a8.31,8.31,0,0,0-5.51,2.08V61a10.5,10.5,0,0,1,5.74-1.58q6,0,6,6.3Zm-2.71-8.54-4.07.56a6.47,6.47,0,0,0-2.84.93A2.67,2.67,0,0,0,340,72a2.61,2.61,0,0,0,.88,2,3.45,3.45,0,0,0,2.36.78,4.33,4.33,0,0,0,3.32-1.41,5,5,0,0,0,1.31-3.57Z"/><path class="cls-5" d="M369.11,59.81l-7.78,19.6q-2.07,5.25-5.84,5.25a6.24,6.24,0,0,1-1.76-.22V82a5.17,5.17,0,0,0,1.6.29c1.36,0,2.38-.81,3.07-2.44l1.35-3.2-6.6-16.86h3l4.57,13c.06.16.17.59.35,1.29h.1q.07-.41.33-1.26l4.8-13Z"/><path class="cls-5" d="M371,76.09v-2.9a8,8,0,0,0,4.86,1.63q3.57,0,3.57-2.37a2,2,0,0,0-.31-1.15,3.26,3.26,0,0,0-.82-.84,7.32,7.32,0,0,0-1.22-.65l-1.51-.6a19.75,19.75,0,0,1-2-.9,5.82,5.82,0,0,1-1.42-1,3.74,3.74,0,0,1-.86-1.3,4.62,4.62,0,0,1-.29-1.7,4.05,4.05,0,0,1,.54-2.1A4.84,4.84,0,0,1,373,60.66a6.53,6.53,0,0,1,2.07-.94,9.08,9.08,0,0,1,2.4-.31,9.67,9.67,0,0,1,3.93.76v2.74a7.65,7.65,0,0,0-4.3-1.22,4.78,4.78,0,0,0-1.36.17,3.4,3.4,0,0,0-1.05.49,2.3,2.3,0,0,0-.68.75,2,2,0,0,0-.24,1,2.34,2.34,0,0,0,.24,1.11,2.37,2.37,0,0,0,.7.79,5.58,5.58,0,0,0,1.12.63c.44.18.94.39,1.51.61a21.53,21.53,0,0,1,2,.88,7,7,0,0,1,1.52,1,3.87,3.87,0,0,1,1,1.32,4.65,4.65,0,0,1-.21,3.94,4.6,4.6,0,0,1-1.48,1.53,6.72,6.72,0,0,1-2.13.91,10.35,10.35,0,0,1-2.52.3A9.57,9.57,0,0,1,371,76.09Z"/><path class="cls-7" d="M114.94,118.86H102.46V94.62h12v2.57h-9.2v8.06h8.51v2.55h-8.51v8.49h9.72Z"/><path class="cls-7" d="M121.88,116.36h-.07v10.46h-2.69V101.55h2.69v3h.07a6.33,6.33,0,0,1,5.81-3.45,6.09,6.09,0,0,1,5.08,2.33,9.78,9.78,0,0,1,1.82,6.23,10.93,10.93,0,0,1-2.05,7,6.76,6.76,0,0,1-5.62,2.61A5.6,5.6,0,0,1,121.88,116.36Zm-.07-7v2.42a5.19,5.19,0,0,0,1.36,3.64,4.74,4.74,0,0,0,7.28-.43,9.06,9.06,0,0,0,1.38-5.36,7.18,7.18,0,0,0-1.29-4.53,4.27,4.27,0,0,0-3.52-1.64,4.72,4.72,0,0,0-3.78,1.69A6.28,6.28,0,0,0,121.81,109.37Z"/><path class="cls-7" d="M140.28,97.15a1.68,1.68,0,0,1-1.23-.51,1.71,1.71,0,0,1-.51-1.28,1.75,1.75,0,0,1,.51-1.29,1.65,1.65,0,0,1,1.23-.52,1.71,1.71,0,0,1,1.26.52,1.86,1.86,0,0,1,0,2.56A1.71,1.71,0,0,1,140.28,97.15Zm1.31,21.71H138.9V101.55h2.69Z"/><path class="cls-7" d="M158.52,118.06a8.57,8.57,0,0,1-4.6,1.2,7.49,7.49,0,0,1-5.81-2.41,8.86,8.86,0,0,1-2.21-6.24,9.75,9.75,0,0,1,2.38-6.87,8.22,8.22,0,0,1,6.36-2.6,8.56,8.56,0,0,1,3.91.85v2.84a6.73,6.73,0,0,0-4-1.36,5.35,5.35,0,0,0-4.23,1.91,7.33,7.33,0,0,0-1.65,5,7,7,0,0,0,1.55,4.8,5.31,5.31,0,0,0,4.17,1.76,6.64,6.64,0,0,0,4.14-1.5Z"/><path class="cls-7" d="M186.17,118.86h-2.69v-2.94h-.07a6.68,6.68,0,0,1-10.85,1,9.7,9.7,0,0,1-1.9-6.33,10.58,10.58,0,0,1,2.1-6.88,6.86,6.86,0,0,1,5.61-2.59,5.36,5.36,0,0,1,5,2.81h.07V93.23h2.69ZM183.48,111v-2.55a5,5,0,0,0-1.35-3.55,4.47,4.47,0,0,0-3.42-1.46,4.61,4.61,0,0,0-3.88,1.86,8.35,8.35,0,0,0-1.41,5.14,7.45,7.45,0,0,0,1.36,4.73,4.38,4.38,0,0,0,3.64,1.73,4.56,4.56,0,0,0,3.65-1.67A6.35,6.35,0,0,0,183.48,111Z"/><path class="cls-7" d="M205.15,110.89H193.27a6.61,6.61,0,0,0,1.51,4.47,5.12,5.12,0,0,0,4,1.57A8.1,8.1,0,0,0,204,115v2.61a9.58,9.58,0,0,1-5.86,1.65,7,7,0,0,1-5.61-2.36,9.81,9.81,0,0,1-2-6.63,9.63,9.63,0,0,1,2.22-6.58,7.06,7.06,0,0,1,5.53-2.55,6.26,6.26,0,0,1,5.11,2.2,9.3,9.3,0,0,1,1.81,6.1Zm-2.76-2.34a5.75,5.75,0,0,0-1.13-3.74,3.78,3.78,0,0,0-3.08-1.34,4.3,4.3,0,0,0-3.24,1.41,6.49,6.49,0,0,0-1.64,3.67Z"/><path class="cls-7" d="M221.27,118.86h-2.7v-2.71h-.06a5.62,5.62,0,0,1-5.18,3.11,5.42,5.42,0,0,1-3.94-1.37,4.83,4.83,0,0,1-1.42-3.63c0-3.23,1.85-5.12,5.56-5.65l5-.72c0-2.94-1.15-4.42-3.47-4.42a8.14,8.14,0,0,0-5.48,2.13v-2.84a10.21,10.21,0,0,1,5.71-1.62q5.94,0,5.94,6.46Zm-2.7-8.76-4.06.58a6.36,6.36,0,0,0-2.82.95,2.8,2.8,0,0,0-1,2.43,2.71,2.71,0,0,0,.88,2.07,3.37,3.37,0,0,0,2.34.8,4.24,4.24,0,0,0,3.31-1.45,5.2,5.2,0,0,0,1.31-3.66Z"/><path class="cls-7" d="M229,118.86h-2.7V93.23H229Z"/><path class="cls-7" d="M233.47,118.23v-3a7.88,7.88,0,0,0,4.85,1.67c2.37,0,3.55-.81,3.55-2.43a2.18,2.18,0,0,0-.3-1.18,3,3,0,0,0-.83-.85,6.27,6.27,0,0,0-1.21-.67l-1.5-.62a18.45,18.45,0,0,1-2-.92,6,6,0,0,1-1.41-1.05,4.07,4.07,0,0,1-.86-1.32,4.91,4.91,0,0,1-.28-1.75,4.24,4.24,0,0,1,.54-2.15,4.91,4.91,0,0,1,1.44-1.57,6.9,6.9,0,0,1,2.07-1,9.06,9.06,0,0,1,2.39-.32,9.41,9.41,0,0,1,3.91.78v2.8a7.49,7.49,0,0,0-4.27-1.25,4.84,4.84,0,0,0-1.37.18,3.47,3.47,0,0,0-1,.5,2.22,2.22,0,0,0-.67.77,2.07,2.07,0,0,0-.24,1,2.39,2.39,0,0,0,.24,1.13,2.3,2.3,0,0,0,.69.81,5.15,5.15,0,0,0,1.12.64c.44.2.94.4,1.5.63a20.07,20.07,0,0,1,2,.9,7.05,7.05,0,0,1,1.51,1,4,4,0,0,1,1,1.35,4.88,4.88,0,0,1-.21,4,4.9,4.9,0,0,1-1.47,1.57,6.48,6.48,0,0,1-2.12.93,10.33,10.33,0,0,1-2.51.3A9.33,9.33,0,0,1,233.47,118.23Z"/><path class="cls-7" d="M265,119.26a7.72,7.72,0,0,1-6-2.42,9.17,9.17,0,0,1-2.22-6.44,9.56,9.56,0,0,1,2.31-6.81,8.25,8.25,0,0,1,6.27-2.45,7.45,7.45,0,0,1,5.87,2.39,9.58,9.58,0,0,1,2.11,6.6,9.44,9.44,0,0,1-2.28,6.64A7.85,7.85,0,0,1,265,119.26Zm.2-15.79a5.08,5.08,0,0,0-4.11,1.82,7.59,7.59,0,0,0-1.51,5,7.16,7.16,0,0,0,1.53,4.85,5.09,5.09,0,0,0,4.09,1.78,4.84,4.84,0,0,0,4-1.74,7.68,7.68,0,0,0,1.41-5,7.82,7.82,0,0,0-1.41-5A4.83,4.83,0,0,0,265.22,103.47Z"/><path class="cls-7" d="M291.67,118.86H289V109c0-3.67-1.31-5.51-3.91-5.51a4.21,4.21,0,0,0-3.35,1.57A5.9,5.9,0,0,0,280.4,109v9.88h-2.69V101.55h2.69v2.87h.07a6,6,0,0,1,5.52-3.28,5.07,5.07,0,0,1,4.22,1.84,8.35,8.35,0,0,1,1.46,5.3Z"/><path class="cls-7" d="M323.94,117.2a15.36,15.36,0,0,1-7.89,2.06,10.6,10.6,0,0,1-8.15-3.34,12.5,12.5,0,0,1-3.12-8.86,12.83,12.83,0,0,1,3.46-9.24A11.62,11.62,0,0,1,317,94.21a14.48,14.48,0,0,1,6.45,1.29v3.14a12.12,12.12,0,0,0-6.77-1.86,8.35,8.35,0,0,0-6.49,2.81,12,12,0,0,0-.18,14.49,8.14,8.14,0,0,0,6.38,2.63,9.68,9.68,0,0,0,4.78-1.13v-6.8H316v-2.57h7.92Z"/><path class="cls-7" d="M341.09,118.86H338.4v-2.71h-.07a5.59,5.59,0,0,1-5.17,3.11,5.42,5.42,0,0,1-3.94-1.37,4.83,4.83,0,0,1-1.42-3.63c0-3.23,1.85-5.12,5.55-5.65l5-.72c0-2.94-1.16-4.42-3.47-4.42a8.18,8.18,0,0,0-5.49,2.13v-2.84a10.24,10.24,0,0,1,5.72-1.62q5.94,0,5.93,6.46Zm-2.69-8.76-4.06.58a6.45,6.45,0,0,0-2.83.95,2.82,2.82,0,0,0-.95,2.43,2.68,2.68,0,0,0,.88,2.07,3.37,3.37,0,0,0,2.34.8,4.24,4.24,0,0,0,3.31-1.45,5.25,5.25,0,0,0,1.31-3.66Z"/><path class="cls-7" d="M370.06,118.86h-2.69v-9.94a7.63,7.63,0,0,0-.87-4.16,3.22,3.22,0,0,0-2.9-1.29,3.58,3.58,0,0,0-2.93,1.63,6.34,6.34,0,0,0-1.21,3.88v9.88h-2.69V108.58c0-3.4-1.28-5.11-3.83-5.11A3.5,3.5,0,0,0,350,105a6.44,6.44,0,0,0-1.15,4v9.88h-2.7V101.55h2.7v2.74h.06a5.69,5.69,0,0,1,5.23-3.15,4.75,4.75,0,0,1,3,1,5,5,0,0,1,1.76,2.59,6,6,0,0,1,5.59-3.58q5.55,0,5.55,7Z"/><path class="cls-7" d="M376.53,97.15a1.68,1.68,0,0,1-1.23-.51,1.71,1.71,0,0,1-.51-1.28,1.75,1.75,0,0,1,.51-1.29,1.65,1.65,0,0,1,1.23-.52,1.68,1.68,0,0,1,1.26.52,1.84,1.84,0,0,1,0,2.56A1.68,1.68,0,0,1,376.53,97.15Zm1.32,21.71h-2.7V101.55h2.7Z"/><path class="cls-7" d="M397.27,118.86h-2.69V109c0-3.67-1.31-5.51-3.91-5.51a4.21,4.21,0,0,0-3.35,1.57A5.9,5.9,0,0,0,386,109v9.88h-2.7V101.55H386v2.87h.06a6,6,0,0,1,5.52-3.28,5.07,5.07,0,0,1,4.23,1.84,8.35,8.35,0,0,1,1.46,5.3Z"/><path class="cls-7" d="M416.71,117.47q0,9.54-8.88,9.53a11.65,11.65,0,0,1-5.45-1.21V123a11,11,0,0,0,5.42,1.62q6.21,0,6.21-6.8V116H414a6.71,6.71,0,0,1-10.84,1,9.4,9.4,0,0,1-1.91-6.2,11,11,0,0,1,2.06-7,6.81,6.81,0,0,1,5.64-2.6A5.47,5.47,0,0,1,414,104H414v-2.4h2.7ZM414,111v-2.55a5,5,0,0,0-1.35-3.53,4.39,4.39,0,0,0-3.38-1.48,4.65,4.65,0,0,0-3.91,1.87,8.53,8.53,0,0,0-1.41,5.23,7.35,7.35,0,0,0,1.35,4.63,4.35,4.35,0,0,0,3.59,1.73,4.63,4.63,0,0,0,3.69-1.66A6.26,6.26,0,0,0,414,111Z"/><path class="cls-7" d="M434.5,109.7v9.16h-2.76V94.62h6.47a8.39,8.39,0,0,1,5.86,1.89,6.84,6.84,0,0,1,2.08,5.34,7.46,7.46,0,0,1-2.31,5.65,8.69,8.69,0,0,1-6.23,2.2Zm0-12.51v9.94h2.89a6.35,6.35,0,0,0,4.37-1.35,4.82,4.82,0,0,0,1.5-3.79q0-4.8-5.52-4.8Z"/><path class="cls-7" d="M466.62,117.84a13.44,13.44,0,0,1-6.5,1.42,10.32,10.32,0,0,1-8.05-3.33,12.48,12.48,0,0,1-3-8.74,13.1,13.1,0,0,1,3.4-9.39,11.4,11.4,0,0,1,8.63-3.59,13.37,13.37,0,0,1,5.55,1v3A11.08,11.08,0,0,0,461,96.78a8.44,8.44,0,0,0-6.58,2.79,10.65,10.65,0,0,0-2.53,7.45,10.18,10.18,0,0,0,2.36,7.06,7.93,7.93,0,0,0,6.19,2.63,11.36,11.36,0,0,0,6.14-1.62Z"/><path class="cls-7" d="M470,118.23v-3a7.86,7.86,0,0,0,4.85,1.67c2.36,0,3.55-.81,3.55-2.43a2.1,2.1,0,0,0-.31-1.18,2.87,2.87,0,0,0-.82-.85,6.27,6.27,0,0,0-1.21-.67l-1.51-.62a18.23,18.23,0,0,1-2-.92,5.63,5.63,0,0,1-1.41-1.05,3.91,3.91,0,0,1-.86-1.32,4.9,4.9,0,0,1-.29-1.75,4.15,4.15,0,0,1,.55-2.15,4.91,4.91,0,0,1,1.44-1.57,6.85,6.85,0,0,1,2.06-1,9.12,9.12,0,0,1,2.39-.32,9.38,9.38,0,0,1,3.91.78v2.8a7.47,7.47,0,0,0-4.27-1.25,4.76,4.76,0,0,0-1.36.18,3.35,3.35,0,0,0-1,.5,2.37,2.37,0,0,0-.68.77,2.07,2.07,0,0,0-.24,1,2.39,2.39,0,0,0,.24,1.13,2.33,2.33,0,0,0,.7.81,5.15,5.15,0,0,0,1.12.64c.44.2.93.4,1.49.63a19.3,19.3,0,0,1,2,.9,7.31,7.31,0,0,1,1.51,1,4,4,0,0,1,1,1.35,4.88,4.88,0,0,1-.21,4,4.9,4.9,0,0,1-1.47,1.57,6.57,6.57,0,0,1-2.12.93,10.35,10.35,0,0,1-2.52.3A9.29,9.29,0,0,1,470,118.23Z"/><path class="cls-7" d="M493.54,118.23v-3a7.83,7.83,0,0,0,4.84,1.67c2.37,0,3.55-.81,3.55-2.43a2.18,2.18,0,0,0-.3-1.18,3,3,0,0,0-.82-.85,6.36,6.36,0,0,0-1.22-.67l-1.5-.62a18.45,18.45,0,0,1-2-.92,6,6,0,0,1-1.41-1.05,3.88,3.88,0,0,1-.85-1.32,4.9,4.9,0,0,1-.29-1.75,4.24,4.24,0,0,1,.54-2.15,4.83,4.83,0,0,1,1.45-1.57,6.85,6.85,0,0,1,2.06-1,9.06,9.06,0,0,1,2.39-.32,9.38,9.38,0,0,1,3.91.78v2.8a7.49,7.49,0,0,0-4.27-1.25,4.84,4.84,0,0,0-1.37.18,3.47,3.47,0,0,0-1,.5,2.33,2.33,0,0,0-.67.77,2.07,2.07,0,0,0-.24,1,2.39,2.39,0,0,0,.24,1.13,2.33,2.33,0,0,0,.7.81,5.06,5.06,0,0,0,1.11.64c.44.2.94.4,1.5.63a20.07,20.07,0,0,1,2,.9,7.05,7.05,0,0,1,1.51,1,4.15,4.15,0,0,1,1,1.35,4.48,4.48,0,0,1,.33,1.8,4.35,4.35,0,0,1-.55,2.24,4.69,4.69,0,0,1-1.47,1.57,6.48,6.48,0,0,1-2.12.93,10.33,10.33,0,0,1-2.51.3A9.29,9.29,0,0,1,493.54,118.23Z"/><path class="cls-7" d="M516.64,118.69a5.12,5.12,0,0,1-2.52.54c-2.94,0-4.42-1.69-4.42-5.07V103.91h-2.89v-2.36h2.89V97.32l2.7-.89v5.12h4.24v2.36H512.4v9.76a4.13,4.13,0,0,0,.57,2.48,2.27,2.27,0,0,0,1.91.75,2.76,2.76,0,0,0,1.76-.58Z"/><path class="cls-7" d="M532.28,118.86h-2.7v-2.71h-.06a5.61,5.61,0,0,1-5.18,3.11,5.41,5.41,0,0,1-3.93-1.37,4.79,4.79,0,0,1-1.42-3.63c0-3.23,1.85-5.12,5.55-5.65l5-.72c0-2.94-1.15-4.42-3.46-4.42a8.14,8.14,0,0,0-5.49,2.13v-2.84a10.21,10.21,0,0,1,5.72-1.62q5.92,0,5.93,6.46Zm-2.7-8.76-4.05.58a6.45,6.45,0,0,0-2.83.95,2.79,2.79,0,0,0-1,2.43,2.68,2.68,0,0,0,.88,2.07,3.34,3.34,0,0,0,2.34.8,4.26,4.26,0,0,0,3.31-1.45,5.24,5.24,0,0,0,1.3-3.66Z"/><path class="cls-7" d="M546.13,104.35a3.24,3.24,0,0,0-2-.55,3.4,3.4,0,0,0-2.88,1.67,7.91,7.91,0,0,0-1.16,4.56v8.83h-2.69V101.55h2.69v3.56h.07a6,6,0,0,1,1.76-2.84,3.89,3.89,0,0,1,2.64-1,4.23,4.23,0,0,1,1.61.24Z"/><path class="cls-7" d="M557.83,118.69a5.08,5.08,0,0,1-2.51.54q-4.43,0-4.42-5.07V103.91H548v-2.36h2.9V97.32l2.69-.89v5.12h4.24v2.36h-4.24v9.76a4.06,4.06,0,0,0,.58,2.48,2.23,2.23,0,0,0,1.9.75,2.74,2.74,0,0,0,1.76-.58Z"/><path class="cls-7" d="M589.24,118.86h-3l-2.5-6.8h-10l-2.35,6.8h-3.07l9-24.24h2.85Zm-6.45-9.35-3.7-10.33a10.27,10.27,0,0,1-.36-1.62h-.07a9.44,9.44,0,0,1-.37,1.62l-3.67,10.33Z"/><path class="cls-7" d="M606,118.86h-2.69v-2.74h-.07a5.5,5.5,0,0,1-5.19,3.14q-6,0-6-7.37V101.55h2.68v9.9c0,3.65,1.35,5.48,4.07,5.48a4.07,4.07,0,0,0,3.25-1.5,5.8,5.8,0,0,0,1.27-3.91v-10H606Z"/><path class="cls-7" d="M625.75,117.47q0,9.54-8.87,9.53a11.62,11.62,0,0,1-5.45-1.21V123a11,11,0,0,0,5.42,1.62q6.21,0,6.21-6.8V116H623a6.7,6.7,0,0,1-10.83,1,9.4,9.4,0,0,1-1.92-6.2,11,11,0,0,1,2.07-7,6.81,6.81,0,0,1,5.64-2.6,5.44,5.44,0,0,1,5,2.81h.07v-2.4h2.69ZM623.06,111v-2.55A5,5,0,0,0,621.7,105a4.37,4.37,0,0,0-3.37-1.48,4.63,4.63,0,0,0-3.91,1.87,8.47,8.47,0,0,0-1.42,5.23,7.29,7.29,0,0,0,1.36,4.63,4.34,4.34,0,0,0,3.59,1.73,4.63,4.63,0,0,0,3.69-1.66A6.31,6.31,0,0,0,623.06,111Z"/><path class="cls-7" d="M644.81,118.86h-2.69v-2.74h-.07a5.52,5.52,0,0,1-5.19,3.14q-6,0-6-7.37V101.55h2.67v9.9q0,5.47,4.08,5.48a4.07,4.07,0,0,0,3.24-1.5,5.81,5.81,0,0,0,1.28-3.91v-10h2.69Z"/><path class="cls-7" d="M649.23,118.23v-3a7.86,7.86,0,0,0,4.85,1.67c2.36,0,3.55-.81,3.55-2.43a2.1,2.1,0,0,0-.31-1.18,2.87,2.87,0,0,0-.82-.85,6.27,6.27,0,0,0-1.21-.67l-1.51-.62a18.23,18.23,0,0,1-2-.92,5.82,5.82,0,0,1-1.41-1.05,3.91,3.91,0,0,1-.86-1.32,4.9,4.9,0,0,1-.29-1.75,4.24,4.24,0,0,1,.55-2.15,4.91,4.91,0,0,1,1.44-1.57,6.85,6.85,0,0,1,2.06-1,9.14,9.14,0,0,1,2.4-.32,9.41,9.41,0,0,1,3.91.78v2.8a7.53,7.53,0,0,0-4.28-1.25,4.81,4.81,0,0,0-1.36.18,3.35,3.35,0,0,0-1,.5,2.37,2.37,0,0,0-.68.77,2.07,2.07,0,0,0-.24,1,2.39,2.39,0,0,0,.24,1.13,2.33,2.33,0,0,0,.7.81,5.15,5.15,0,0,0,1.12.64c.44.2.94.4,1.49.63a19.3,19.3,0,0,1,2,.9,7.31,7.31,0,0,1,1.51,1,4,4,0,0,1,1,1.35,4.32,4.32,0,0,1,.34,1.8,4.45,4.45,0,0,1-.55,2.24,4.9,4.9,0,0,1-1.47,1.57,6.57,6.57,0,0,1-2.12.93,10.35,10.35,0,0,1-2.52.3A9.29,9.29,0,0,1,649.23,118.23Z"/><path class="cls-7" d="M672.33,118.69a5.05,5.05,0,0,1-2.51.54q-4.43,0-4.42-5.07V103.91h-2.89v-2.36h2.89V97.32l2.69-.89v5.12h4.24v2.36h-4.24v9.76a4.13,4.13,0,0,0,.58,2.48,2.25,2.25,0,0,0,1.9.75,2.74,2.74,0,0,0,1.76-.58Z"/><path class="cls-7" d="M101.52,159.5v-3a8.42,8.42,0,0,0,5.46,2,5.83,5.83,0,0,0,3.93-1.26,4.3,4.3,0,0,0,1.47-3.42c0-3.17-2.18-4.75-6.56-4.75h-1.95v-2.35h1.86c3.88,0,5.83-1.49,5.83-4.46,0-2.75-1.49-4.13-4.45-4.13a7.44,7.44,0,0,0-4.69,1.74v-2.7a10.14,10.14,0,0,1,5.36-1.39,6.82,6.82,0,0,1,4.76,1.63,5.35,5.35,0,0,1,1.78,4.16c0,3.18-1.58,5.24-4.73,6.15v.07a6.18,6.18,0,0,1,4,1.83,5.51,5.51,0,0,1,1.5,3.95,6.68,6.68,0,0,1-2.27,5.26,8.75,8.75,0,0,1-6,2A9.64,9.64,0,0,1,101.52,159.5Z"/><path class="cls-7" d="M126.35,160.81a6.16,6.16,0,0,1-5.47-3.1q-2-3.09-2-8.94,0-6.42,2-9.72a6.54,6.54,0,0,1,5.9-3.3q7.4,0,7.4,12.43,0,6.15-2.09,9.39A6.58,6.58,0,0,1,126.35,160.81Zm.37-22.71q-5,0-5,10.53,0,9.84,4.95,9.84t4.88-10Q131.51,138.11,126.72,138.1Z"/><path class="cls-7" d="M146.18,160.23a5.09,5.09,0,0,1-2.52.54c-2.94,0-4.42-1.69-4.42-5.07V145.46h-2.89v-2.37h2.89v-4.23l2.7-.89v5.12h4.24v2.37h-4.24v9.75a4.19,4.19,0,0,0,.57,2.49,2.29,2.29,0,0,0,1.91.74,2.74,2.74,0,0,0,1.76-.58Z"/><path class="cls-7" d="M163.74,160.4h-2.69v-10c0-3.61-1.31-5.41-3.91-5.41a4.21,4.21,0,0,0-3.32,1.56,5.92,5.92,0,0,0-1.35,4v9.8h-2.69V134.77h2.69V146h.07a6.1,6.1,0,0,1,5.52-3.28q5.69,0,5.68,7Z"/><path class="cls-7" d="M169.76,160.77a1.68,1.68,0,0,1-1.29-.56,1.83,1.83,0,0,1-.54-1.33,1.86,1.86,0,0,1,.54-1.34,1.69,1.69,0,0,1,1.29-.57,1.74,1.74,0,0,1,1.31.57,1.86,1.86,0,0,1,.54,1.34,1.83,1.83,0,0,1-.54,1.33A1.73,1.73,0,0,1,169.76,160.77Z"/><path class="cls-7" d="M197.92,160.4H185.69V136.16h2.76v21.67h9.47Z"/><path class="cls-7" d="M214.69,152.44H202.81a6.58,6.58,0,0,0,1.52,4.46,5.12,5.12,0,0,0,4,1.57,8.15,8.15,0,0,0,5.23-1.92v2.6a9.61,9.61,0,0,1-5.87,1.66,7,7,0,0,1-5.6-2.36,9.84,9.84,0,0,1-2-6.64,9.59,9.59,0,0,1,2.23-6.58,7,7,0,0,1,5.53-2.55,6.27,6.27,0,0,1,5.11,2.2,9.38,9.38,0,0,1,1.8,6.1Zm-2.76-2.35a5.75,5.75,0,0,0-1.12-3.74,3.79,3.79,0,0,0-3.08-1.33,4.32,4.32,0,0,0-3.24,1.4,6.46,6.46,0,0,0-1.64,3.67Z"/><path class="cls-7" d="M230.81,160.4h-2.69v-2.7h-.07a5.62,5.62,0,0,1-5.17,3.11,5.46,5.46,0,0,1-3.94-1.37,4.83,4.83,0,0,1-1.42-3.64q0-4.85,5.55-5.64l5.05-.73q0-4.41-3.47-4.41a8.14,8.14,0,0,0-5.49,2.13v-2.84a10.24,10.24,0,0,1,5.72-1.63q5.93,0,5.93,6.46Zm-2.69-8.76-4.06.58a6.59,6.59,0,0,0-2.83.95,2.82,2.82,0,0,0-.95,2.43,2.68,2.68,0,0,0,.88,2.07,3.33,3.33,0,0,0,2.34.8,4.27,4.27,0,0,0,3.31-1.44,5.28,5.28,0,0,0,1.31-3.66Z"/><path class="cls-7" d="M244.66,145.9a3.17,3.17,0,0,0-2-.56,3.43,3.43,0,0,0-2.89,1.67,8,8,0,0,0-1.16,4.57v8.82h-2.69V143.09h2.69v3.57h.07a6,6,0,0,1,1.76-2.85,4,4,0,0,1,2.64-1,4.47,4.47,0,0,1,1.61.23Z"/><path class="cls-7" d="M261.49,160.4h-2.7v-9.87c0-3.68-1.3-5.51-3.91-5.51a4.2,4.2,0,0,0-3.34,1.56,5.91,5.91,0,0,0-1.32,3.95v9.87h-2.7V143.09h2.7V146h.06a6.05,6.05,0,0,1,5.52-3.28,5.12,5.12,0,0,1,4.23,1.84,8.36,8.36,0,0,1,1.46,5.3Z"/><path class="cls-7" d="M300.17,160.4h-2.75V144.14c0-1.29.08-2.86.23-4.72h-.06a15.55,15.55,0,0,1-.71,2.35l-8.05,18.63h-1.35l-8-18.49a14.59,14.59,0,0,1-.71-2.49h-.07c.09,1,.14,2.55.14,4.75V160.4h-2.67V136.16h3.65l7.23,16.9A21.38,21.38,0,0,1,288.1,156h.1q.71-2,1.14-3l7.37-16.84h3.46Z"/><path class="cls-7" d="M313,160.81a7.7,7.7,0,0,1-6-2.43,9.16,9.16,0,0,1-2.22-6.43,9.52,9.52,0,0,1,2.31-6.81,8.21,8.21,0,0,1,6.26-2.46,7.45,7.45,0,0,1,5.88,2.39,9.61,9.61,0,0,1,2.11,6.61,9.44,9.44,0,0,1-2.28,6.63A7.86,7.86,0,0,1,313,160.81Zm.2-15.79a5.07,5.07,0,0,0-4.11,1.81,7.63,7.63,0,0,0-1.51,5,7.19,7.19,0,0,0,1.53,4.85,5.12,5.12,0,0,0,4.09,1.77,4.84,4.84,0,0,0,4-1.74,7.68,7.68,0,0,0,1.41-4.95,7.81,7.81,0,0,0-1.41-5A4.8,4.8,0,0,0,313.23,145Z"/><path class="cls-7" d="M334.49,145.9a3.18,3.18,0,0,0-2-.56,3.42,3.42,0,0,0-2.88,1.67,8,8,0,0,0-1.16,4.57v8.82h-2.7V143.09h2.7v3.57h.07a6,6,0,0,1,1.75-2.85,4,4,0,0,1,2.65-1,4.47,4.47,0,0,1,1.61.23Z"/><path class="cls-7" d="M350.49,152.44H338.61a6.63,6.63,0,0,0,1.51,4.46,5.14,5.14,0,0,0,4,1.57,8.15,8.15,0,0,0,5.23-1.92v2.6a9.61,9.61,0,0,1-5.87,1.66,7,7,0,0,1-5.6-2.36,9.84,9.84,0,0,1-2-6.64,9.59,9.59,0,0,1,2.23-6.58,7,7,0,0,1,5.52-2.55,6.24,6.24,0,0,1,5.11,2.2,9.32,9.32,0,0,1,1.81,6.1Zm-2.76-2.35a5.75,5.75,0,0,0-1.12-3.74,3.79,3.79,0,0,0-3.08-1.33,4.31,4.31,0,0,0-3.24,1.4,6.39,6.39,0,0,0-1.64,3.67Z"/><path class="cls-5" d="M561.93,267.59A13.81,13.81,0,0,1,555.4,269a10.54,10.54,0,0,1-8.09-3.25,12,12,0,0,1-3-8.53,12.59,12.59,0,0,1,3.41-9.18,11.6,11.6,0,0,1,8.66-3.49,13.86,13.86,0,0,1,5.58,1v2.95a11.34,11.34,0,0,0-5.61-1.41,8.59,8.59,0,0,0-6.61,2.72,10.23,10.23,0,0,0-2.53,7.27,9.74,9.74,0,0,0,2.37,6.89,8.06,8.06,0,0,0,6.21,2.57,11.7,11.7,0,0,0,6.17-1.58Z"/><path class="cls-5" d="M569.09,268.59h-2.7v-25h2.7Z"/><path class="cls-5" d="M581.63,269a7.84,7.84,0,0,1-6-2.37,8.77,8.77,0,0,1-2.23-6.28,9.16,9.16,0,0,1,2.32-6.65,8.39,8.39,0,0,1,6.29-2.39,7.58,7.58,0,0,1,5.9,2.33,9.24,9.24,0,0,1,2.12,6.45,9.06,9.06,0,0,1-2.29,6.48A8,8,0,0,1,581.63,269Zm.2-15.41a5.14,5.14,0,0,0-4.12,1.77,7.28,7.28,0,0,0-1.52,4.9,6.88,6.88,0,0,0,1.53,4.73,5.22,5.22,0,0,0,4.11,1.73,4.94,4.94,0,0,0,4-1.7,7.36,7.36,0,0,0,1.41-4.83,7.49,7.49,0,0,0-1.41-4.88A4.92,4.92,0,0,0,581.83,253.57Z"/><path class="cls-5" d="M593.35,268v-2.9a8,8,0,0,0,4.87,1.63c2.37,0,3.56-.79,3.56-2.37a2.09,2.09,0,0,0-.3-1.15,3.12,3.12,0,0,0-.83-.83,6.34,6.34,0,0,0-1.22-.65c-.47-.2-1-.4-1.51-.61a16.06,16.06,0,0,1-2-.9,5.82,5.82,0,0,1-1.42-1,3.79,3.79,0,0,1-.86-1.29,4.65,4.65,0,0,1-.29-1.7,4,4,0,0,1,.55-2.11,4.7,4.7,0,0,1,1.45-1.53,6.52,6.52,0,0,1,2.07-.93,9.2,9.2,0,0,1,2.4-.32,9.84,9.84,0,0,1,3.93.76v2.74a7.72,7.72,0,0,0-4.29-1.22,5.19,5.19,0,0,0-1.37.17,3.4,3.4,0,0,0-1,.49,2.3,2.3,0,0,0-.68.75,2,2,0,0,0-.24,1,2.32,2.32,0,0,0,.24,1.1,2.4,2.4,0,0,0,.71.79,5.32,5.32,0,0,0,1.12.63c.44.19.94.39,1.5.61a21.85,21.85,0,0,1,2,.88,7.09,7.09,0,0,1,1.52,1,4,4,0,0,1,1,1.31,4.29,4.29,0,0,1,.33,1.76,4.13,4.13,0,0,1-.55,2.18,4.73,4.73,0,0,1-1.48,1.54,6.61,6.61,0,0,1-2.13.9,10.35,10.35,0,0,1-2.52.3A9.48,9.48,0,0,1,593.35,268Z"/><path class="cls-5" d="M622.29,260.81H610.36a6.35,6.35,0,0,0,1.52,4.36,5.24,5.24,0,0,0,4,1.53,8.27,8.27,0,0,0,5.25-1.88v2.54a9.79,9.79,0,0,1-5.89,1.62,7.17,7.17,0,0,1-5.63-2.3,9.45,9.45,0,0,1-2-6.48,9.21,9.21,0,0,1,2.23-6.42,7.16,7.16,0,0,1,5.56-2.49,6.35,6.35,0,0,1,5.13,2.15,8.93,8.93,0,0,1,1.81,5.95Zm-2.77-2.29a5.53,5.53,0,0,0-1.13-3.65,3.83,3.83,0,0,0-3.09-1.3,4.41,4.41,0,0,0-3.26,1.37,6.23,6.23,0,0,0-1.65,3.58Z"/></g></g></svg>