<?xml version="1.0" encoding="utf-8"?>
<!-- Generator: Adobe Illustrator 24.0.1, SVG Export Plug-In . SVG Version: 6.00 Build 0)  -->
<svg version="1.1" id="Capa_1" xmlns="http://www.w3.org/2000/svg" xmlns:xlink="http://www.w3.org/1999/xlink" x="0px" y="0px"
	 viewBox="0 0 484.6 484.6" style="enable-background:new 0 0 484.6 484.6;" xml:space="preserve">
<style type="text/css">
	.st0{fill:#FFFFFF;}
</style>
<g>
	<g>
		<path class="st0" d="M330.3,223.3l-102.8-74.7c-7.1-5.2-16.6-5.9-24.4-1.9c-7.9,4-12.8,12.1-12.8,20.9v149.3
			c0,8.8,4.9,16.9,12.8,20.9c3.4,1.7,7,2.6,10.6,2.6c4.9,0,9.7-1.5,13.8-4.5l102.8-74.7c6.1-4.4,9.7-11.5,9.7-19
			C340,234.8,336.4,227.7,330.3,223.3z"/>
		<path class="st0" d="M242.3,0C108.7,0,0,108.7,0,242.3c0,133.6,108.7,242.3,242.3,242.3c133.6,0,242.3-108.7,242.3-242.3
			C484.6,108.7,375.9,0,242.3,0z M242.3,425c-100.8,0-182.7-82-182.7-182.7c0-100.8,82-182.7,182.7-182.7S425,141.5,425,242.3
			C425,343,343,425,242.3,425z"/>
	</g>
</g>
</svg>
