<svg xmlns="http://www.w3.org/2000/svg" viewBox="0 0 208.2707 47.8174"><g id="Layer_2" data-name="Layer 2"><g id="hero"><path d="M54.4782,1.327c1.0193-.0958,1.78-.2279,2.542-.23,7.1673-.0149,14.3354-.0655,21.5018.0146,4.5027.05,8.4858,1.3927,11.452,5.0627,4.4451,5.5,2.9958,15.4095-2.8287,18.3009-.2558.127-.5183.2407-1.1691.5415C91.56,28.1823,91.82,33.1851,92.202,38.189c.2075,2.7166.6732,5.4137,1.0434,8.2818H83.2588c-.3232-1.6-.7133-3.2066-.9618-4.8349-.4042-2.6488-.6-5.3336-1.1044-7.9613-.38-1.9814-1.5771-3.7519-3.664-3.9758-4.044-.4339-8.13-.4761-12.6556-.7036V46.4741H54.4782ZM65.0743,21.4081c4.0294,0,7.7609.0948,11.4852-.0272,3.5719-.117,5.3569-2.2394,5.3281-6.0012-.028-3.67-1.7406-5.5973-5.3411-5.7245-3.32-.1174-6.648-.05-9.9722-.0265a7.025,7.025,0,0,0-1.5.3687Z"/><path d="M140.4761,22.0287H159.719v24.37h-6.5354l-1.21-3.84c-.8721.7073-1.5523,1.2969-2.2708,1.8358-6.9759,5.2324-18.1167,4.399-24.9032-2.0361-7.4385-7.0533-8.9135-15.834-6.6209-25.379,3.3751-14.052,18.2062-20.9365,31.2854-14.6248a16.7921,16.7921,0,0,1,9.3547,11.463,21.28,21.28,0,0,1,.2937,2.6166h-9.6389a9.5957,9.5957,0,0,1-.71-1.2374,8.768,8.768,0,0,0-8.0049-6.0033c-4.4775-.32-8.2661,1.0874-10.4316,5.1319a19.5476,19.5476,0,0,0-.037,19.3023c2.0238,3.8033,5.5761,5.2539,9.8,5.1838,3.7809-.0627,7.0069-1.237,8.8883-4.7527a29.1457,29.1457,0,0,0,1.3908-4.0953h-9.8923Z"/><path d="M208.2707,46.4273H197.3241q-1.6627-4.5932-3.4295-9.4733H177.4763l-3.5072,9.4987H163.2414c5.8175-15.2038,11.5137-30.09,17.2678-45.1281h10.7621C196.8929,16.24,202.5133,31.1517,208.2707,46.4273ZM186.069,14.2965l-.587-.0093-5.03,14.1412h10.5329Z"/><path d="M115.9571.4218h3.95c-6.578,15.9234-13.0037,31.4778-19.4651,47.119H96.2984C102.9708,31.5479,109.475,15.9583,115.9571.4218Z"/><rect y="1.303" width="45.2141" height="45.2141" style="fill:#e51837"/></g></g></svg>