<svg width="295" height="59" viewBox="0 0 295 59" fill="none" xmlns="http://www.w3.org/2000/svg">
                <path fill-rule="evenodd" clip-rule="evenodd" d="M25.6483 3.2334H37.7402V42.7525C37.7402 45.2152 37.3685 47.434 36.6251 49.4088C35.9049 51.3371 34.8479 52.9866 33.454 54.3574C32.0834 55.7049 30.4224 56.7387 28.4709 57.459C26.4963 58.1559 24.2777 58.5044 21.8152 58.5044H18.8881C16.4488 58.5044 14.2418 58.1559 12.2672 57.459C10.3157 56.7387 8.64311 55.7049 7.24923 54.3574C5.87859 52.9866 4.83319 51.3371 4.11302 49.4088C3.36962 47.434 2.99792 45.2152 2.99792 42.7525V3.2334H15.0898V42.7874C15.0898 44.5299 15.4615 45.738 16.2049 46.4117C16.925 47.039 18.1447 47.3527 19.8638 47.3527H20.8743C22.5935 47.3527 23.8015 47.039 24.4984 46.4117C25.265 45.738 25.6483 44.5299 25.6483 42.7874V3.2334ZM74.4538 30.4856C75.476 30.4856 76.289 30.3926 76.8931 30.2068C77.5203 30.0209 78.0081 29.7189 78.3566 29.3007C78.6819 28.8825 78.9142 28.3365 79.0536 27.6628C79.1697 27.0587 79.2278 26.2456 79.2278 25.2233V19.6474C79.2278 18.6252 79.1697 17.812 79.0536 17.208C78.9142 16.5342 78.6819 15.9883 78.3566 15.5701C78.0081 15.1519 77.5203 14.8498 76.8931 14.664C76.289 14.4781 75.476 14.3852 74.4538 14.3852H68.7041V30.4856H74.4538ZM56.6122 3.2334V57.7378H68.7041V41.6374H75.4295C80.5868 41.6374 84.5361 40.1853 87.2774 37.2812C89.9722 34.4235 91.3196 30.4043 91.3196 25.2233V19.6474C91.3196 14.4665 89.9722 10.4472 87.2774 7.58956C84.5361 4.68544 80.5868 3.2334 75.4295 3.2334H56.6122ZM119.705 46.586H137.651V57.7378H107.613V3.2334H119.705V46.586ZM179.835 57.7378L177.536 48.6421H165.757L163.492 57.7378H151.052L165.932 3.2334H177.396L192.241 57.7378H179.835ZM228.989 3.2334V29.4749L217.978 3.2334H206.339V57.7378H218.431V31.4962L229.442 57.7378H241.081V3.2334H228.989ZM259.953 3.2334H277.307C282.79 3.2334 286.994 4.46473 289.922 6.92743C293.081 9.57599 294.661 13.5952 294.661 18.9853V41.9859C294.661 47.3759 293.081 51.3952 289.922 54.0437C286.994 56.5064 282.79 57.7378 277.307 57.7378H259.953V3.2334ZM277.307 46.586H272.045V14.3852H277.307C278.283 14.3852 279.061 14.4433 279.642 14.5594C280.339 14.6756 280.896 14.8847 281.314 15.1867C281.733 15.5352 282.046 15.9999 282.255 16.5807C282.464 17.1848 282.569 17.9747 282.569 18.9504V42.0207C282.569 42.9965 282.464 43.7864 282.255 44.3905C282.046 44.9713 281.733 45.4359 281.314 45.7844C280.896 46.0865 280.339 46.2956 279.642 46.4117C279.061 46.5279 278.283 46.586 277.307 46.586ZM171.646 21.1111L174.748 37.4903H168.545L171.646 21.1111Z" fill="black"></path>
                <path fill-rule="evenodd" clip-rule="evenodd" d="M22.6504 0.235352H34.7423V39.7545C34.7423 42.2172 34.3706 44.4359 33.6272 46.4107C32.907 48.3391 31.85 49.9886 30.4561 51.3593C29.0855 52.7068 27.4244 53.7407 25.473 54.4609C23.4984 55.1579 21.2798 55.5064 18.8173 55.5064H15.8901C13.4509 55.5064 11.2439 55.1579 9.26925 54.4609C7.31782 53.7407 5.64519 52.7068 4.25131 51.3593C2.88066 49.9886 1.83527 48.3391 1.1151 46.4107C0.371695 44.4359 0 42.2172 0 39.7545V0.235352H12.0918V39.7893C12.0918 41.5318 12.4635 42.7399 13.2069 43.4137C13.9271 44.041 15.1467 44.3546 16.8659 44.3546H17.8764C19.5955 44.3546 20.8035 44.041 21.5005 43.4137C22.2671 42.7399 22.6504 41.5318 22.6504 39.7893V0.235352ZM71.4559 27.4875C72.478 27.4875 73.2911 27.3946 73.8951 27.2087C74.5224 27.0229 75.0102 26.7208 75.3587 26.3027C75.6839 25.8845 75.9162 25.3385 76.0556 24.6647C76.1718 24.0607 76.2299 23.2475 76.2299 22.2253V16.6494C76.2299 15.6271 76.1718 14.814 76.0556 14.2099C75.9162 13.5362 75.6839 12.9902 75.3587 12.572C75.0102 12.1538 74.5224 11.8518 73.8951 11.6659C73.2911 11.4801 72.478 11.3871 71.4559 11.3871H65.7061V27.4875H71.4559ZM53.6143 0.235352V54.7397H65.7061V38.6393H72.4316C77.5889 38.6393 81.5382 37.1873 84.2795 34.2831C86.9743 31.4255 88.3217 27.4062 88.3217 22.2253V16.6494C88.3217 11.4684 86.9743 7.44918 84.2795 4.59152C81.5382 1.68739 77.5889 0.235352 72.4316 0.235352H53.6143ZM116.707 43.5879H134.653V54.7397H104.615V0.235352H116.707V43.5879ZM176.838 54.7397L174.538 45.644H162.759L160.494 54.7397H148.054L162.934 0.235352H174.398L189.243 54.7397H176.838ZM225.991 0.235352V26.4769L214.98 0.235352H203.341V54.7397H215.433V28.4982L226.444 54.7397H238.083V0.235352H225.991ZM256.955 0.235352H274.309C279.792 0.235352 283.996 1.46668 286.924 3.92938C290.083 6.57794 291.663 10.5972 291.663 15.9872V38.9878C291.663 44.3779 290.083 48.3971 286.924 51.0457C283.996 53.5084 279.792 54.7397 274.309 54.7397H256.955V0.235352ZM274.309 43.5879H269.047V11.3871H274.309C275.285 11.3871 276.063 11.4452 276.644 11.5614C277.341 11.6775 277.898 11.8866 278.316 12.1887C278.735 12.5372 279.048 13.0018 279.257 13.5826C279.466 14.1867 279.571 14.9766 279.571 15.9524V39.0227C279.571 39.9984 279.466 40.7884 279.257 41.3924C279.048 41.9732 278.735 42.4379 278.316 42.7864C277.898 43.0884 277.341 43.2975 276.644 43.4137C276.063 43.5298 275.285 43.5879 274.309 43.5879ZM168.649 18.1131L171.75 34.4922H165.547L168.649 18.1131Z" fill="#FFF23E"></path></svg>