<svg xmlns="http://www.w3.org/2000/svg" viewBox="0 0 463.5833 64.0723"><g id="Layer_2" data-name="Layer 2"><g id="hero"><polygon points="260.463 0 245.914 31.124 240.443 19.331 234.526 19.331 243.523 38.622 248.305 38.622 266.34 0 260.463 0" style="fill:#d52b1e"/><path d="M198.0526,57.7907h11.7121V36.3522c0-4.9037,2.8369-8.3485,7.0516-8.3485,4.0527,0,6.16,2.8369,6.16,6.93V57.7907h11.7122V32.7048c0-8.51-5.1063-14.5084-13.3737-14.5084A13.1948,13.1948,0,0,0,209.6026,24.6H209.36V19.3311H198.0121l.0405,38.46Zm-23.019-39.5133c-12.239,0-20.4253,8.7942-20.4253,20.3848,0,11.51,8.1863,20.3848,20.4253,20.3848s20.4253-8.8753,20.4253-20.3848C195.4994,27.0716,187.2726,18.2774,175.0336,18.2774Zm-.0811,32.0969c-5.5521,0-8.51-4.66-8.51-11.7121,0-7.1327,2.9179-11.7121,8.51-11.7121,5.5521,0,8.6321,4.5794,8.6321,11.7121C183.6252,45.7138,180.5452,50.3743,174.9525,50.3743Zm-53.738,7.4164h32.9074v-9.24H135.48v-.2431L153.3114,28.328V19.2906H121.2145v9.2805h18.0342v.2432L121.2145,48.9559v8.8348Zm-15.0353,0h11.7932v-38.46H106.1792Zm-27.3553,0H90.5765v-17.67c0-8.0242,4.8227-11.59,12.158-10.5773h.2431V19.4122a6.3961,6.3961,0,0,0-2.391-.2837c-4.58,0-7.66,2.1073-10.2937,6.6058H90.05V19.3311H78.8239v38.46Zm-21.56-7.3758c-5.1874,0-8.3484-3.3637-8.9563-8.5511h27.72c.081-8.2674-2.1074-14.8732-6.6869-19.0069-3.2421-2.999-7.4974-4.66-12.9279-4.66-11.5906,0-19.6148,8.7942-19.6148,20.3037,0,11.59,7.66,20.4253,20.3848,20.4253A20.3106,20.3106,0,0,0,68.976,55.4807a15.1264,15.1264,0,0,0,6.4437-9.078H64.1533C63.0591,48.9154,60.7086,50.4149,57.2638,50.4149Zm-.6079-23.83c4.1337,0,6.9706,3.08,7.4569,7.5785H48.3885C49.3206,29.6248,51.7928,26.5853,56.6559,26.5853ZM13.3737,57.7907h12.32l13.3738-38.46H27.2743L19.7769,44.0522h-.1621L12.1174,19.3311H0ZM106.1792,5.6332h11.7932V16.089H106.1792Z" style="fill:#fff"/><path d="M358.5312,23.0345c.6963-.0654,1.2162-.1556,1.7364-.1567,4.8958-.01,9.7921-.0448,14.6874.01a9.5826,9.5826,0,0,1,7.8226,3.4582c3.0363,3.7568,2.0463,10.5259-1.9323,12.501-.1747.0867-.354.1644-.7986.37,3.8142,2.1621,3.9918,5.5794,4.2528,8.9974.1417,1.8557.46,3.698.7126,5.6571h-6.8215c-.2208-1.0928-.4873-2.19-.657-3.3026-.2761-1.8093-.41-3.6433-.7544-5.4382a3.0337,3.0337,0,0,0-2.5028-2.7158c-2.7624-.2963-5.5537-.3252-8.6447-.4806v11.94h-7.1005Zm7.238,13.717c2.7524,0,5.3012.0647,7.8452-.0186,2.44-.08,3.6592-1.53,3.64-4.0993-.0192-2.5069-1.189-3.8234-3.6485-3.91-2.2681-.08-4.5411-.034-6.8117-.0181a4.804,4.804,0,0,0-1.0246.2519Z" style="fill:#fff"/><path d="M417.2744,37.1754h13.1443V53.822h-4.4641l-.8267-2.6234c-.5957.4832-1.06.8859-1.5512,1.254-4.765,3.5742-12.375,3.0049-17.0107-1.3908-5.0811-4.8179-6.0886-10.8158-4.5226-17.3358a14.9277,14.9277,0,0,1,21.37-9.99,11.47,11.47,0,0,1,6.39,7.83,14.5384,14.5384,0,0,1,.2007,1.7873H423.42a6.557,6.557,0,0,1-.4853-.8452,5.9889,5.9889,0,0,0-5.4679-4.1007c-3.0585-.2185-5.6464.7428-7.1256,3.5054a13.3525,13.3525,0,0,0-.0253,13.185c1.3824,2.598,3.8089,3.5889,6.694,3.541,2.5827-.0429,4.7863-.845,6.0714-3.2465a19.9059,19.9059,0,0,0,.95-2.7975h-6.7572Z" style="fill:#fff"/><path d="M463.5833,53.8415h-7.4774l-2.3426-6.471h-11.215c-.8018,2.1715-1.5834,4.2885-2.3957,6.4883h-7.3278L444.62,23.0329h7.3514ZM448.4178,31.8937l-.401-.0064-3.4362,9.66h7.1949C450.6051,38.1823,449.5115,35.038,448.4178,31.8937Z" style="fill:#fff"/><path d="M400.526,22.4162h2.6982L389.928,54.6021h-2.83Z" style="fill:#fff"/><rect x="321.3185" y="23.0182" width="30.8847" height="30.8847" style="fill:#e51837"/><line x1="293.5942" y1="11.9148" x2="293.5942" y2="64.0723" style="fill:none;stroke:#ccc;stroke-miterlimit:10;stroke-width:2px"/></g></g></svg>