<svg xmlns="http://www.w3.org/2000/svg" viewBox="0 0 208.1882 46.1549"><g id="Layer_2" data-name="Layer 2"><g id="metric_content" data-name="metric content"><polygon points="203.595 0 192.222 24.329 187.946 15.11 183.321 15.11 190.353 30.189 194.091 30.189 208.188 0 203.595 0" style="fill:#d52b1e"/><path d="M154.8107,45.1729h9.1549V28.4152c0-3.833,2.2175-6.5257,5.512-6.5257,3.1678,0,4.8151,2.2175,4.8151,5.417V45.1729h9.155V25.5642c0-6.6524-3.9915-11.3408-10.4538-11.3408a10.3141,10.3141,0,0,0-9.155,5.0052h-.19V15.11h-8.87l.0317,30.0625ZM136.8175,14.2868c-9.5667,0-15.9657,6.8741-15.9657,15.9341,0,8.9965,6.399,15.934,15.9657,15.934s15.9658-6.9375,15.9658-15.934C152.815,21.1609,146.3843,14.2868,136.8175,14.2868Zm-.0633,25.089c-4.34,0-6.6524-3.6429-6.6524-9.1549,0-5.5754,2.2808-9.155,6.6524-9.155,4.34,0,6.7474,3.58,6.7474,9.155C143.5333,35.7329,141.1258,39.3758,136.7542,39.3758ZM94.7491,45.1729h25.7226V37.95H105.9v-.19L119.8381,22.143V15.0788H94.7491V22.333h14.0967v.19L94.7491,38.2671v6.9058Zm-11.7526,0h9.2183V15.11H82.9965Zm-21.3827,0h9.1867V31.3613c0-6.2723,3.77-9.06,9.5034-8.268h.19V15.1738a4.9992,4.9992,0,0,0-1.869-.2218c-3.58,0-5.9871,1.6473-8.0462,5.1636h-.19V15.11H61.6138V45.1729ZM44.7611,39.4075c-4.0548,0-6.5257-2.6293-7.0009-6.6841H59.428c.0634-6.4623-1.6472-11.6258-5.2268-14.857a14.29,14.29,0,0,0-10.1053-3.643c-9.06,0-15.3322,6.8742-15.3322,15.8708,0,9.06,5.9871,15.9657,15.934,15.9657a15.8764,15.8764,0,0,0,9.2184-2.6926,11.8241,11.8241,0,0,0,5.0368-7.0959H50.1464C49.2911,38.2354,47.4537,39.4075,44.7611,39.4075Zm-.4752-18.6267c3.2312,0,5.4487,2.4075,5.8288,5.9238H37.8236C38.5522,23.1567,40.4846,20.7808,44.2859,20.7808ZM10.4538,45.1729h9.63L30.5376,15.11H21.3193l-5.86,19.3237h-.1267L9.4717,15.11H0Zm72.5427-40.77h9.2183v8.1729H82.9965Z"/></g></g></svg>