<svg xmlns="http://www.w3.org/2000/svg" viewBox="0 0 85.4183 18.9371"><g id="Layer_2" data-name="Layer 2"><g id="below_the_fold" data-name="below the fold"><polygon points="83.534 0 78.868 9.982 77.113 6.2 75.215 6.2 78.101 12.386 79.634 12.386 85.418 0 83.534 0" style="fill:#d52b1e"/><path d="M63.5178,18.5342H67.274V11.6586c0-1.5727.91-2.6775,2.2616-2.6775,1.3,0,1.9756.91,1.9756,2.2226v7.33h3.7562V10.4888c0-2.7294-1.6377-4.653-4.2891-4.653a4.2315,4.2315,0,0,0-3.7562,2.0536h-.078V6.2H63.5048l.013,12.3345ZM56.1354,5.8618a6.2961,6.2961,0,0,0-6.5507,6.5376,6.5507,6.5507,0,0,0,13.1013,0A6.2887,6.2887,0,0,0,56.1354,5.8618Zm-.026,10.2938c-1.7807,0-2.73-1.4946-2.73-3.7562,0-2.2875.9358-3.7562,2.73-3.7562,1.7806,0,2.7684,1.4687,2.7684,3.7562C58.8908,14.661,57.903,16.1556,56.1094,16.1556ZM38.8749,18.5342H49.4287V15.5708H43.45v-.078l5.7188-6.4077V6.1867H38.8749V9.1631h5.7838v.078l-5.7838,6.46v2.8335Zm-4.822,0h3.7823V6.2H34.0529Zm-8.7731,0H29.049V12.8673c0-2.5734,1.5467-3.7172,3.8992-3.3923h.0779V6.2257a2.051,2.051,0,0,0-.7668-.091A3.5909,3.5909,0,0,0,28.958,8.2533H28.88V6.2h-3.6V18.5342Zm-6.9146-2.3656a2.786,2.786,0,0,1-2.8724-2.7424h8.89c.026-2.6514-.6758-4.77-2.1445-6.0957a5.863,5.863,0,0,0-4.1462-1.4947,6.1985,6.1985,0,0,0-6.2906,6.5116,6.21,6.21,0,0,0,6.5376,6.5507,6.5134,6.5134,0,0,0,3.7822-1.1048,4.851,4.851,0,0,0,2.0666-2.9114H20.5747A2.2188,2.2188,0,0,1,18.3652,16.1686ZM18.17,8.5262a2.4426,2.4426,0,0,1,2.3915,2.4305H15.5188A2.601,2.601,0,0,1,18.17,8.5262ZM4.2891,18.5342H8.24L12.5294,6.2H8.7472L6.3427,14.1281h-.052L3.8862,6.2H0ZM34.0529,1.8066h3.7823V5.16H34.0529Z" style="fill:#fff"/></g></g></svg>