<svg width="596" height="210" viewBox="0 0 596 210" fill="none" xmlns="http://www.w3.org/2000/svg">
<path d="M595.4 50.3032H564.469L546.568 125.825L544.057 136.188C542.331 136.659 540.604 137.129 538.876 137.445C535.735 138.072 532.439 138.386 528.987 138.386C525.06 138.386 521.922 137.759 519.566 136.659C517.366 135.561 515.639 133.992 514.697 131.792C513.754 129.75 513.44 127.239 513.597 124.413C513.754 121.587 514.382 118.446 515.167 115.308L524.588 76.053L530.71 49.9904H499.151L484.864 110.281C483.136 117.501 482.194 124.412 481.88 131.007C481.565 137.6 482.665 143.253 484.864 148.435C487.063 153.459 490.986 157.384 496.325 160.366C501.664 163.35 509.358 164.76 519.094 164.76C525.846 164.76 531.811 164.136 536.837 163.035C536.994 163.035 537.307 162.879 537.464 162.879C536.052 169.158 533.225 174.181 528.827 178.109C524.274 182.034 517.679 184.075 508.886 184.075C505.117 184.075 501.664 183.918 498.523 183.45L492.4 209.042C496.483 209.513 501.037 209.827 506.06 209.827C515.481 209.827 523.645 208.728 530.71 206.685C537.776 204.487 543.745 201.348 548.924 196.951C553.948 192.554 558.187 187.059 561.641 180.623C565.094 174.029 567.763 166.332 569.805 157.227L591.158 67.417L595.4 50.3032ZM465.866 114.833C463.981 122.684 463.353 130.691 464.138 138.542C464.923 146.549 468.064 158.638 471.048 164.761H441.215C437.605 158.641 437.763 155.657 436.978 153.773C433.051 156.914 428.814 159.582 424.104 161.624C419.393 163.666 414.211 164.765 408.245 164.765C401.336 164.765 395.37 163.508 390.503 161.153C385.636 158.8 381.553 155.502 378.412 151.419C375.271 147.335 373.075 142.624 371.659 137.129C370.246 131.634 369.618 125.825 369.618 119.546C369.618 109.965 371.346 101.018 374.645 92.54C378.097 84.061 382.808 76.6797 388.776 70.4007C394.743 64.1205 409.345 50.1474 433.21 50.1474H481.099L465.866 114.833ZM444.042 76.3657C429.598 76.3657 426.927 76.3657 420.963 79.3506C416.724 81.5482 413.268 84.8459 410.285 88.6133C407.303 92.3807 404.79 96.7771 403.063 101.803C401.337 106.827 400.394 112.007 400.394 117.347C400.394 123.941 401.495 129.278 403.691 133.204C405.888 137.129 409.971 139.013 415.938 139.013C419.08 139.013 422.06 138.386 424.575 137.129C427.085 135.872 429.911 133.834 432.739 130.85C433.054 127.397 433.524 123.784 434.151 120.019C434.778 116.248 435.564 112.638 436.193 109.497L444.042 76.3657ZM361.141 95.6783C361.141 105.884 359.413 115.147 356.115 123.626C352.819 132.104 348.108 139.327 342.141 145.451C336.173 151.575 329.109 156.285 320.787 159.741C312.467 163.192 303.517 164.919 293.782 164.919C289.071 164.919 284.361 164.449 279.492 163.664L270.074 201.503H239.14L275.096 50.4578H316.39C324.243 50.4578 330.992 51.7148 336.487 54.067C342.139 56.4216 346.693 59.7205 350.462 63.8042C354.073 67.8867 356.741 72.7529 358.467 78.2482C360.356 83.5877 361.141 89.3981 361.141 95.6783ZM285.303 138.542C287.656 139.169 290.641 139.327 294.096 139.327C299.591 139.327 304.46 138.384 309.011 136.342C313.406 134.301 317.333 131.474 320.472 127.865C323.614 124.254 325.968 119.857 327.852 114.833C329.579 109.806 330.522 104.155 330.522 98.0329C330.522 92.0643 329.265 86.8842 326.597 82.8005C323.927 78.5633 319.376 76.3645 312.782 76.3645H300.533L285.303 138.542ZM220.301 138.542C216.374 138.542 213.237 137.914 210.88 136.815C208.682 135.716 206.954 134.147 206.013 131.947C205.07 129.906 204.756 127.394 204.914 124.568C205.07 121.741 205.698 118.6 206.483 115.461L215.902 76.2087H251.073L257.511 50.145H222.183L230.346 17.1721L197.373 22.351L176.491 110.592C174.763 117.813 173.821 124.725 173.507 131.316C173.192 137.91 174.292 143.566 176.491 148.745C178.689 153.77 182.614 157.694 187.953 160.678C193.291 163.661 200.985 165.073 210.72 165.073C217.472 165.073 223.437 164.446 228.463 163.346C228.934 163.187 229.718 163.031 230.188 162.875L236.627 136.026C234.428 136.81 232.23 137.284 230.188 137.594C227.052 138.227 223.753 138.542 220.301 138.542ZM141.639 50.3032L114.318 164.918H145.25L172.412 50.3032H141.639ZM175.71 37.1126L180.42 17.1721H149.489L144.779 37.1126H175.71ZM73.1817 50.4578C79.7758 50.4578 85.585 51.7148 90.4524 54.067C95.3198 56.4216 99.2454 59.5623 102.542 63.646C105.682 67.7297 108.037 72.4401 109.607 77.7785C111.177 83.1144 111.961 88.926 111.961 95.2062C111.961 104.784 110.235 113.734 106.623 122.369C103.012 130.848 98.3011 138.384 92.1791 144.663C86.0559 150.943 78.8327 155.97 70.5119 159.58C62.1899 163.19 53.24 165.074 43.5064 165.074C42.2494 165.074 40.0517 165.074 36.9123 164.918C33.7716 164.918 30.1612 164.603 26.2356 163.975C22.1531 163.349 17.9136 162.562 13.5171 161.465C9.12982 160.398 4.86717 158.872 0.799805 156.911L36.7541 5.86753L68.9422 0.84079L56.2237 54.3798C59.0492 53.1252 61.562 52.1821 64.3887 51.5554C67.0573 50.7729 70.041 50.4578 73.1817 50.4578ZM46.1749 139.327C51.0423 139.327 55.5958 138.227 59.8353 135.716C64.1313 133.335 67.9186 130.134 70.9828 126.295C74.1235 122.369 76.6351 117.815 78.363 112.947C80.0897 107.922 81.0316 102.743 81.0316 97.405C81.0316 90.8097 79.9328 85.6308 77.7339 81.861C75.5363 78.0924 70.9828 76.3657 65.0166 76.3657C63.1317 76.3657 61.0911 76.5239 57.9504 77.3087C54.8097 77.9355 52.1411 79.5076 49.6296 81.704L36.1262 138.699C40.2087 139.327 41.4645 139.483 42.5645 139.483C43.3494 139.327 44.6052 139.327 46.1749 139.327Z" fill="#002855"/>
</svg>
