<svg width="600" height="198" viewBox="0 0 600 198" fill="none" xmlns="http://www.w3.org/2000/svg">
<path d="M228 161.958H233.7V176.358H247.2V161.958H252.9V196.258H247.2V181.758H233.7V196.258H228C228 196.358 228 161.958 228 161.958Z" fill="#3E3935"/>
<path d="M260.9 179.458V179.058C260.9 168.858 267.2 161.558 276.2 161.558C285.1 161.558 291.3 168.858 291.3 179.058V179.458C291.3 189.658 285 196.958 276 196.958C267.1 196.958 260.9 189.658 260.9 179.458ZM285.3 179.358V179.058C285.3 171.658 281.4 166.658 276 166.658C270.6 166.658 266.7 171.458 266.7 178.858V179.158C266.7 186.558 270.6 191.558 276 191.558C281.6 191.558 285.3 186.758 285.3 179.358Z" fill="#3E3935"/>
<path d="M299.9 161.958H305.9L314.8 177.658L323.5 161.958H329.5V196.258H323.8V171.958L314.6 187.858H314.5L305.5 172.158V196.258H300V161.958H299.9Z" fill="#3E3935"/>
<path d="M341.5 161.958H363.1V167.058H347.1V176.358H361.2V181.458H347.1V191.058H363.4V196.158H341.6V161.958H341.5Z" fill="#3E3935"/>
<path d="M371 191.858L374.5 187.658C377.1 189.958 379.9 191.758 383.5 191.758C386.8 191.758 388.9 190.058 388.9 187.358C388.9 185.158 387.7 183.758 382.4 181.858C375.9 179.358 372.5 177.058 372.5 171.558V171.458C372.5 165.758 377 161.858 383.4 161.858C387.3 161.858 391.1 163.158 394.2 165.958L391 170.358C388.7 168.458 386.1 167.158 383.3 167.158C380.2 167.158 378.4 168.858 378.4 171.058C378.4 173.558 379.7 174.658 385.5 177.058C391.9 179.558 394.8 182.158 394.8 187.058V187.158C394.8 193.158 390.1 197.058 383.7 197.058C379 196.758 374.8 195.158 371 191.858Z" fill="#3E3935"/>
<path d="M409.3 167.258H400.3V161.958H424V167.158H415V196.058H409.3V167.258Z" fill="#3E3935"/>
<path d="M427.6 179.458V179.058C427.6 168.858 433.9 161.558 442.9 161.558C451.8 161.558 458 168.858 458 179.058V179.458C458 189.658 451.7 196.958 442.7 196.958C433.8 196.958 427.6 189.658 427.6 179.458ZM452.2 179.358V179.058C452.2 171.658 448.3 166.658 442.9 166.658C437.5 166.658 433.6 171.458 433.6 178.858V179.158C433.6 186.558 437.5 191.558 442.9 191.558C448.2 191.558 452.2 186.758 452.2 179.358Z" fill="#3E3935"/>
<path d="M465.1 161.958H477.5C481.4 161.958 484.6 163.158 486.7 165.158C488.4 166.858 489.6 169.558 489.6 172.758V172.858C489.6 178.058 486.7 181.458 482.5 182.858L490.6 196.058H484.1L476.8 183.858H476.5H471V195.958H465.3V161.958H465.1ZM477 179.158C481.4 179.158 483.8 176.858 483.8 173.158V173.058C483.8 169.158 481.3 167.258 477 167.258H470.7V179.158H477Z" fill="#3E3935"/>
<path d="M499.7 161.958H521.2V167.058H505.2V176.358H519.3V181.458H505.2V191.058H521.5V196.158H499.7V161.958Z" fill="#3E3935"/>
<path d="M574.2 67.8578V74.8578H584.8L569.1 115.458L552.5 74.8578H561.2V67.8578H525.6V74.8578H531.6L558.8 141.458C555.2 151.058 553.1 154.658 548.8 160.358C544.7 165.458 541.8 168.258 536 172.158L546.6 181.458C547.8 179.958 548.8 178.658 549.5 177.658C554.9 170.258 560.8 158.758 565.1 147.658L593.2 74.9578H600V67.9578H574.3L574.2 67.8578Z" fill="#3E3935"/>
<path d="M489.8 146.158C467.3 146.158 452.4 130.158 452.4 106.458C452.4 82.1578 467.7 66.0578 490.8 66.0578C510.3 66.0578 523.2 78.1578 523.2 96.5578V102.958H473.1C473.1 123.758 482.6 136.658 497.5 136.658C503.8 136.658 507.2 135.158 520.8 128.058L523.9 135.058C507.4 144.258 501.5 146.158 489.8 146.158ZM502.4 90.4578C502.4 80.4578 497.6 73.2578 490.6 73.2578C481.7 73.2578 474.6 81.6578 473.1 94.3578H502.3V90.4578H502.4Z" fill="#3E3935"/>
<path d="M248.8 136.958L209.7 29.7578H200.1L159.4 136.958H152.9V143.958H177V136.958H169.7L179.9 109.758H218.1L227.8 136.958H223.1V143.958H255.5V136.958H248.8ZM183.7 99.5578L199.7 57.6578L214.7 99.5578H183.7Z" fill="#3E3935"/>
<path d="M294.6 97.8578C276.9 90.8578 274.1 88.8578 274.1 82.5578C274.1 76.8578 278.9 73.0578 286.2 73.0578C294.6 73.0578 303.8 77.8578 303.9 84.1578C303.9 84.8578 303.9 85.8578 303.8 86.7578H312.1L313.3 67.8578H305L304.9 71.4578C300.1 67.3578 294.3 65.7578 286.1 65.7578C270 65.7578 259.3 74.9578 259.3 88.8578C259.3 100.658 265.4 107.358 281.6 113.558C298 119.858 302.3 123.158 302.3 129.858C302.3 135.258 297.2 138.758 289.2 138.758C278.7 138.758 269.4 132.658 269.4 125.958V122.658H260.2V143.758H268.3V139.258C273.4 143.758 280.2 145.958 290 145.958C306.9 145.958 316.6 137.358 316.6 122.658C316.7 110.758 311.1 104.358 294.6 97.8578Z" fill="#3E3935"/>
<path d="M398.3 86.9578C398.3 73.4578 390.6 66.0578 376.5 66.0578C365.9 66.0578 360.1 69.1578 349.2 80.1578V18.3578H344L322 25.6578V32.4578H329.6V136.958H321.9V143.958H356.8V136.958H349.2V88.9578C360.3 78.4578 363 76.8578 369.6 76.8578C376.4 76.8578 378.8 80.0578 378.8 90.0578V136.958H371.1V143.958H405.9V136.958H398.3V86.9578Z" fill="#3E3935"/>
<path d="M440.4 136.958V18.2578H435.7L413.9 25.4578V32.3578H420.7V136.958H413.2V143.958H447.9V136.958H440.4Z" fill="#3E3935"/>
<path d="M141.5 72.1578L70.8 0.857776C70.7 0.757776 70.7 0.757776 70.5 0.857776L0 72.1578V72.2578V143.858C0 143.958 0.1 143.958 0.1 143.958H141.3C141.4 143.958 141.4 143.858 141.4 143.858L141.5 72.1578ZM121.4 122.158C121.4 123.458 121.1 123.858 119.8 123.858H21.3C19.8 123.858 19.8 122.658 19.8 122.258V82.5578C19.8 80.5578 19.8 80.3578 21.1 79.0578C22.4 77.7578 68.2 31.6578 68.7 31.0578C69.4 30.1578 70 29.8578 70.4 29.8578C71 29.8578 71.4 30.2578 72 30.8578C73.3 32.1578 119.7 78.9578 120.1 79.4578C121 80.3578 121 80.6578 121 81.6578V122.058H121.4V122.158Z" fill="#FA8D29"/>
<path d="M593.6 142.758C592.3 144.058 590.7 144.658 588.9 144.658C587 144.658 585.4 144.058 584.1 142.758C582.8 141.458 582.2 139.858 582.2 137.958C582.2 135.958 582.9 134.358 584.2 133.058C585.5 131.858 587.1 131.158 588.9 131.158C590.8 131.158 592.4 131.858 593.7 133.158C595 134.458 595.7 136.058 595.7 137.958C595.6 139.858 594.9 141.458 593.6 142.758ZM584.8 134.058C583.8 135.258 583.2 136.358 583.2 137.958C583.2 139.558 583.8 140.858 584.8 141.858C585.8 142.858 587.1 143.458 588.7 143.458C590.2 143.458 591.5 142.858 592.6 141.858C593.6 140.658 594.2 139.358 594.2 137.958C594.2 136.458 593.6 135.158 592.6 134.058C591.4 132.858 590.1 132.358 588.7 132.358C587.3 132.458 586 133.058 584.8 134.058ZM585.8 141.758V134.358H587.8H589.4C590 134.358 590.4 134.458 590.9 134.758C591.6 135.058 591.9 135.758 591.9 136.458C591.9 137.058 591.8 137.458 591.3 137.758C591 138.058 590.6 138.158 590 138.158C590.4 138.258 590.9 138.458 591 138.558C591.4 138.858 591.7 139.458 591.7 140.158V140.858V141.158V141.458V141.558H589.8C589.8 141.258 589.7 140.958 589.7 140.558C589.7 140.158 589.7 139.858 589.6 139.658C589.5 139.358 589.3 139.258 589 139.058C588.9 139.058 588.6 138.958 588.3 138.958H587.9H587.5V141.558H585.8V141.758ZM589.5 135.858C589.2 135.758 588.9 135.758 588.3 135.758H587.9V137.958H588.6C589 137.958 589.5 137.858 589.6 137.658C589.9 137.558 590 137.258 590 136.758C590.1 136.258 589.8 135.958 589.5 135.858Z" fill="#3E3935"/>
</svg>
