<svg width="601" height="116" viewBox="0 0 601 116" fill="none" xmlns="http://www.w3.org/2000/svg">
<path d="M50.7003 0.196167L0.800293 28.9962V86.5962L50.7003 115.396L100.6 86.5962V28.9962L50.7003 0.196167ZM50.7003 0.196167L0.800293 28.9962V86.5962L50.7003 115.396L100.6 86.5962V28.9962L50.7003 0.196167Z" fill="white"/>
<path d="M70.4003 92.8962H63.3003L54.8003 85.0962V81.0962L63.6003 72.6962V59.3962L75.1003 51.8962L88.2003 61.7962L70.4003 92.8962ZM41.0003 71.8962L42.3003 59.3962L38.0003 48.1962H63.4003L59.2003 59.3962L60.4003 71.8962H50.6003H41.0003ZM46.8003 85.0962L38.3003 92.9962H31.1003L13.2003 61.7962L26.4003 51.9962L38.0003 59.3962V72.6962L46.8003 81.0962V85.0962ZM31.0003 25.0962H70.3003L75.0003 45.0962H26.4003L31.0003 25.0962ZM50.7003 0.196167L0.800293 28.9962V86.5962L50.7003 115.396L100.6 86.5962V28.9962L50.7003 0.196167Z" fill="#03316C"/>
<path d="M156.6 84.4962C143.4 84.4962 133.7 74.1962 133.7 61.4962C133.7 48.7962 143.5 38.1962 156.7 38.1962C165.1 38.1962 170.3 41.2962 174.4 45.7962L168.1 52.5963C165 49.2963 161.7 47.0963 156.6 47.0963C149.2 47.0963 143.8 53.4962 143.8 61.2962C143.8 69.2962 149.3 75.6962 157.1 75.6962C161.9 75.6962 165.4 73.3962 168.6 70.1962L174.7 76.2962C170.3 80.9962 165.2 84.4962 156.6 84.4962Z" fill="#002E73"/>
<path d="M194 84.4961H183.8V38.2961H194V49.0961C196.8 42.4961 201.9 37.8961 209.7 38.2961V49.0961H209.1C200.2 49.0961 194 54.8961 194 66.6961V84.4961Z" fill="#002E73"/>
<path d="M263 38.0961L240.5 96.8961H230.2L235.1 84.4961L215.8 38.0961H226.7L239.8 72.3961L252.4 38.0961H263Z" fill="#002E73"/>
<path d="M293 46.9961C286.1 46.9961 280.1 52.5961 280.1 61.2961C280.1 69.9961 286.2 75.5961 293 75.5961C300 75.5961 305.7 70.0961 305.7 61.2961C305.7 52.4961 299.9 46.9961 293 46.9961ZM295.3 84.3961C288 84.3961 283.4 80.6961 280.3 76.5961V96.8961H270.1V38.0961H280.3V46.3961C283.6 41.7961 288.2 38.0961 295.3 38.0961C305.8 38.0961 316 46.3961 316 61.1961C316 75.9961 305.9 84.3961 295.3 84.3961Z" fill="#002E73"/>
<path d="M338.3 47.7962V69.5962C338.3 73.4962 340.3 75.0962 343.8 75.0962H347.8V84.1962H340.8C333.4 84.1962 328.1 80.8962 328.1 71.1962V47.7962H322.5V39.0962H328.1V26.8962H338.3V39.0962H347.8V47.7962H338.3Z" fill="#002E73"/>
<path d="M379.9 46.9962C371.7 46.9962 366.5 53.3962 366.5 61.1962C366.5 69.0962 372.1 75.5963 380 75.5963C388.2 75.5963 393.4 69.1962 393.4 61.3962C393.6 53.4962 387.9 46.9962 379.9 46.9962ZM379.9 84.4962C366.4 84.4962 356.4 74.1962 356.4 61.4962C356.4 48.6962 366.5 38.1962 380.1 38.1962C393.7 38.1962 403.7 48.4962 403.7 61.2962C403.7 73.8962 393.7 84.4962 379.9 84.4962Z" fill="#002E73"/>
<path d="M501 46.9962C492.8 46.9962 487.6 53.3962 487.6 61.1962C487.6 69.0962 493.2 75.5963 501.1 75.5963C509.3 75.5963 514.5 69.1962 514.5 61.3962C514.6 53.4962 509 46.9962 501 46.9962ZM501 84.4962C487.5 84.4962 477.5 74.1962 477.5 61.4962C477.5 48.6962 487.6 38.1962 501.2 38.1962C514.8 38.1962 524.8 48.4962 524.8 61.2962C524.8 73.8962 514.7 84.4962 501 84.4962Z" fill="#002E73"/>
<path d="M585.2 38.0961C594.9 38.0961 600.8 44.1961 600.8 55.0961V84.3961H590.6V58.1961C590.6 51.0961 587.3 47.3961 581.6 47.3961C576.1 47.3961 572.1 51.2961 572.1 58.3961V84.4961H561.9V58.1961C561.9 51.2961 558.5 47.3961 552.9 47.3961C547.3 47.3961 543.4 51.5961 543.4 58.4961V84.4961H533.2V38.1961H543.4V45.7961C546.3 41.8961 550.1 38.1961 556.9 38.1961C563.3 38.1961 567.7 41.2961 570.1 45.9961C573.8 41.1961 578.5 38.0961 585.2 38.0961Z" fill="#002E73"/>
<path d="M422.4 75.0961V80.2961L422.1 80.7961L417.6 83.2961H417L412.6 80.7961L412.3 80.2961V75.0961L412.6 74.5961L417 72.0961H417.6L422.1 74.5961L422.4 75.0961Z" fill="#002E73"/>
<path d="M453.3 84.3962C440.1 84.0962 430.6 73.5962 430.8 60.8962C431 48.1962 441 37.7962 454.3 38.0962C462.7 38.2962 467.9 41.4962 471.9 46.0962L465.5 52.7962C462.5 49.4962 459.2 47.0962 454.1 46.9962C446.7 46.8962 441.2 53.0962 441.1 60.9962C440.9 68.9962 446.3 75.4962 454.1 75.5962C458.9 75.6962 462.5 73.4962 465.7 70.2962L471.7 76.4962C467.2 81.1962 462 84.5962 453.3 84.3962Z" fill="#002E73"/>
</svg>
