<svg width="590" height="132" viewBox="0 0 590 132" fill="none" xmlns="http://www.w3.org/2000/svg">
<path d="M589.945 49.7605H574.943V107.961H589.945V49.7605Z" fill="black"/>
<path d="M589.945 21.9017H574.943V37.6925H589.945V21.9017Z" fill="black"/>
<path d="M559.376 22.6921V36.3399H521.028V60.1391H553.735V73.7868H521.028V107.963H505.462V22.6921H559.376Z" fill="black"/>
<path d="M463.617 72.659L491.365 107.963H473.203L453.578 83.0358L447.602 89.2394V108.076H432.6V22.3536H447.602V70.403L470.272 46.6041H488.434L463.617 72.659Z" fill="black"/>
<path d="M414.552 91.3815L418.95 104.014C412.181 107.962 404.962 109.879 396.954 109.879C386.919 109.767 379.136 106.834 373.834 100.969C368.532 95.1034 365.825 86.8698 365.825 76.3799C365.825 66.0031 368.532 57.9948 373.834 52.1297C379.136 46.2646 386.919 43.332 396.954 43.332C400.564 43.332 403.609 43.5573 406.205 44.0086C408.8 44.4599 411.507 45.2492 414.213 46.3774V60.4765C411.507 59.1226 408.8 58.2205 406.43 57.6564C403.948 57.0926 401.353 56.867 398.422 56.867C387.029 56.9798 381.392 63.409 381.392 76.2671C381.392 89.5768 386.919 96.2316 398.083 96.2316C403.499 96.2316 408.911 94.6525 414.552 91.3815Z" fill="black"/>
<path d="M349.921 59.5731C352.29 64.6489 353.531 70.1759 353.531 76.4923C353.531 82.8087 352.29 88.4482 349.921 93.5239C347.553 98.5993 343.831 102.547 339.093 105.48C334.243 108.412 328.378 109.879 321.611 109.879C314.617 109.879 308.752 108.412 303.902 105.48C299.052 102.547 295.443 98.5993 292.961 93.5239C290.48 88.4482 289.352 82.8087 289.352 76.4923C289.352 70.2887 290.593 64.6489 292.961 59.5731C295.443 54.4978 299.052 50.5498 303.902 47.6173C308.752 44.6847 314.617 43.2184 321.611 43.2184C328.491 43.2184 334.356 44.6847 339.093 47.6173C343.831 50.5498 347.553 54.4978 349.921 59.5731ZM338.078 76.4923C338.078 70.2887 336.612 65.3258 333.792 61.7163C330.972 58.1069 326.912 56.3025 321.611 56.3025C316.196 56.3025 312.136 58.1069 309.203 61.7163C306.384 65.3258 304.917 70.1759 304.917 76.4923C304.917 82.8087 306.384 87.6584 309.203 91.2679C312.023 94.8774 316.196 96.6821 321.611 96.6821C326.912 96.6821 330.972 94.8774 333.792 91.2679C336.612 87.6584 338.078 82.6959 338.078 76.4923Z" fill="black"/>
<path d="M279.539 95.2169V108.301C276.043 109.09 272.772 109.541 269.952 109.541C263.748 109.428 259.237 108.188 256.417 105.594C253.597 103 252.131 99.0516 252.131 93.6378V22.2402H267.132V88.6749C267.132 91.3818 267.583 93.2993 268.486 94.3143C269.388 95.3297 270.967 95.8934 273.336 95.8934C275.705 95.8934 277.735 95.6678 279.539 95.2169Z" fill="black"/>
<path d="M230.813 72.0949C233.519 75.4788 234.76 79.5395 234.76 84.5021C234.76 92.3976 232.279 98.263 227.429 102.211C222.579 106.158 214.345 107.963 202.84 107.963H170.356V22.6921H202.84C213.217 22.6921 220.549 24.6095 224.947 28.4445C229.346 32.2794 231.489 37.9189 231.489 45.5887C231.489 50.2132 230.587 54.0483 228.669 57.2065C226.752 60.3647 223.706 62.846 219.646 64.6507C224.383 66.2298 228.106 68.7115 230.813 72.0949ZM215.36 92.5104C217.841 90.5928 218.97 87.5474 218.97 83.3742C218.97 79.201 217.616 76.2685 214.909 74.3509C212.202 72.4334 208.141 71.5312 202.84 71.5312H185.921V95.3301H202.84C208.705 95.3301 212.878 94.4279 215.36 92.5104ZM215.586 46.8297C215.586 42.6562 214.57 39.7236 212.653 37.9189C210.736 36.1143 207.465 35.212 202.84 35.212H185.921V58.8984H202.84C211.3 58.8984 215.586 54.8377 215.586 46.8297Z" fill="black"/>
<path d="M122.871 46.7158C133.473 57.3182 133.473 74.4626 122.871 84.9526L84.6346 123.302C74.0318 133.904 56.8874 133.904 46.3978 123.302L8.04854 85.0654C-2.55394 74.4626 -2.55394 57.3182 8.04854 46.8286L46.285 8.47932C56.8874 -2.12315 74.0318 -2.12315 84.6346 8.47932L122.871 46.7158ZM94.2216 75.478C99.523 70.1766 99.523 61.6046 94.2216 56.3032L75.0472 37.1285C69.7458 31.8273 61.1738 31.8273 55.8724 37.1285L36.6977 56.3032C31.3965 61.6046 31.3965 70.1766 36.6977 75.478L55.8724 94.6524C61.1738 99.9538 69.7458 99.9538 75.0472 94.6524L94.2216 75.478Z" fill="#004BEF"/>
</svg>
