<svg width="601" height="189" viewBox="0 0 601 189" fill="none" xmlns="http://www.w3.org/2000/svg">
<path d="M599.464 70.1558C595.964 57.0558 569.064 27.1558 549.464 2.95576C549.064 2.55576 547.964 0.655762 545.664 0.655762C543.764 0.655762 542.164 2.55576 542.964 4.15576C543.764 5.65576 562.564 44.8558 559.064 57.5558C555.564 70.6558 538.364 67.9558 535.664 67.9558C534.164 67.9558 535.264 69.1558 536.864 70.6558C546.464 79.1558 552.664 91.0558 552.664 106.356V117.856C552.664 118.256 552.664 118.256 553.064 118.256C574.964 116.256 608.364 102.856 599.464 70.1558Z" fill="#6AAE22"/>
<path d="M514.564 145.856C514.564 156.956 499.564 163.156 489.964 163.156C479.564 163.156 464.964 157.056 464.964 145.856V106.656C464.964 95.5555 479.564 90.5555 489.964 90.5555C499.564 90.5555 514.564 95.9555 514.564 106.656V145.856ZM489.964 65.9556C466.864 66.3556 439.964 79.3556 439.964 106.256V147.356C439.964 174.656 466.864 187.656 489.964 187.656C512.664 187.256 539.564 174.556 539.564 147.356V106.656C539.564 79.7555 512.664 66.3556 489.964 65.9556Z" fill="#6AAE22"/>
<path d="M340.964 145.856C340.964 156.956 325.964 163.156 316.364 163.156C305.964 163.156 291.364 157.056 291.364 145.856V106.656C291.364 95.5555 305.964 90.5555 316.364 90.5555C325.964 90.5555 340.964 95.9555 340.964 106.656V145.856ZM315.964 65.9556C292.864 66.3556 265.964 79.3556 265.964 106.256V147.356C265.964 174.656 292.864 187.656 315.964 187.656C338.664 187.256 365.564 174.556 365.564 147.356V106.656C365.464 79.7555 338.564 66.3556 315.964 65.9556Z" fill="#6AAE22"/>
<path d="M65.3645 70.5556C66.8645 69.0556 68.0645 67.8557 66.5645 67.8557C63.8645 67.8557 46.5645 70.5557 43.1645 57.4557C39.7645 44.3557 58.5645 5.55566 59.2645 4.05566C59.6645 2.55566 58.4645 0.555664 56.1645 0.555664C54.2645 0.555664 52.6645 2.85567 52.3645 2.85567C33.1645 27.0557 5.86451 57.0556 2.36451 70.0556C-6.43549 102.756 27.7645 116.156 49.2645 118.456C49.6645 118.456 49.6645 118.056 49.6645 118.056V106.556C50.0645 90.9557 55.7645 78.9557 65.3645 70.5556Z" fill="#6AAE22"/>
<path d="M264.464 75.1556C246.064 70.1556 232.564 68.2556 212.564 68.2556C192.964 68.2556 179.164 70.1556 160.664 75.1556C159.864 75.5556 159.464 76.3556 159.864 76.6556C165.964 82.0556 168.664 88.9556 169.864 96.6556C179.864 94.3556 189.064 92.8556 199.864 92.0556V186.956C199.864 187.356 200.264 187.356 200.664 187.356H224.464C224.864 187.356 225.264 187.356 225.264 186.956V92.0556C235.664 92.8556 244.064 93.9556 254.064 96.6556C255.564 88.9556 258.664 81.6556 265.164 76.6556C265.264 75.9556 264.864 75.1556 264.464 75.1556Z" fill="#6AAE22"/>
<path d="M440.864 67.0557C438.964 66.6557 433.964 65.8557 429.364 66.2557C406.664 67.0557 380.964 80.4557 380.964 106.556V108.856V147.656V187.656C380.964 188.056 381.364 188.056 381.764 188.056H405.564C405.964 188.056 406.364 188.056 406.364 187.656V185.356V106.556C406.364 97.7557 417.164 92.7557 425.964 90.7557C428.664 82.2557 433.664 75.7557 441.364 69.6557C442.364 68.6557 441.964 67.0557 440.864 67.0557Z" fill="#6AAE22"/>
<path d="M134.165 113.556C134.165 113.956 134.165 113.956 133.765 114.356C133.765 114.756 133.365 114.756 132.965 114.756H87.6647V106.656C87.6647 95.5558 101.065 90.1558 111.465 90.1558C121.465 90.1558 134.165 95.5558 134.165 106.656V113.556ZM111.565 65.1558C88.1648 65.5558 62.3647 78.9558 62.3647 106.256V147.756C62.3647 175.456 88.0648 188.456 111.565 188.856C128.465 188.856 147.265 181.956 156.565 166.956C156.965 166.556 156.565 165.756 156.165 165.456C148.065 160.856 143.465 158.156 135.465 153.956C135.065 153.956 135.065 153.956 134.665 154.356C130.465 161.656 119.265 165.456 111.565 165.456C101.165 165.456 87.7647 158.956 87.7647 147.756V135.456H152.665C156.165 135.456 158.765 132.756 158.765 129.356V106.656C158.765 78.9558 134.565 65.5558 111.565 65.1558Z" fill="#6AAE22"/>
</svg>
