<svg width="615" height="618" viewBox="0 0 615 618" fill="none" xmlns="http://www.w3.org/2000/svg">
<path d="M0.781738 308.932V617.732H307.482H614.282V308.932V0.131836H307.482H0.781738V308.932Z" fill="black"/>
<path d="M540.982 178.132V280.932L527.082 294.832L513.082 308.832L527.082 322.832L540.982 336.732V439.532V542.232H307.482H74.0815V439.732V336.832L87.9815 322.932L101.982 308.932L87.9815 294.932L74.0815 281.032V178.132V75.4319H307.582H541.082V178.132H540.982ZM96.6815 184.532V271.032L115.582 289.932L134.582 308.932L115.582 327.932L96.6815 346.832V433.332V519.832H307.482H518.282V433.332V346.832L499.382 327.932L480.382 308.932L499.382 289.932L518.282 271.032V184.532V98.0319H307.482H96.6815V184.532Z" fill="white"/>
<path d="M265.882 166.532L280.582 181.232V216.232V251.232L265.982 265.832L251.282 280.532H212.182H173.082V216.132V151.732H212.182H251.282L265.882 166.532ZM195.782 216.232V257.932H218.682H241.582L249.082 249.832L256.582 241.832V216.232V190.532L248.982 182.432L241.382 174.332H218.482H195.782V216.232Z" fill="white"/>
<path d="M426.082 216.132C440.682 251.332 452.582 280.132 452.582 280.332C452.582 280.532 447.082 280.632 440.282 280.632H427.982L424.782 273.032L421.582 265.432H388.882H356.182L353.182 272.832L350.182 280.232L337.682 280.432C327.782 280.532 325.182 280.432 325.482 279.732C325.682 279.232 337.482 250.632 351.782 216.232C366.082 181.732 377.882 153.232 378.082 152.732C378.382 152.132 380.982 151.932 389.082 152.032L399.582 152.232L426.082 216.132ZM377.782 213.932C371.882 228.232 366.782 240.432 366.582 241.132C366.182 242.332 367.482 242.432 388.982 242.432C407.282 242.432 411.682 242.232 411.482 241.532C410.982 239.532 389.382 187.932 388.982 187.932C388.682 187.932 383.782 199.732 377.782 213.932Z" fill="white"/>
<path d="M270.782 348.432V359.732L237.082 401.432L203.582 443.032L237.082 443.232L270.782 443.332V454.732V466.032H221.882H173.082V454.432L173.182 443.032L206.982 401.632L240.782 360.232L206.882 360.032L173.082 359.832V348.532V337.232H221.882H270.782V348.432Z" fill="white"/>
<path d="M386.882 383.032L418.982 429.032L419.182 383.032L419.282 337.232H430.682H441.982V401.632V466.032H429.082H416.182L387.482 424.332L358.782 382.732L358.582 424.432L358.482 466.032H346.482H334.382V401.632V337.232H344.582H354.682L386.882 383.032Z" fill="white"/>
</svg>
