<svg width="670" height="149" viewBox="0 0 670 149" fill="none" xmlns="http://www.w3.org/2000/svg">
<path d="M653.638 1.19196C658.768 0.921933 663.899 0.921933 669.029 1.05695C653.638 33.19 638.786 65.5931 623.8 97.8612H611.244C604.358 81.6596 596.257 65.8631 589.102 49.6616C594.097 49.5266 599.093 49.5266 604.088 49.6616C608.408 59.6525 613.539 69.2384 617.454 79.2294C629.47 53.1719 641.892 27.2494 653.638 1.19196Z" fill="#CD040B"/>
<path d="M267.096 14.9634C276.952 15.0984 286.943 15.0984 296.799 14.9634C296.664 23.7392 296.664 32.6501 296.799 41.4259C286.943 41.2909 276.952 41.4259 266.961 41.2909C267.231 32.5151 266.961 23.7392 267.096 14.9634ZM117.637 52.767C137.889 41.2909 167.321 45.2063 180.958 65.0532C189.329 76.7993 191.759 91.6507 191.624 105.692C168.402 105.827 145.179 105.692 121.957 105.827C123.037 112.983 126.143 120.543 132.758 124.324C142.209 129.859 157.06 128.239 161.786 117.303C171.372 117.033 180.823 117.033 190.409 117.303C187.438 128.239 179.473 137.555 169.482 142.686C158.681 148.626 145.719 149.706 133.703 147.681C121.012 145.656 109.266 138.5 102.11 127.834C94.2795 116.493 92.2543 102.047 94.0094 88.6804C95.7646 73.964 104.54 60.0577 117.637 52.767ZM133.433 69.6436C126.818 72.7489 123.577 79.9046 122.092 86.7902H161.786C160.976 81.5247 159.086 75.9892 155.035 72.3438C149.365 66.8083 140.319 66.6733 133.433 69.6436ZM428.976 47.6365C444.908 44.8012 462.594 48.1765 474.881 59.2476C495.808 77.8794 496.753 113.928 477.311 133.91C461.919 149.976 436.132 152.947 416.42 143.901C401.164 137.015 390.768 121.489 389.013 105.017C388.337 95.431 388.742 85.5751 392.658 76.6643C398.598 61.4078 413.045 50.3367 428.976 47.6365ZM432.352 69.6436C423.981 72.6139 420.065 81.6597 418.85 89.8955C417.905 100.156 418.04 111.768 424.656 120.273C431.812 129.589 447.608 129.319 454.764 120.138C460.704 112.713 461.649 102.587 460.974 93.4059C460.569 85.3051 457.734 76.6643 450.983 71.6688C445.583 68.0234 438.427 67.4834 432.352 69.6436ZM534.961 53.172C544.817 45.4763 558.859 44.6662 570.2 49.2566C578.3 52.767 584.376 59.9227 587.211 68.1585C590.452 76.6643 589.507 85.8451 589.507 94.756C589.507 111.768 589.372 128.779 589.642 145.656C579.786 145.791 569.93 145.656 559.939 145.791V87.4653C559.939 82.4698 558.049 77.0693 553.863 73.964C547.518 69.6436 538.337 70.4537 532.936 75.8542C528.616 80.1746 526.726 86.3852 526.861 92.3257V145.791C517.14 145.656 507.284 145.791 497.563 145.656C497.563 113.523 497.698 81.3897 497.563 49.2566C507.149 49.3917 516.6 49.1216 526.186 49.3917C526.051 53.8471 526.051 58.3025 525.916 62.7579C528.886 59.5176 531.316 55.8723 534.961 53.172ZM0.580566 49.5267H31.3635C37.5741 70.1836 44.1897 90.8406 49.9953 111.633C57.1509 91.2456 62.5515 70.1836 69.3021 49.5267C79.158 49.3917 89.149 49.5267 99.0049 49.3917C87.6638 81.5247 76.5928 113.658 65.3867 145.791C55.1258 145.791 44.8648 145.656 34.6038 145.926C22.8577 113.928 12.4617 81.3897 0.580566 49.5267ZM198.374 49.3917H226.727C226.592 54.7922 226.727 60.1927 226.457 65.5932C228.887 62.8929 230.642 59.5176 233.208 56.9524C239.553 49.9317 249.949 47.0964 259.13 49.5267C258.995 58.0325 258.995 66.5383 259.13 74.9091C251.839 74.099 243.739 74.369 237.528 78.8245C230.912 83.4149 227.942 91.9207 228.077 99.7514C227.942 115.143 228.077 130.399 228.077 145.791C218.221 145.791 208.23 145.656 198.374 145.926C198.509 113.658 198.509 81.5247 198.374 49.3917ZM267.096 49.5267C277.087 49.3917 286.943 49.5267 296.934 49.3917C296.799 81.5247 296.934 113.658 296.934 145.791C287.078 145.656 277.087 145.791 267.096 145.791V49.5267ZM304.9 49.3917C331.767 49.5267 358.635 49.3917 385.367 49.5267C385.097 56.9524 385.367 64.2431 385.232 71.6688C384.287 73.559 382.667 74.9091 381.452 76.5292C367.68 91.7857 354.179 107.447 340.138 122.569C355.934 122.839 371.731 122.569 387.527 122.704V145.926C359.985 145.791 332.442 145.791 304.9 145.926V123.514C319.346 107.312 333.657 91.2456 348.239 75.1791C348.644 74.369 350.399 73.559 349.454 72.4789C334.602 72.8839 319.751 72.4789 304.9 72.7489V49.3917Z" fill="black"/>
</svg>
