<svg width="601" height="147" viewBox="0 0 601 147" fill="none" xmlns="http://www.w3.org/2000/svg">
<path d="M44.4 1.33855L127.3 49.2386V98.0385L0.5 24.8386L41.2 1.33855C42.2 0.73855 43.4 0.73855 44.4 1.33855Z" fill="#3CA9E5"/>
<path d="M127.3 0.338501L85.1001 24.7385L127.3 49.1385V0.338501Z" fill="#2853C3"/>
<path d="M127.3 0.338501L168 23.8385C169 24.4385 169.6 25.5385 169.6 26.6385V122.339L127.3 97.9385V0.338501Z" fill="#1A4199"/>
<path d="M169.6 122.439L128.9 145.939C127.9 146.539 126.7 146.539 125.6 145.939L42.7002 98.0385V49.1385L169.6 122.439Z" fill="#2853C3"/>
<path d="M0.5 24.8385V120.538C0.5 121.738 1.1 122.839 2.1 123.339L42.8 146.839V49.1385L0.5 24.8385Z" fill="#60BEFF"/>
<path d="M42.7998 146.838L84.9998 122.438L42.7998 98.0385V146.838Z" fill="#3CA9E5"/>
<path d="M414.2 73.7385C412.3 51.5385 393.9 34.4385 371.6 34.2385H369.6C364.5 34.4385 359.4 35.5385 354.7 37.6385L353.7 38.0385H353.2C337.9 45.1385 328.2 60.5385 328.4 77.3385V78.1385C329.6 101.739 349 120.439 372.6 120.639H397.1C398.4 120.639 399.5 119.539 399.5 118.239V104.639C399.5 103.339 398.4 102.239 397.1 102.239H371.5C360.9 101.839 351.7 94.8385 348.4 84.6385H411.2C412.8 84.6385 414.2 83.2385 414.1 81.5385V73.8385C414.1 73.6385 414.1 73.5385 414.1 73.3385L414.2 73.7385ZM393.8 69.0385H348.6C350.8 62.9385 355.3 57.8385 361.1 55.0385L362 54.5385C374.3 49.6385 388.4 55.6385 393.3 67.9385C393.5 68.3385 393.6 68.7385 393.7 69.1385L393.8 69.0385ZM274.1 34.3385C266 34.6385 258.1 37.3385 251.5 42.0385V37.1385C251.5 36.3385 250.8 35.6385 250 35.6385H234.1C233.3 35.6385 232.6 36.3385 232.6 37.1385V118.938C232.6 120.238 233.7 121.339 235 121.339H249C250.3 121.339 251.4 120.238 251.4 118.938V77.4385C251.4 64.0385 262.3 53.1385 275.8 53.1385C276.6 53.1385 277.3 53.1385 278.1 53.2385C290.7 54.7385 300.2 65.4385 300.1 78.2385V118.938C300.1 120.238 301.2 121.339 302.5 121.339H316.7C318 121.339 319.1 120.238 319.1 118.938V77.5385C319 53.6385 299.7 34.4385 275.8 34.4385C275.1 34.2385 274.6 34.2385 274.1 34.3385ZM496.6 34.7385C496.2 34.3385 495.4 34.3385 495 34.7385L465 64.8385L435.4 35.2385C435 34.8385 434.2 34.8385 433.8 35.2385L421.7 47.3385C421.3 47.7385 421.3 48.5385 421.7 48.9385L451.3 78.5385L421 108.538C420.6 108.938 420.6 109.739 421 110.139L432.8 121.938C433.4 122.538 434.3 122.538 434.9 121.938L464.7 92.1385L494.3 121.739C494.7 122.139 495.5 122.139 495.9 121.739L508 109.639C508.4 109.239 508.4 108.438 508 108.038L478.4 78.4385L508.4 48.4385C508.8 48.0385 508.8 47.2385 508.4 46.8385C508.4 46.7385 496.6 34.7385 496.6 34.7385ZM556.6 33.9385C532.2 33.8385 512.3 53.4385 512.1 77.8385C512 102.239 531.6 122.139 556 122.339C580.4 122.439 600.3 102.838 600.5 78.4385C600.5 78.3385 600.5 78.2385 600.5 78.1385C600.5 53.8385 580.9 34.1385 556.6 33.9385ZM556.6 103.739C542.4 103.839 530.8 92.5385 530.7 78.3385C530.6 64.1385 541.9 52.5385 556.1 52.4385C570.3 52.3385 581.9 63.6385 582 77.8385C582.1 92.0385 570.7 103.539 556.6 103.739Z" fill="#2853C3"/>
</svg>
