<svg width="612" height="298" viewBox="0 0 612 298" fill="none" xmlns="http://www.w3.org/2000/svg">
<path d="M266.532 77.327V220.218C227.737 247.326 177.857 267.688 141.352 297.687V273.591C175.086 251.543 210.749 231.061 245.929 208.893V112.508C216.893 130.821 186.773 145.399 159.183 163.833V196.363L141.352 205.158V149.495L266.532 77.327Z" fill="#010101"/>
<path d="M126.534 149.375V224.194C126.534 234.475 126.534 244.595 126.534 254.555V295.639L0.750977 219.616V76.7247L20.9918 88.7728V208.29L107.859 261.543V161.544L78.9434 144.917V122.026L126.534 149.375Z" fill="#010101"/>
<path d="M258.463 67.0859L238.342 79.134L217.62 67.6883L134.126 22.5077L49.789 67.8087L134.126 116.001L140.391 112.266L146.897 108.772L161.234 100.58L182.318 111.303L173.162 116.604L139.909 135.881L133.644 139.495C91.9575 115.399 50.5119 91.3026 8.9458 67.2063C50.8733 43.833 90.8731 21.6644 133.283 0.339172C169.427 16.9656 202.68 37.086 237.499 56.1221C244.607 59.857 251.475 63.4714 258.463 67.0859Z" fill="#010101"/>
<path d="M355.207 131.182H378.58C378.106 132.773 377.46 134.309 376.652 135.76C375.921 137.04 375.074 138.249 374.122 139.374C373.202 140.535 372.151 141.587 370.99 142.507C365.919 146.5 359.61 148.589 353.159 148.41C347.531 148.612 341.942 147.411 336.894 144.917C332.25 141.962 328.501 137.796 326.05 132.868C323.399 128.422 321.984 123.347 321.954 118.17C322.042 113.341 323.459 108.631 326.05 104.555C328.644 99.9528 332.543 96.2217 337.255 93.8324C341.686 91.4313 346.61 90.0844 351.646 89.8963C356.682 89.7082 361.694 90.6841 366.291 92.7481C371.054 94.8143 375.386 97.7568 379.062 101.423L381.351 103.953L392.074 93.7119L389.544 91.1818C384.38 86.1732 378.388 82.0969 371.833 79.1337C368.708 77.9861 365.481 77.1389 362.195 76.6036C358.898 75.9789 355.55 75.6563 352.195 75.6397C344.148 75.506 336.21 77.5011 329.183 81.4228C322.426 84.9313 316.759 90.2231 312.797 96.724C308.868 103.321 306.788 110.853 306.773 118.531C306.712 128.705 310.352 138.553 317.014 146.242C321.319 151.376 326.71 155.49 332.797 158.29C339.217 160.908 346.106 162.18 353.038 162.025C358.551 162.397 364.079 161.587 369.253 159.649C374.428 157.712 379.128 154.691 383.041 150.79C386.953 146.889 389.987 142.197 391.94 137.028C393.893 131.86 394.719 126.334 394.363 120.82V117.447H355.207V131.182Z" fill="black"/>
<path d="M434.481 78.1704L395.445 160.7H410.385L422.433 135.64H450.987L463.035 160.7H478.457L439.903 78.1704H434.481ZM445.204 121.785H429.542L437.373 105.158L445.204 121.785Z" fill="black"/>
<path d="M498.579 147.085V78.2903H484.482V160.941H527.856V160.7V147.085H498.579Z" fill="black"/>
<path d="M572.797 78.1704H567.014L528.098 160.7H543.761L555.809 135.64H584.483L596.532 160.7H611.953L572.797 78.1704ZM577.616 121.785H561.833L569.785 105.158L577.616 121.785Z" fill="black"/>
<path d="M405.69 203.832V205.157C405.865 207.93 405.45 210.707 404.472 213.307C403.494 215.907 401.976 218.27 400.017 220.24C398.059 222.21 395.704 223.742 393.11 224.735C390.516 225.728 387.74 226.159 384.967 226.001C381.454 226.113 377.958 225.455 374.726 224.073C371.694 222.734 368.982 220.762 366.774 218.29C363.547 214.231 361.918 209.131 362.196 203.952C362.242 200.125 363.29 196.376 365.234 193.078C367.179 189.781 369.953 187.05 373.28 185.157C376.775 183.204 380.723 182.207 384.726 182.266C386.41 182.135 388.102 182.135 389.786 182.266C391.428 182.62 393.04 183.103 394.606 183.712C397.934 185.134 400.96 187.178 403.521 189.736L404.244 190.338L399.786 194.555V193.952C397.819 191.905 395.437 190.303 392.798 189.254C390.536 188.184 388.072 187.609 385.57 187.567C382.619 187.556 379.715 188.302 377.136 189.736C374.545 191.048 372.406 193.103 370.991 195.639C369.543 197.954 368.752 200.62 368.702 203.35C368.735 206.196 369.525 208.983 370.991 211.422C372.513 213.947 374.674 216.025 377.256 217.446C379.96 218.894 382.984 219.64 386.051 219.615C389.122 219.723 392.151 218.881 394.726 217.205C395.412 216.739 396.021 216.17 396.533 215.519C397.043 214.883 397.487 214.196 397.859 213.47C398.516 212.399 398.966 211.214 399.184 209.976H386.292V204.193L405.69 203.832Z" fill="black"/>
<path d="M429.545 183.592L448.942 224.917H442.557L436.292 211.905H420.508L414.364 224.917H407.858L427.376 183.592H429.545ZM433.761 206.242L428.46 195.037L423.159 206.242H433.761Z" fill="black"/>
<path d="M493.399 183.592L499.303 224.917H493.64L490.026 198.893L477.014 224.917H474.966L461.833 198.652L458.58 224.917H452.556L458.58 183.592H460.508L476.05 214.917L491.351 183.592H493.399Z" fill="black"/>
<path d="M528.942 189.495H510.268V199.976H528.822V205.76H510.268V219.374H528.822V225.037H504.726V183.711H528.822L528.942 189.495Z" fill="black"/>
<path d="M554.964 207.567C556.259 209.493 556.97 211.753 557.012 214.073C557.003 215.596 556.677 217.1 556.055 218.49C555.433 219.88 554.528 221.125 553.398 222.145C552.272 223.262 550.937 224.146 549.469 224.745C548.001 225.345 546.429 225.649 544.843 225.639C542.346 225.658 539.904 224.901 537.856 223.471C535.44 221.723 533.495 219.405 532.193 216.724V216.001L537.133 212.989V213.832C538.014 215.623 539.243 217.22 540.747 218.531C541.82 219.358 543.128 219.822 544.482 219.856C545.645 219.861 546.796 219.615 547.855 219.133C548.734 218.642 549.51 217.987 550.145 217.206C550.634 216.322 550.883 215.325 550.867 214.314C550.869 213.084 550.444 211.891 549.663 210.941C547.747 208.655 545.467 206.701 542.916 205.158C540.592 203.548 538.451 201.689 536.53 199.615C535.121 197.693 534.361 195.372 534.362 192.989C534.299 191.171 534.759 189.373 535.687 187.808C536.101 187.049 536.629 186.359 537.253 185.76L539.542 184.194C541.144 183.25 542.985 182.79 544.843 182.869C546.825 182.847 548.777 183.345 550.506 184.314C552.661 185.687 554.507 187.492 555.928 189.615V190.459L551.349 193.953V193.23C550.368 191.826 549.191 190.568 547.855 189.495C546.924 189.015 545.891 188.767 544.843 188.772C544.245 188.714 543.642 188.792 543.079 189.001C542.515 189.21 542.006 189.543 541.59 189.977C541.164 190.326 540.822 190.768 540.593 191.269C540.363 191.77 540.251 192.317 540.265 192.868C540.177 193.589 540.177 194.317 540.265 195.037C540.773 195.871 541.379 196.639 542.072 197.326C542.444 197.766 542.893 198.133 543.398 198.411L547.133 201.182C550.076 202.865 552.722 205.023 554.964 207.567Z" fill="black"/>
</svg>
